<svg width="131" height="24" viewBox="0 0 131 24" fill="none" xmlns="http://www.w3.org/2000/svg">
<path d="M19.3105 10.7308C19.6649 10.7308 19.9721 10.8788 20.2241 11.1748C20.4761 11.4708 20.6021 11.8316 20.6021 12.2479C20.6021 12.6688 20.4761 13.0249 20.2241 13.321C19.9721 13.617 19.6649 13.765 19.3105 13.765H5.85932C5.50098 13.765 5.19778 13.617 4.94577 13.321C4.69375 13.0249 4.56775 12.6688 4.56775 12.2479C4.56775 11.8316 4.69375 11.4708 4.94577 11.1748C5.19778 10.8788 5.50098 10.7308 5.85932 10.7308H19.3105ZM5.56005 8.3811C4.93002 8.3811 4.41811 8.51986 4.03222 8.78813C3.64238 9.04714 3.33131 9.37092 3.10292 9.7502C2.88241 10.1202 2.72883 10.5365 2.64614 10.9898C2.57133 11.4477 2.53589 11.8686 2.53589 12.2479C2.53589 12.6318 2.57133 13.0527 2.64614 13.506C2.72883 13.9639 2.88241 14.3848 3.10292 14.7641C3.33131 15.1341 3.64238 15.4579 4.03222 15.7261C4.41811 15.9852 4.93002 16.1147 5.56005 16.1147H20.4446C20.799 16.1147 21.1061 16.2627 21.3582 16.5587C21.6102 16.8547 21.7362 17.2155 21.7362 17.6318C21.7362 18.0666 21.6102 18.4273 21.3582 18.7234C21.1061 19.0194 20.799 19.1674 20.4446 19.1674H4.69375C3.9574 19.1674 3.2998 18.9593 2.7249 18.5383C2.14605 18.1082 1.65384 17.5578 1.24432 16.8917C0.842671 16.2257 0.535529 15.481 0.315017 14.6531C0.10238 13.8297 0 13.0249 0 12.2479C0 11.4477 0.110256 10.6383 0.330768 9.8242C0.559156 9.01014 0.889923 8.27009 1.32307 7.60404C1.75228 6.93799 2.27206 6.39682 2.88241 5.97592C3.50063 5.54576 4.19366 5.32837 4.96152 5.32837H20.4446C20.799 5.32837 21.1061 5.47638 21.3582 5.7724C21.6102 6.06842 21.7362 6.4292 21.7362 6.84548C21.7362 7.28026 21.6102 7.64104 21.3582 7.93706C21.1061 8.23308 20.799 8.3811 20.4446 8.3811H5.56005Z" fill="black"/>
<path d="M24.4462 12.2479C24.4462 11.4477 24.5564 10.6383 24.777 9.8242C25.0053 9.01014 25.3361 8.27009 25.7693 7.60404C26.1985 6.93799 26.7182 6.39682 27.3286 5.97592C27.9468 5.54576 28.6398 5.32837 29.4077 5.32837H45.1586C45.5129 5.32837 45.8201 5.47638 46.0721 5.7724C46.3241 6.06842 46.4501 6.4292 46.4501 6.84548C46.4501 7.28026 46.3241 7.64104 46.0721 7.93706C45.8201 8.23308 45.5129 8.3811 45.1586 8.3811H29.9747C29.3447 8.3811 28.8328 8.51986 28.4469 8.78813C28.0689 9.04714 27.7617 9.37092 27.5333 9.7502C27.3128 10.1202 27.1593 10.5365 27.0766 10.9898C26.9899 11.4477 26.9506 11.8686 26.9506 12.2479C26.9506 12.6318 26.9899 13.0527 27.0766 13.506C27.1593 13.9639 27.3128 14.3848 27.5333 14.7641C27.7617 15.1341 28.0689 15.4579 28.4469 15.7261C28.8328 15.9852 29.3447 16.1147 29.9747 16.1147H45.1586C45.5129 16.1147 45.8201 16.2627 46.0721 16.5587C46.3241 16.8547 46.4501 17.2155 46.4501 17.6318C46.4501 18.0666 46.3241 18.4273 46.0721 18.7234C45.8201 19.0194 45.5129 19.1674 45.1586 19.1674H29.1399C28.4036 19.1674 27.746 18.9593 27.1711 18.5383C26.5922 18.1082 26.1 17.5578 25.6905 16.8917C25.2889 16.2257 24.9817 15.481 24.7612 14.6531C24.5486 13.8297 24.4462 13.0249 24.4462 12.2479Z" fill="black"/>
<path d="M65.6065 16.1147C66.2129 16.1147 66.7169 15.9852 67.1186 15.7261C67.5163 15.4579 67.8274 15.1341 68.0479 14.7641C68.2763 14.3848 68.4298 13.9639 68.5046 13.506C68.5873 13.0527 68.6306 12.6318 68.6306 12.2479C68.6306 11.8686 68.5873 11.4477 68.5046 10.9898C68.4298 10.5365 68.2763 10.1202 68.0479 9.7502C67.8274 9.37092 67.5163 9.04714 67.1186 8.78813C66.7169 8.51986 66.2129 8.3811 65.6065 8.3811H54.6911C54.0611 8.3811 53.5492 8.51986 53.1633 8.78813C52.7853 9.04714 52.4781 9.37092 52.2498 9.7502C52.0292 10.1202 51.8757 10.5365 51.793 10.9898C51.7064 11.4477 51.667 11.8686 51.667 12.2479C51.667 12.6318 51.7064 13.0527 51.793 13.506C51.8757 13.9639 52.0292 14.3848 52.2498 14.7641C52.4781 15.1341 52.7853 15.4579 53.1633 15.7261C53.5492 15.9852 54.0611 16.1147 54.6911 16.1147H65.6065ZM71.1508 12.2479C71.1508 13.0527 71.0326 13.8575 70.8043 14.6716C70.5837 15.4856 70.2569 16.2257 69.8277 16.8917C69.3946 17.5578 68.8708 18.1082 68.2526 18.5383C67.6423 18.9593 66.9492 19.1674 66.1735 19.1674H53.8563C53.12 19.1211 52.4624 18.8806 51.8875 18.4458C51.3086 18.0157 50.8164 17.4745 50.4069 16.8177C50.0053 16.1655 49.6981 15.4394 49.4776 14.6346C49.265 13.8205 49.1626 13.0249 49.1626 12.2479C49.1626 11.4477 49.2728 10.6383 49.4934 9.8242C49.7217 9.01014 50.0525 8.27009 50.4857 7.60404C50.9149 6.93799 51.4347 6.39682 52.045 5.97592C52.6632 5.54576 53.3563 5.32837 54.1241 5.32837H66.4413C67.1855 5.36537 67.8431 5.60589 68.4101 6.04992C68.985 6.48471 69.4812 7.02587 69.8907 7.67804C70.3002 8.33484 70.6074 9.06102 70.82 9.86121C71.0405 10.666 71.1508 11.4616 71.1508 12.2479Z" fill="black"/>
<path d="M76.4349 8.62161C76.4349 9.11653 76.3562 9.62069 76.1987 10.1387C76.049 10.6568 75.7498 11.1563 75.3009 11.6373C75.1631 11.8131 75.0095 11.9519 74.8441 12.0629C74.6866 12.1646 74.5055 12.2109 74.3086 12.2109C73.9502 12.2109 73.647 12.0629 73.395 11.7668C73.143 11.4708 73.017 11.1147 73.017 10.6938C73.017 10.2266 73.1588 9.8427 73.4423 9.54668C73.462 9.52356 73.4974 9.47268 73.5525 9.39867C73.6037 9.31541 73.647 9.17665 73.6785 8.99164C73.7179 8.79738 73.7573 8.52911 73.7888 8.19608C73.8282 7.85381 73.8518 7.40052 73.8518 6.84548C73.8518 6.4292 73.9778 6.06842 74.2298 5.7724C74.4818 5.47638 74.785 5.32837 75.1434 5.32837C75.4978 5.32837 75.8049 5.47638 76.0569 5.7724C76.3089 6.06842 76.4349 6.4292 76.4349 6.84548V8.62161Z" fill="black"/>
<path d="M82.7377 13.765C82.2337 13.765 81.7651 13.654 81.3359 13.432C80.9028 13.21 80.5248 12.9139 80.2019 12.5439C79.875 12.1646 79.6191 11.7206 79.4301 11.2118C79.2411 10.6938 79.1466 10.1387 79.1466 9.54668C79.1466 8.95464 79.2411 8.40885 79.4301 7.90006C79.6191 7.3959 79.875 6.95186 80.2019 6.56796C80.5248 6.18868 80.9028 5.88341 81.3359 5.66139C81.7651 5.43938 82.2337 5.32837 82.7377 5.32837H99.1344C99.4888 5.32837 99.7959 5.47638 100.048 5.7724C100.3 6.06842 100.426 6.4292 100.426 6.84548C100.426 7.28026 100.3 7.64104 100.048 7.93706C99.7959 8.23308 99.4888 8.3811 99.1344 8.3811H82.6747C82.4109 8.3811 82.1747 8.4921 81.966 8.71412C81.7533 8.93614 81.6509 9.21366 81.6509 9.54668C81.6509 9.87046 81.7533 10.148 81.966 10.3792C82.1747 10.6151 82.4109 10.7308 82.6747 10.7308H97.6223C98.1263 10.7308 98.5989 10.8418 99.0399 11.0638C99.4809 11.2858 99.8629 11.5911 100.19 11.9704C100.513 12.3404 100.772 12.7844 100.961 13.3025C101.15 13.8205 101.245 14.3755 101.245 14.9676C101.245 15.5596 101.15 16.1147 100.961 16.6327C100.772 17.1415 100.513 17.5855 100.19 17.9648C99.8629 18.3487 99.4809 18.6447 99.0399 18.8529C98.5989 19.0656 98.1263 19.1674 97.6223 19.1674H81.2572C80.887 19.1674 80.5799 19.0194 80.3279 18.7234C80.0759 18.4273 79.9498 18.0666 79.9498 17.6318C79.9498 17.2155 80.0759 16.8547 80.3279 16.5587C80.5799 16.2627 80.887 16.1147 81.2572 16.1147H97.7326C97.9924 16.1147 98.2248 16.0037 98.4256 15.7816C98.6225 15.5596 98.7249 15.2914 98.7249 14.9676C98.7249 14.6346 98.6225 14.3524 98.4256 14.1165C98.2248 13.8853 97.9924 13.765 97.7326 13.765H82.7377Z" fill="black"/>
<path d="M107.446 12.7445C109.532 10.8944 111.749 9.47016 114.42 9.3261C115.355 9.27567 116.262 9.47318 117.166 9.56807C119.211 9.78276 121.828 9.92779 123.905 8.94201L123.936 9.02925C122.771 9.5922 121.808 10.1803 120.544 10.3838C118.152 10.7689 115.896 10.2281 113.479 10.856C110.638 11.5943 107.538 13.6899 105.741 16.1593C105.263 16.816 104.895 17.5106 104.551 18.2288C104.422 18.4971 104.214 18.8738 104.471 19.0755C104.902 19.4127 105.295 18.542 105.48 18.2452C106.261 16.994 107.449 15.8968 108.902 15.8725C109.893 15.8559 110.814 16.332 111.707 16.604C113.091 17.0251 114.561 17.3767 116.087 17.332C120.913 17.1907 124.837 13.3875 126.867 9.00623C127.392 7.87281 127.955 6.56915 128.111 5.37288C126.615 6.09644 125.358 6.5912 123.762 6.62807C120.227 6.70968 117.128 4.61817 113.422 6.10712C112.641 6.42085 111.85 6.93367 111.169 7.45706C110.443 8.01518 109.796 8.66503 109.222 9.37865C108.524 10.2475 107.508 11.6775 107.446 12.7445Z" fill="#00A650"/>
</svg>
