<svg width="346" height="235" viewBox="0 0 346 235" fill="none" xmlns="http://www.w3.org/2000/svg">
<path fill-rule="evenodd" clip-rule="evenodd" d="M222.445 126.835L221.825 86.4767L183.869 99.9409C177.118 101.792 170.12 101.792 163.37 99.9409L127.216 86.3379V127.112C128.258 142.069 163.06 146.615 173.732 147.239C182.179 147.76 215.968 142.277 220.53 133.671C221.562 131.563 222.18 129.186 222.332 126.731L222.445 126.835ZM7.15201 217.267H41.5324C40.215 216.834 39.0495 215.879 38.2152 214.55C37.3809 213.221 36.924 211.591 36.9145 209.911V7.59968C36.9145 5.59011 37.5603 3.66235 38.7107 2.23813C39.8611 0.813903 41.4223 0.00917608 43.0529 0L301.286 0C302.919 0.00912824 304.483 0.812737 305.638 2.23598C306.793 3.65922 307.445 5.58693 307.452 7.59968V209.876C307.446 211.562 306.987 213.199 306.146 214.53C305.306 215.861 304.131 216.811 302.806 217.233H338.82C348.365 217.233 348.365 235 338.82 235H7.15201C5.32178 234.859 3.60401 233.863 2.34846 232.216C1.09291 230.569 0.393982 228.394 0.393982 226.134C0.393982 223.874 1.09291 221.699 2.34846 220.051C3.60401 218.404 5.32178 217.409 7.15201 217.267ZM47.4455 11.9027H297.794V207.724H47.4455V11.9027ZM162.891 220.564H183.024C183.94 220.573 184.817 221.026 185.465 221.824C186.113 222.623 186.48 223.703 186.487 224.832C186.466 225.95 186.092 227.012 185.446 227.796C184.799 228.58 183.931 229.023 183.024 229.031H162.751C161.834 229.022 160.958 228.57 160.31 227.771C159.662 226.973 159.295 225.892 159.287 224.763C159.295 223.634 159.662 222.553 160.31 221.755C160.958 220.956 161.834 220.504 162.751 220.495L162.891 220.564ZM73.3786 177.569C72.6642 177.634 71.9466 177.516 71.2707 177.224C70.5948 176.931 69.9751 176.47 69.4503 175.869C68.9255 175.269 68.5069 174.541 68.2207 173.732C67.9344 172.922 67.7867 172.049 67.7867 171.166C67.7867 170.283 67.9344 169.41 68.2207 168.601C68.5069 167.792 68.9255 167.064 69.4503 166.463C69.9751 165.862 70.5948 165.401 71.2707 165.109C71.9466 164.816 72.6642 164.699 73.3786 164.764H272.621C273.933 164.883 275.16 165.609 276.055 166.797C276.95 167.984 277.448 169.545 277.448 171.166C277.448 172.787 276.95 174.348 276.055 175.536C275.16 176.723 273.933 177.45 272.621 177.569H73.3786ZM74.2796 140.473C72.9679 140.353 71.7412 139.627 70.846 138.44C69.9508 137.252 69.4532 135.691 69.4532 134.07C69.4532 132.449 69.9508 130.888 70.846 129.701C71.7412 128.513 72.9679 127.787 74.2796 127.668H114.432C114.432 128.258 114.432 128.847 114.432 129.403C114.826 133.401 116.037 137.21 117.952 140.473H74.2796ZM250.602 127.668H271.72C273.032 127.787 274.259 128.513 275.154 129.701C276.049 130.888 276.547 132.449 276.547 134.07C276.547 135.691 276.049 137.252 275.154 138.44C274.259 139.627 273.032 140.353 271.72 140.473H232.046C232.463 139.591 232.83 138.675 233.145 137.731H237.227C241.169 137.726 244.955 135.835 247.786 132.456L248.012 132.179C249.125 130.853 250.073 129.333 250.827 127.668H250.602ZM237.678 65.9333V100.635H238.551C238.842 100.635 239.121 100.778 239.327 101.031C239.533 101.285 239.649 101.629 239.649 101.988V111.392C239.649 111.751 239.533 112.096 239.327 112.349C239.121 112.603 238.842 112.746 238.551 112.746H237.678V116.008C238.232 116.144 238.731 116.512 239.09 117.049C239.449 117.587 239.647 118.261 239.649 118.957C239.642 119.746 239.384 120.5 238.932 121.058C238.479 121.615 237.867 121.933 237.227 121.942H232.863C232.218 121.942 231.599 121.629 231.141 121.07C230.682 120.511 230.421 119.752 230.413 118.957C230.417 118.256 230.618 117.578 230.983 117.04C231.348 116.502 231.853 116.137 232.412 116.008V112.746H231.511C231.22 112.746 230.941 112.603 230.735 112.349C230.529 112.096 230.413 111.751 230.413 111.392V102.058C230.413 101.699 230.529 101.355 230.735 101.101C230.941 100.847 231.22 100.704 231.511 100.704H232.412V68.0501L186.347 85.7132C178.137 88.229 169.552 88.229 161.343 85.7132L110.659 67.009L106.041 65.3086C100.41 62.4284 101.761 55.6615 107.083 54.1L164.44 32.9666C170.221 30.7103 176.427 30.7103 182.208 32.9666L238.663 53.7877C244.802 55.6268 246.013 62.6366 238.889 65.5168L237.678 65.968V65.9333Z" fill="#FFEDED"/>
</svg>
