<svg width="211" height="252" viewBox="0 0 211 252" fill="none" xmlns="http://www.w3.org/2000/svg">
<g id="Group">
<path id="Vector" d="M175.324 0H21.7113C17.9814 0 14.9471 3.42888 14.9471 7.64384V15.7808H7.74655C4.01664 15.7808 0.982361 19.2097 0.982361 23.4247V244.356C0.982361 248.571 4.01664 252 7.74655 252H161.359C165.089 252 168.123 248.571 168.123 244.356V236.219H175.324C179.054 236.219 182.088 232.79 182.088 228.575V7.64384C182.088 3.42888 179.054 0 175.324 0ZM161.577 232.483C161.577 232.495 161.576 232.508 161.576 232.521C161.576 232.533 161.577 232.546 161.577 232.559V244.356C161.577 244.492 161.48 244.603 161.359 244.603H7.74655C7.6261 244.603 7.52835 244.492 7.52835 244.356V23.4247C7.52835 23.2885 7.6261 23.1781 7.74655 23.1781H18.2075C18.2118 23.1781 18.2158 23.1786 18.2201 23.1786C18.2245 23.1786 18.2284 23.1781 18.2328 23.1781H161.359C161.48 23.1781 161.577 23.2885 161.577 23.4247V232.483ZM175.542 228.575C175.542 228.711 175.444 228.822 175.324 228.822H168.123V23.4247C168.123 19.2097 165.089 15.7808 161.359 15.7808H21.4931V7.64384C21.4931 7.50773 21.5909 7.39726 21.7113 7.39726H175.324C175.444 7.39726 175.542 7.50773 175.542 7.64384V228.575Z" fill="white"/>
<path id="Vector_2" d="M140.194 51.2877H28.4755C26.6679 51.2877 25.2025 52.9437 25.2025 54.9863C25.2025 57.0289 26.6679 58.6849 28.4755 58.6849H140.194C142.001 58.6849 143.467 57.0289 143.467 54.9863C143.467 52.9437 142.001 51.2877 140.194 51.2877Z" fill="white"/>
<path id="Vector_3" d="M140.194 98.6301H28.4755C26.6679 98.6301 25.2025 100.286 25.2025 102.329C25.2025 104.371 26.6679 106.027 28.4755 106.027H140.194C142.001 106.027 143.467 104.371 143.467 102.329C143.467 100.286 142.001 98.6301 140.194 98.6301Z" fill="white"/>
<path id="Vector_4" d="M140.194 209.096H28.4755C26.6679 209.096 25.2025 210.752 25.2025 212.795C25.2025 214.837 26.6679 216.493 28.4755 216.493H140.194C142.001 216.493 143.467 214.837 143.467 212.795C143.467 210.752 142.001 209.096 140.194 209.096Z" fill="white"/>
<path id="Vector_5" d="M140.194 145.973H28.4755C26.6679 145.973 25.2025 147.629 25.2025 149.671C25.2025 151.714 26.6679 153.37 28.4755 153.37H140.194C142.001 153.37 143.467 151.714 143.467 149.671C143.467 147.629 142.001 145.973 140.194 145.973Z" fill="white"/>
<path id="Vector_6" d="M28.4755 74.4657H56.4051C58.2126 74.4657 59.6781 72.8097 59.6781 70.7671C59.6781 68.7245 58.2126 67.0685 56.4051 67.0685H28.4755C26.6679 67.0685 25.2025 68.7245 25.2025 70.7671C25.2025 72.8097 26.6679 74.4657 28.4755 74.4657Z" fill="white"/>
<path id="Vector_7" d="M140.194 67.0685H70.3699C68.5623 67.0685 67.0969 68.7245 67.0969 70.7671C67.0969 72.8097 68.5623 74.4657 70.3699 74.4657H140.194C142.001 74.4657 143.467 72.8097 143.467 70.7671C143.467 68.7245 142.001 67.0685 140.194 67.0685Z" fill="white"/>
<path id="Vector_8" d="M28.4755 90.2466H112.264C114.072 90.2466 115.537 88.5906 115.537 86.548C115.537 84.5054 114.072 82.8494 112.264 82.8494H28.4755C26.6679 82.8494 25.2025 84.5054 25.2025 86.548C25.2025 88.5906 26.6679 90.2466 28.4755 90.2466Z" fill="white"/>
<path id="Vector_9" d="M140.194 82.8494H126.229C124.421 82.8494 122.956 84.5054 122.956 86.548C122.956 88.5906 124.421 90.2466 126.229 90.2466H140.194C142.001 90.2466 143.467 88.5906 143.467 86.548C143.467 84.5054 142.001 82.8494 140.194 82.8494Z" fill="white"/>
<path id="Vector_10" d="M140.194 193.315H28.4755C26.6679 193.315 25.2025 194.971 25.2025 197.014C25.2025 199.056 26.6679 200.712 28.4755 200.712H140.194C142.001 200.712 143.467 199.056 143.467 197.014C143.467 194.971 142.001 193.315 140.194 193.315Z" fill="white"/>
<path id="Vector_11" d="M28.4755 169.151H56.4051C58.2126 169.151 59.6781 167.495 59.6781 165.452C59.6781 163.409 58.2126 161.753 56.4051 161.753H28.4755C26.6679 161.753 25.2025 163.409 25.2025 165.452C25.2025 167.495 26.6679 169.151 28.4755 169.151Z" fill="white"/>
<path id="Vector_12" d="M140.194 161.753H70.3699C68.5623 161.753 67.0969 163.409 67.0969 165.452C67.0969 167.495 68.5623 169.151 70.3699 169.151H140.194C142.001 169.151 143.467 167.495 143.467 165.452C143.467 163.409 142.001 161.753 140.194 161.753Z" fill="white"/>
<path id="Vector_13" d="M28.4755 184.931H112.264C114.072 184.931 115.537 183.275 115.537 181.233C115.537 179.19 114.072 177.534 112.264 177.534H28.4755C26.6679 177.534 25.2025 179.19 25.2025 181.233C25.2025 183.275 26.6679 184.931 28.4755 184.931Z" fill="white"/>
<path id="Vector_14" d="M140.194 177.534H126.229C124.421 177.534 122.956 179.19 122.956 181.233C122.956 183.275 124.421 184.931 126.229 184.931H140.194C142.001 184.931 143.467 183.275 143.467 181.233C143.467 179.19 142.001 177.534 140.194 177.534Z" fill="white"/>
<path id="Vector_15" d="M28.4755 121.808H73.861C75.6686 121.808 77.134 120.152 77.134 118.11C77.134 116.067 75.6686 114.411 73.861 114.411H28.4755C26.6679 114.411 25.2025 116.067 25.2025 118.11C25.2025 120.152 26.6679 121.808 28.4755 121.808Z" fill="white"/>
<path id="Vector_16" d="M140.194 114.411H87.8258C86.0182 114.411 84.5528 116.067 84.5528 118.11C84.5528 120.152 86.0182 121.808 87.8258 121.808H140.194C142.001 121.808 143.467 120.152 143.467 118.11C143.467 116.067 142.001 114.411 140.194 114.411Z" fill="white"/>
<path id="Vector_17" d="M28.4755 137.589H101.791C103.598 137.589 105.064 135.933 105.064 133.89C105.064 131.848 103.598 130.192 101.791 130.192H28.4755C26.6679 130.192 25.2025 131.848 25.2025 133.89C25.2025 135.933 26.6679 137.589 28.4755 137.589Z" fill="white"/>
<path id="Vector_18" d="M140.194 130.192H115.755C113.948 130.192 112.482 131.848 112.482 133.89C112.482 135.933 113.948 137.589 115.755 137.589H140.194C142.001 137.589 143.467 135.933 143.467 133.89C143.467 131.848 142.001 130.192 140.194 130.192Z" fill="white"/>
<path id="Vector_19" d="M199.762 71.0137C194.107 71.0137 189.507 76.2125 189.507 82.6027V220.685C189.507 221.082 189.564 221.477 189.675 221.855L196.489 244.956V248.301C196.489 250.344 197.955 252 199.762 252C201.57 252 203.035 250.344 203.035 248.301V244.956L209.85 221.854C209.961 221.477 210.018 221.082 210.018 220.684V82.6022C210.018 76.2125 205.417 71.0137 199.762 71.0137ZM199.762 232.66L196.157 220.438H203.367L199.762 232.66ZM203.472 213.041H196.053V94.1918H203.472V213.041ZM203.472 86.7945H196.053V82.6027C196.053 80.2913 197.717 78.4109 199.762 78.4109C201.808 78.4109 203.472 80.2913 203.472 82.6027V86.7945Z" fill="white"/>
</g>
</svg>
