<?xml version="1.0" encoding="UTF-8"?>
<!DOCTYPE svg PUBLIC "-//W3C//DTD SVG 1.1//EN" "http://www.w3.org/Graphics/SVG/1.1/DTD/svg11.dtd">
<!-- Creator: CorelDRAW 2018 -->
<svg xmlns="http://www.w3.org/2000/svg" xml:space="preserve" width="200px" height="200px" version="1.1" style="shape-rendering:geometricPrecision; text-rendering:geometricPrecision; image-rendering:optimizeQuality; fill-rule:evenodd; clip-rule:evenodd"
viewBox="0 0 200 200"
 xmlns:xlink="http://www.w3.org/1999/xlink">
 <defs>
  <style type="text/css">
   <![CDATA[
    .fil0 {fill:#FEFEFE}
   ]]>
  </style>
 </defs>
 <g id="Layer_x0020_1">
  <metadata id="CorelCorpID_0Corel-Layer"/>
  <path class="fil0" d="M83.2 20.31c-4.63,0.1 -17.19,5.22 -21.61,7.69l-6.51 3.64c-2.5,-1.67 -10.91,-8.59 -13.28,-8.59 -3.9,0 -3.33,0.04 -6.37,2.61 -3.31,2.79 -8.53,7.96 -11.06,11.21 -4.3,5.53 1.48,9.96 7.27,18.6 -3.86,5.76 -11.18,20.95 -11.33,27.73 -4.23,0.99 -9.11,1.4 -13.34,2.29 -3.87,0.82 -5.08,4.03 -5.41,8.1l0 9.92c0,13.95 5.29,10.15 18.75,13.29 0.15,6.78 7.47,21.97 11.33,27.73 -3.64,6.88 -12.18,12.29 -7.27,18.6 3.51,4.51 6.93,7.47 10.88,11 3.13,2.79 2.67,2.82 6.55,2.82 2.19,0 8.11,-4.84 10.09,-6.31 1.03,-0.75 2.21,-1.62 3.19,-2.28l6.27 3.5c4.27,2.48 17.34,7.73 21.85,7.83l2.28 13.74c1.5,4.91 5.86,5.01 11.39,5.01 1.55,0 3.13,-1.78 3.13,-3.52l0 -26.95c0,-7.42 -13.98,0.09 -35.16,-14.06l-9.47 -7.33c-1.68,-1.48 -2.41,-2.8 -3.9,-4.3 -9.81,-9.85 -15.92,-28.18 -15.92,-42.67 0,-13.87 6.29,-32.23 15.72,-41.7 1.57,-1.58 2.38,-2.97 4.1,-4.49 0.91,-0.8 1.24,-0.86 2.15,-1.76 9.43,-9.18 24.52,-14.88 37.77,-15.74 2.58,-0.17 4.71,-1.14 4.71,-3.89l0 -26.95c0,-5.62 -10.49,-3.57 -12.8,-1.47 -2.35,2.14 -3.96,14.95 -4,16.7z"/>
  <path class="fil0" d="M48.83 100c0,14.84 6.68,27.6 14.16,35.06 4.72,4.71 7.62,7.28 14.09,10.51 4.9,2.45 12.7,5.21 19.79,5.21 2.33,0 3.13,-1.57 3.13,-3.91l0 -93.75c0,-2.33 -0.8,-3.9 -3.13,-3.9 -13.28,0 -24.92,6.77 -33.69,15.52 -7.67,7.67 -14.35,20.08 -14.35,35.26z"/>
  <path class="fil0" d="M153.91 49.22c0,2.48 1.3,4.81 2.33,6.26 5.13,7.26 4.7,-5.26 4.7,19.52 0,2.7 -1.25,4.69 -3.91,4.69l-50.39 0 0 7.03 48.83 0c15.6,0 12.5,-14.33 12.5,-28.13 9.41,-2.19 8.88,-19.49 -3.55,-19.86 -5.54,-0.16 -10.51,4.93 -10.51,10.49z"/>
  <path class="fil0" d="M106.64 120.31l49.61 0c3.22,0 4.69,1.47 4.69,4.69l0 15.23c0,1.2 -1.26,1.4 -2.28,2.03 -0.98,0.61 -1.55,1.07 -2.26,2.03 -6.33,8.48 0.71,16.77 7.7,16.98 7.57,0.22 13.82,-9.07 8.57,-16.36 -1.01,-1.4 -2.78,-3.06 -4.7,-3.5 0,-13.8 3.1,-28.13 -12.5,-28.13l-48.83 0 0 7.03z"/>
  <path class="fil0" d="M182.03 96.48l-75.39 0 0 7.03 75.39 0c0.29,3.43 4.75,6.65 10.16,6.65 5.56,0 9.16,-4.87 9.37,-9.9l0 -0.95c-0.14,-3.39 -1.86,-6.72 -5.58,-8.57 -3.14,-1.57 -7.76,-1.17 -10.78,1.1 -1.23,0.92 -3.01,2.78 -3.17,4.64z"/>
  <path class="fil0" d="M126.95 28.12c0,2.66 0.65,20.87 -0.63,22.81 -0.42,0.64 -1.26,1.41 -2.1,1.41l-17.58 0 0 7.03 17.58 0c2.64,0 5.65,-1.72 6.93,-3.22 1.54,-1.81 2.69,-4.24 2.84,-7.32 0.31,-6.58 -0.01,-14.03 -0.01,-20.71 6.38,-1.48 9.25,-11.72 3.63,-16.9 -3.03,-2.79 -6.87,-3.73 -11.01,-2.2 -5.67,2.09 -8.5,9.86 -4.96,15.04 1.24,1.81 2.99,3.52 5.31,4.06z"/>
  <path class="fil0" d="M106.64 147.66l17.58 0c3.85,0 2.73,8.34 2.73,10.54 0,4.56 0,9.12 0,13.68 -5.95,1.38 -10.11,10.89 -3.42,17.1 6.64,6.16 17.1,1.3 17.1,-7.73 0,-4.38 -3.23,-8.58 -6.65,-9.37 0,-6.71 0.19,-13.66 0.02,-20.33 -0.08,-3.29 -1.14,-5.55 -2.68,-7.48 -1.28,-1.62 -4.33,-3.45 -7.1,-3.45l-17.58 0 0 7.04z"/>
  <path class="fil0" d="M106.64 73.05l33.59 0c4.9,0 5.14,-7.04 0.4,-7.04l-33.99 0 0 7.04z"/>
  <path class="fil0" d="M106.64 133.98l33.99 0c1.96,0 3.51,-1.69 3.51,-3.51 0,-1.83 -1.92,-3.52 -3.91,-3.52l-33.59 0 0 7.03z"/>
 </g>
</svg>
