<svg width="1920" height="6" viewBox="0 0 1920 6" fill="none" xmlns="http://www.w3.org/2000/svg">
<path d="M1 3H0V0H1V3Z" fill="#DED5C5" fill-opacity="0.3"/>
<path d="M4 3H3V0H4V3Z" fill="#DED5C5" fill-opacity="0.3"/>
<path d="M7 3H6V0H7V3Z" fill="#DED5C5" fill-opacity="0.3"/>
<path d="M10 3H9V0H10V3Z" fill="#DED5C5" fill-opacity="0.3"/>
<path d="M13 6H12V0H13V6Z" fill="#DED5C5" fill-opacity="0.3"/>
<path d="M16 3H15V0H16V3Z" fill="#DED5C5" fill-opacity="0.3"/>
<path d="M19 3H18V0H19V3Z" fill="#DED5C5" fill-opacity="0.3"/>
<path d="M22 3H21V0H22V3Z" fill="#DED5C5" fill-opacity="0.3"/>
<path d="M25 3H24V0H25V3Z" fill="#DED5C5" fill-opacity="0.3"/>
<path d="M28 6H27V0H28V6Z" fill="#DED5C5" fill-opacity="0.3"/>
<path d="M31 3H30V0H31V3Z" fill="#DED5C5" fill-opacity="0.3"/>
<path d="M34 3H33V0H34V3Z" fill="#DED5C5" fill-opacity="0.3"/>
<path d="M37 3H36V0H37V3Z" fill="#DED5C5" fill-opacity="0.3"/>
<path d="M40 3H39V0H40V3Z" fill="#DED5C5" fill-opacity="0.3"/>
<path d="M43 6H42V0H43V6Z" fill="#DED5C5" fill-opacity="0.3"/>
<path d="M46 3H45V0H46V3Z" fill="#DED5C5" fill-opacity="0.3"/>
<path d="M49 3H48V0H49V3Z" fill="#DED5C5" fill-opacity="0.3"/>
<path d="M52 3H51V0H52V3Z" fill="#DED5C5" fill-opacity="0.3"/>
<path d="M55 3H54V0H55V3Z" fill="#DED5C5" fill-opacity="0.3"/>
<path d="M58 6H57V0H58V6Z" fill="#DED5C5" fill-opacity="0.3"/>
<path d="M61 3H60V0H61V3Z" fill="#DED5C5" fill-opacity="0.3"/>
<path d="M64 3H63V0H64V3Z" fill="#DED5C5" fill-opacity="0.3"/>
<path d="M67 3H66V0H67V3Z" fill="#DED5C5" fill-opacity="0.3"/>
<path d="M70 3H69V0H70V3Z" fill="#DED5C5" fill-opacity="0.3"/>
<path d="M73 6H72V0H73V6Z" fill="#DED5C5" fill-opacity="0.3"/>
<path d="M76 3H75V0H76V3Z" fill="#DED5C5" fill-opacity="0.3"/>
<path d="M79 3H78V0H79V3Z" fill="#DED5C5" fill-opacity="0.3"/>
<path d="M82 3H81V0H82V3Z" fill="#DED5C5" fill-opacity="0.3"/>
<path d="M85 3H84V0H85V3Z" fill="#DED5C5" fill-opacity="0.3"/>
<path d="M88 6H87V0H88V6Z" fill="#DED5C5" fill-opacity="0.3"/>
<path d="M91 3H90V0H91V3Z" fill="#DED5C5" fill-opacity="0.3"/>
<path d="M94 3H93V0H94V3Z" fill="#DED5C5" fill-opacity="0.3"/>
<path d="M97 3H96V0H97V3Z" fill="#DED5C5" fill-opacity="0.3"/>
<path d="M100 3H99V0H100V3Z" fill="#DED5C5" fill-opacity="0.3"/>
<path d="M103 6H102V0H103V6Z" fill="#DED5C5" fill-opacity="0.3"/>
<path d="M106 3H105V0H106V3Z" fill="#DED5C5" fill-opacity="0.3"/>
<path d="M109 3H108V0H109V3Z" fill="#DED5C5" fill-opacity="0.3"/>
<path d="M112 3H111V0H112V3Z" fill="#DED5C5" fill-opacity="0.3"/>
<path d="M115 3H114V0H115V3Z" fill="#DED5C5" fill-opacity="0.3"/>
<path d="M118 6H117V0H118V6Z" fill="#DED5C5" fill-opacity="0.3"/>
<path d="M121 3H120V0H121V3Z" fill="#DED5C5" fill-opacity="0.3"/>
<path d="M124 3H123V0H124V3Z" fill="#DED5C5" fill-opacity="0.3"/>
<path d="M127 3H126V0H127V3Z" fill="#DED5C5" fill-opacity="0.3"/>
<path d="M130 3H129V0H130V3Z" fill="#DED5C5" fill-opacity="0.3"/>
<path d="M133 6H132V0H133V6Z" fill="#DED5C5" fill-opacity="0.3"/>
<path d="M136 3H135V0H136V3Z" fill="#DED5C5" fill-opacity="0.3"/>
<path d="M139 3H138V0H139V3Z" fill="#DED5C5" fill-opacity="0.3"/>
<path d="M142 3H141V0H142V3Z" fill="#DED5C5" fill-opacity="0.3"/>
<path d="M145 3H144V0H145V3Z" fill="#DED5C5" fill-opacity="0.3"/>
<path d="M148 6H147V0H148V6Z" fill="#DED5C5" fill-opacity="0.3"/>
<path d="M151 3H150V0H151V3Z" fill="#DED5C5" fill-opacity="0.3"/>
<path d="M154 3H153V0H154V3Z" fill="#DED5C5" fill-opacity="0.3"/>
<path d="M157 3H156V0H157V3Z" fill="#DED5C5" fill-opacity="0.3"/>
<path d="M160 3H159V0H160V3Z" fill="#DED5C5" fill-opacity="0.3"/>
<path d="M163 6H162V0H163V6Z" fill="#DED5C5" fill-opacity="0.3"/>
<path d="M166 3H165V0H166V3Z" fill="#DED5C5" fill-opacity="0.3"/>
<path d="M169 3H168V0H169V3Z" fill="#DED5C5" fill-opacity="0.3"/>
<path d="M172 3H171V0H172V3Z" fill="#DED5C5" fill-opacity="0.3"/>
<path d="M175 3H174V0H175V3Z" fill="#DED5C5" fill-opacity="0.3"/>
<path d="M178 6H177V0H178V6Z" fill="#DED5C5" fill-opacity="0.3"/>
<path d="M181 3H180V0H181V3Z" fill="#DED5C5" fill-opacity="0.3"/>
<path d="M184 3H183V0H184V3Z" fill="#DED5C5" fill-opacity="0.3"/>
<path d="M187 3H186V0H187V3Z" fill="#DED5C5" fill-opacity="0.3"/>
<path d="M190 3H189V0H190V3Z" fill="#DED5C5" fill-opacity="0.3"/>
<path d="M193 6H192V0H193V6Z" fill="#DED5C5" fill-opacity="0.3"/>
<path d="M196 3H195V0H196V3Z" fill="#DED5C5" fill-opacity="0.3"/>
<path d="M199 3H198V0H199V3Z" fill="#DED5C5" fill-opacity="0.3"/>
<path d="M202 3H201V0H202V3Z" fill="#DED5C5" fill-opacity="0.3"/>
<path d="M205 3H204V0H205V3Z" fill="#DED5C5" fill-opacity="0.3"/>
<path d="M208 6H207V0H208V6Z" fill="#DED5C5" fill-opacity="0.3"/>
<path d="M211 3H210V0H211V3Z" fill="#DED5C5" fill-opacity="0.3"/>
<path d="M214 3H213V0H214V3Z" fill="#DED5C5" fill-opacity="0.3"/>
<path d="M217 3H216V0H217V3Z" fill="#DED5C5" fill-opacity="0.3"/>
<path d="M220 3H219V0H220V3Z" fill="#DED5C5" fill-opacity="0.3"/>
<path d="M223 6H222V0H223V6Z" fill="#DED5C5" fill-opacity="0.3"/>
<path d="M226 3H225V0H226V3Z" fill="#DED5C5" fill-opacity="0.3"/>
<path d="M229 3H228V0H229V3Z" fill="#DED5C5" fill-opacity="0.3"/>
<path d="M232 3H231V0H232V3Z" fill="#DED5C5" fill-opacity="0.3"/>
<path d="M235 3H234V0H235V3Z" fill="#DED5C5" fill-opacity="0.3"/>
<path d="M238 6H237V0H238V6Z" fill="#DED5C5" fill-opacity="0.3"/>
<path d="M241 3H240V0H241V3Z" fill="#DED5C5" fill-opacity="0.3"/>
<path d="M244 3H243V0H244V3Z" fill="#DED5C5" fill-opacity="0.3"/>
<path d="M247 3H246V0H247V3Z" fill="#DED5C5" fill-opacity="0.3"/>
<path d="M250 3H249V0H250V3Z" fill="#DED5C5" fill-opacity="0.3"/>
<path d="M253 6H252V0H253V6Z" fill="#DED5C5" fill-opacity="0.3"/>
<path d="M256 3H255V0H256V3Z" fill="#DED5C5" fill-opacity="0.3"/>
<path d="M259 3H258V0H259V3Z" fill="#DED5C5" fill-opacity="0.3"/>
<path d="M262 3H261V0H262V3Z" fill="#DED5C5" fill-opacity="0.3"/>
<path d="M265 3H264V0H265V3Z" fill="#DED5C5" fill-opacity="0.3"/>
<path d="M268 6H267V0H268V6Z" fill="#DED5C5" fill-opacity="0.3"/>
<path d="M271 3H270V0H271V3Z" fill="#DED5C5" fill-opacity="0.3"/>
<path d="M274 3H273V0H274V3Z" fill="#DED5C5" fill-opacity="0.3"/>
<path d="M277 3H276V0H277V3Z" fill="#DED5C5" fill-opacity="0.3"/>
<path d="M280 3H279V0H280V3Z" fill="#DED5C5" fill-opacity="0.3"/>
<path d="M283 6H282V0H283V6Z" fill="#DED5C5" fill-opacity="0.3"/>
<path d="M286 3H285V0H286V3Z" fill="#DED5C5" fill-opacity="0.3"/>
<path d="M289 3H288V0H289V3Z" fill="#DED5C5" fill-opacity="0.3"/>
<path d="M292 3H291V0H292V3Z" fill="#DED5C5" fill-opacity="0.3"/>
<path d="M295 3H294V0H295V3Z" fill="#DED5C5" fill-opacity="0.3"/>
<path d="M298 6H297V0H298V6Z" fill="#DED5C5" fill-opacity="0.3"/>
<path d="M301 3H300V0H301V3Z" fill="#DED5C5" fill-opacity="0.3"/>
<path d="M304 3H303V0H304V3Z" fill="#DED5C5" fill-opacity="0.3"/>
<path d="M307 3H306V0H307V3Z" fill="#DED5C5" fill-opacity="0.3"/>
<path d="M310 3H309V0H310V3Z" fill="#DED5C5" fill-opacity="0.3"/>
<path d="M313 6H312V0H313V6Z" fill="#DED5C5" fill-opacity="0.3"/>
<path d="M316 3H315V0H316V3Z" fill="#DED5C5" fill-opacity="0.3"/>
<path d="M319 3H318V0H319V3Z" fill="#DED5C5" fill-opacity="0.3"/>
<path d="M322 3H321V0H322V3Z" fill="#DED5C5" fill-opacity="0.3"/>
<path d="M325 3H324V0H325V3Z" fill="#DED5C5" fill-opacity="0.3"/>
<path d="M328 6H327V0H328V6Z" fill="#DED5C5" fill-opacity="0.3"/>
<path d="M331 3H330V0H331V3Z" fill="#DED5C5" fill-opacity="0.3"/>
<path d="M334 3H333V0H334V3Z" fill="#DED5C5" fill-opacity="0.3"/>
<path d="M337 3H336V0H337V3Z" fill="#DED5C5" fill-opacity="0.3"/>
<path d="M340 3H339V0H340V3Z" fill="#DED5C5" fill-opacity="0.3"/>
<path d="M343 6H342V0H343V6Z" fill="#DED5C5" fill-opacity="0.3"/>
<path d="M346 3H345V0H346V3Z" fill="#DED5C5" fill-opacity="0.3"/>
<path d="M349 3H348V0H349V3Z" fill="#DED5C5" fill-opacity="0.3"/>
<path d="M352 3H351V0H352V3Z" fill="#DED5C5" fill-opacity="0.3"/>
<path d="M355 3H354V0H355V3Z" fill="#DED5C5" fill-opacity="0.3"/>
<path d="M358 6H357V0H358V6Z" fill="#DED5C5" fill-opacity="0.3"/>
<path d="M361 3H360V0H361V3Z" fill="#DED5C5" fill-opacity="0.3"/>
<path d="M364 3H363V0H364V3Z" fill="#DED5C5" fill-opacity="0.3"/>
<path d="M367 3H366V0H367V3Z" fill="#DED5C5" fill-opacity="0.3"/>
<path d="M370 3H369V0H370V3Z" fill="#DED5C5" fill-opacity="0.3"/>
<path d="M373 6H372V0H373V6Z" fill="#DED5C5" fill-opacity="0.3"/>
<path d="M376 3H375V0H376V3Z" fill="#DED5C5" fill-opacity="0.3"/>
<path d="M379 3H378V0H379V3Z" fill="#DED5C5" fill-opacity="0.3"/>
<path d="M382 3H381V0H382V3Z" fill="#DED5C5" fill-opacity="0.3"/>
<path d="M385 3H384V0H385V3Z" fill="#DED5C5" fill-opacity="0.3"/>
<path d="M388 6H387V0H388V6Z" fill="#DED5C5" fill-opacity="0.3"/>
<path d="M391 3H390V0H391V3Z" fill="#DED5C5" fill-opacity="0.3"/>
<path d="M394 3H393V0H394V3Z" fill="#DED5C5" fill-opacity="0.3"/>
<path d="M397 3H396V0H397V3Z" fill="#DED5C5" fill-opacity="0.3"/>
<path d="M400 3H399V0H400V3Z" fill="#DED5C5" fill-opacity="0.3"/>
<path d="M403 6H402V0H403V6Z" fill="#DED5C5" fill-opacity="0.3"/>
<path d="M406 3H405V0H406V3Z" fill="#DED5C5" fill-opacity="0.3"/>
<path d="M409 3H408V0H409V3Z" fill="#DED5C5" fill-opacity="0.3"/>
<path d="M412 3H411V0H412V3Z" fill="#DED5C5" fill-opacity="0.3"/>
<path d="M415 3H414V0H415V3Z" fill="#DED5C5" fill-opacity="0.3"/>
<path d="M418 6H417V0H418V6Z" fill="#DED5C5" fill-opacity="0.3"/>
<path d="M421 3H420V0H421V3Z" fill="#DED5C5" fill-opacity="0.3"/>
<path d="M424 3H423V0H424V3Z" fill="#DED5C5" fill-opacity="0.3"/>
<path d="M427 3H426V0H427V3Z" fill="#DED5C5" fill-opacity="0.3"/>
<path d="M430 3H429V0H430V3Z" fill="#DED5C5" fill-opacity="0.3"/>
<path d="M433 6H432V0H433V6Z" fill="#DED5C5" fill-opacity="0.3"/>
<path d="M436 3H435V0H436V3Z" fill="#DED5C5" fill-opacity="0.3"/>
<path d="M439 3H438V0H439V3Z" fill="#DED5C5" fill-opacity="0.3"/>
<path d="M442 3H441V0H442V3Z" fill="#DED5C5" fill-opacity="0.3"/>
<path d="M445 3H444V0H445V3Z" fill="#DED5C5" fill-opacity="0.3"/>
<path d="M448 6H447V0H448V6Z" fill="#DED5C5" fill-opacity="0.3"/>
<path d="M451 3H450V0H451V3Z" fill="#DED5C5" fill-opacity="0.3"/>
<path d="M454 3H453V0H454V3Z" fill="#DED5C5" fill-opacity="0.3"/>
<path d="M457 3H456V0H457V3Z" fill="#DED5C5" fill-opacity="0.3"/>
<path d="M460 3H459V0H460V3Z" fill="#DED5C5" fill-opacity="0.3"/>
<path d="M463 6H462V0H463V6Z" fill="#DED5C5" fill-opacity="0.3"/>
<path d="M466 3H465V0H466V3Z" fill="#DED5C5" fill-opacity="0.3"/>
<path d="M469 3H468V0H469V3Z" fill="#DED5C5" fill-opacity="0.3"/>
<path d="M472 3H471V0H472V3Z" fill="#DED5C5" fill-opacity="0.3"/>
<path d="M475 3H474V0H475V3Z" fill="#DED5C5" fill-opacity="0.3"/>
<path d="M478 6H477V0H478V6Z" fill="#DED5C5" fill-opacity="0.3"/>
<path d="M481 3H480V0H481V3Z" fill="#DED5C5" fill-opacity="0.3"/>
<path d="M484 3H483V0H484V3Z" fill="#DED5C5" fill-opacity="0.3"/>
<path d="M487 3H486V0H487V3Z" fill="#DED5C5" fill-opacity="0.3"/>
<path d="M490 3H489V0H490V3Z" fill="#DED5C5" fill-opacity="0.3"/>
<path d="M493 6H492V0H493V6Z" fill="#DED5C5" fill-opacity="0.3"/>
<path d="M496 3H495V0H496V3Z" fill="#DED5C5" fill-opacity="0.3"/>
<path d="M499 3H498V0H499V3Z" fill="#DED5C5" fill-opacity="0.3"/>
<path d="M502 3H501V0H502V3Z" fill="#DED5C5" fill-opacity="0.3"/>
<path d="M505 3H504V0H505V3Z" fill="#DED5C5" fill-opacity="0.3"/>
<path d="M508 6H507V0H508V6Z" fill="#DED5C5" fill-opacity="0.3"/>
<path d="M511 3H510V0H511V3Z" fill="#DED5C5" fill-opacity="0.3"/>
<path d="M514 3H513V0H514V3Z" fill="#DED5C5" fill-opacity="0.3"/>
<path d="M517 3H516V0H517V3Z" fill="#DED5C5" fill-opacity="0.3"/>
<path d="M520 3H519V0H520V3Z" fill="#DED5C5" fill-opacity="0.3"/>
<path d="M523 6H522V0H523V6Z" fill="#DED5C5" fill-opacity="0.3"/>
<path d="M526 3H525V0H526V3Z" fill="#DED5C5" fill-opacity="0.3"/>
<path d="M529 3H528V0H529V3Z" fill="#DED5C5" fill-opacity="0.3"/>
<path d="M532 3H531V0H532V3Z" fill="#DED5C5" fill-opacity="0.3"/>
<path d="M535 3H534V0H535V3Z" fill="#DED5C5" fill-opacity="0.3"/>
<path d="M538 6H537V0H538V6Z" fill="#DED5C5" fill-opacity="0.3"/>
<path d="M541 3H540V0H541V3Z" fill="#DED5C5" fill-opacity="0.3"/>
<path d="M544 3H543V0H544V3Z" fill="#DED5C5" fill-opacity="0.3"/>
<path d="M547 3H546V0H547V3Z" fill="#DED5C5" fill-opacity="0.3"/>
<path d="M550 3H549V0H550V3Z" fill="#DED5C5" fill-opacity="0.3"/>
<path d="M553 6H552V0H553V6Z" fill="#DED5C5" fill-opacity="0.3"/>
<path d="M556 3H555V0H556V3Z" fill="#DED5C5" fill-opacity="0.3"/>
<path d="M559 3H558V0H559V3Z" fill="#DED5C5" fill-opacity="0.3"/>
<path d="M562 3H561V0H562V3Z" fill="#DED5C5" fill-opacity="0.3"/>
<path d="M565 3H564V0H565V3Z" fill="#DED5C5" fill-opacity="0.3"/>
<path d="M568 6H567V0H568V6Z" fill="#DED5C5" fill-opacity="0.3"/>
<path d="M571 3H570V0H571V3Z" fill="#DED5C5" fill-opacity="0.3"/>
<path d="M574 3H573V0H574V3Z" fill="#DED5C5" fill-opacity="0.3"/>
<path d="M577 3H576V0H577V3Z" fill="#DED5C5" fill-opacity="0.3"/>
<path d="M580 3H579V0H580V3Z" fill="#DED5C5" fill-opacity="0.3"/>
<path d="M583 6H582V0H583V6Z" fill="#DED5C5" fill-opacity="0.3"/>
<path d="M586 3H585V0H586V3Z" fill="#DED5C5" fill-opacity="0.3"/>
<path d="M589 3H588V0H589V3Z" fill="#DED5C5" fill-opacity="0.3"/>
<path d="M592 3H591V0H592V3Z" fill="#DED5C5" fill-opacity="0.3"/>
<path d="M595 3H594V0H595V3Z" fill="#DED5C5" fill-opacity="0.3"/>
<path d="M598 6H597V0H598V6Z" fill="#DED5C5" fill-opacity="0.3"/>
<path d="M601 3H600V0H601V3Z" fill="#DED5C5" fill-opacity="0.3"/>
<path d="M604 3H603V0H604V3Z" fill="#DED5C5" fill-opacity="0.3"/>
<path d="M607 3H606V0H607V3Z" fill="#DED5C5" fill-opacity="0.3"/>
<path d="M610 3H609V0H610V3Z" fill="#DED5C5" fill-opacity="0.3"/>
<path d="M613 6H612V0H613V6Z" fill="#DED5C5" fill-opacity="0.3"/>
<path d="M616 3H615V0H616V3Z" fill="#DED5C5" fill-opacity="0.3"/>
<path d="M619 3H618V0H619V3Z" fill="#DED5C5" fill-opacity="0.3"/>
<path d="M622 3H621V0H622V3Z" fill="#DED5C5" fill-opacity="0.3"/>
<path d="M625 3H624V0H625V3Z" fill="#DED5C5" fill-opacity="0.3"/>
<path d="M628 6H627V0H628V6Z" fill="#DED5C5" fill-opacity="0.3"/>
<path d="M631 3H630V0H631V3Z" fill="#DED5C5" fill-opacity="0.3"/>
<path d="M634 3H633V0H634V3Z" fill="#DED5C5" fill-opacity="0.3"/>
<path d="M637 3H636V0H637V3Z" fill="#DED5C5" fill-opacity="0.3"/>
<path d="M640 3H639V0H640V3Z" fill="#DED5C5" fill-opacity="0.3"/>
<path d="M643 6H642V0H643V6Z" fill="#DED5C5" fill-opacity="0.3"/>
<path d="M646 3H645V0H646V3Z" fill="#DED5C5" fill-opacity="0.3"/>
<path d="M649 3H648V0H649V3Z" fill="#DED5C5" fill-opacity="0.3"/>
<path d="M652 3H651V0H652V3Z" fill="#DED5C5" fill-opacity="0.3"/>
<path d="M655 3H654V0H655V3Z" fill="#DED5C5" fill-opacity="0.3"/>
<path d="M658 6H657V0H658V6Z" fill="#DED5C5" fill-opacity="0.3"/>
<path d="M661 3H660V0H661V3Z" fill="#DED5C5" fill-opacity="0.3"/>
<path d="M664 3H663V0H664V3Z" fill="#DED5C5" fill-opacity="0.3"/>
<path d="M667 3H666V0H667V3Z" fill="#DED5C5" fill-opacity="0.3"/>
<path d="M670 3H669V0H670V3Z" fill="#DED5C5" fill-opacity="0.3"/>
<path d="M673 6H672V0H673V6Z" fill="#DED5C5" fill-opacity="0.3"/>
<path d="M676 3H675V0H676V3Z" fill="#DED5C5" fill-opacity="0.3"/>
<path d="M679 3H678V0H679V3Z" fill="#DED5C5" fill-opacity="0.3"/>
<path d="M682 3H681V0H682V3Z" fill="#DED5C5" fill-opacity="0.3"/>
<path d="M685 3H684V0H685V3Z" fill="#DED5C5" fill-opacity="0.3"/>
<path d="M688 6H687V0H688V6Z" fill="#DED5C5" fill-opacity="0.3"/>
<path d="M691 3H690V0H691V3Z" fill="#DED5C5" fill-opacity="0.3"/>
<path d="M694 3H693V0H694V3Z" fill="#DED5C5" fill-opacity="0.3"/>
<path d="M697 3H696V0H697V3Z" fill="#DED5C5" fill-opacity="0.3"/>
<path d="M700 3H699V0H700V3Z" fill="#DED5C5" fill-opacity="0.3"/>
<path d="M703 6H702V0H703V6Z" fill="#DED5C5" fill-opacity="0.3"/>
<path d="M706 3H705V0H706V3Z" fill="#DED5C5" fill-opacity="0.3"/>
<path d="M709 3H708V0H709V3Z" fill="#DED5C5" fill-opacity="0.3"/>
<path d="M712 3H711V0H712V3Z" fill="#DED5C5" fill-opacity="0.3"/>
<path d="M715 3H714V0H715V3Z" fill="#DED5C5" fill-opacity="0.3"/>
<path d="M718 6H717V0H718V6Z" fill="#DED5C5" fill-opacity="0.3"/>
<path d="M721 3H720V0H721V3Z" fill="#DED5C5" fill-opacity="0.3"/>
<path d="M724 3H723V0H724V3Z" fill="#DED5C5" fill-opacity="0.3"/>
<path d="M727 3H726V0H727V3Z" fill="#DED5C5" fill-opacity="0.3"/>
<path d="M730 3H729V0H730V3Z" fill="#DED5C5" fill-opacity="0.3"/>
<path d="M733 6H732V0H733V6Z" fill="#DED5C5" fill-opacity="0.3"/>
<path d="M736 3H735V0H736V3Z" fill="#DED5C5" fill-opacity="0.3"/>
<path d="M739 3H738V0H739V3Z" fill="#DED5C5" fill-opacity="0.3"/>
<path d="M742 3H741V0H742V3Z" fill="#DED5C5" fill-opacity="0.3"/>
<path d="M745 3H744V0H745V3Z" fill="#DED5C5" fill-opacity="0.3"/>
<path d="M748 6H747V0H748V6Z" fill="#DED5C5" fill-opacity="0.3"/>
<path d="M751 3H750V0H751V3Z" fill="#DED5C5" fill-opacity="0.3"/>
<path d="M754 3H753V0H754V3Z" fill="#DED5C5" fill-opacity="0.3"/>
<path d="M757 3H756V0H757V3Z" fill="#DED5C5" fill-opacity="0.3"/>
<path d="M760 3H759V0H760V3Z" fill="#DED5C5" fill-opacity="0.3"/>
<path d="M763 6H762V0H763V6Z" fill="#DED5C5" fill-opacity="0.3"/>
<path d="M766 3H765V0H766V3Z" fill="#DED5C5" fill-opacity="0.3"/>
<path d="M769 3H768V0H769V3Z" fill="#DED5C5" fill-opacity="0.3"/>
<path d="M772 3H771V0H772V3Z" fill="#DED5C5" fill-opacity="0.3"/>
<path d="M775 3H774V0H775V3Z" fill="#DED5C5" fill-opacity="0.3"/>
<path d="M778 6H777V0H778V6Z" fill="#DED5C5" fill-opacity="0.3"/>
<path d="M781 3H780V0H781V3Z" fill="#DED5C5" fill-opacity="0.3"/>
<path d="M784 3H783V0H784V3Z" fill="#DED5C5" fill-opacity="0.3"/>
<path d="M787 3H786V0H787V3Z" fill="#DED5C5" fill-opacity="0.3"/>
<path d="M790 3H789V0H790V3Z" fill="#DED5C5" fill-opacity="0.3"/>
<path d="M793 6H792V0H793V6Z" fill="#DED5C5" fill-opacity="0.3"/>
<path d="M796 3H795V0H796V3Z" fill="#DED5C5" fill-opacity="0.3"/>
<path d="M799 3H798V0H799V3Z" fill="#DED5C5" fill-opacity="0.3"/>
<path d="M802 3H801V0H802V3Z" fill="#DED5C5" fill-opacity="0.3"/>
<path d="M805 3H804V0H805V3Z" fill="#DED5C5" fill-opacity="0.3"/>
<path d="M808 6H807V0H808V6Z" fill="#DED5C5" fill-opacity="0.3"/>
<path d="M811 3H810V0H811V3Z" fill="#DED5C5" fill-opacity="0.3"/>
<path d="M814 3H813V0H814V3Z" fill="#DED5C5" fill-opacity="0.3"/>
<path d="M817 3H816V0H817V3Z" fill="#DED5C5" fill-opacity="0.3"/>
<path d="M820 3H819V0H820V3Z" fill="#DED5C5" fill-opacity="0.3"/>
<path d="M823 6H822V0H823V6Z" fill="#DED5C5" fill-opacity="0.3"/>
<path d="M826 3H825V0H826V3Z" fill="#DED5C5" fill-opacity="0.3"/>
<path d="M829 3H828V0H829V3Z" fill="#DED5C5" fill-opacity="0.3"/>
<path d="M832 3H831V0H832V3Z" fill="#DED5C5" fill-opacity="0.3"/>
<path d="M835 3H834V0H835V3Z" fill="#DED5C5" fill-opacity="0.3"/>
<path d="M838 6H837V0H838V6Z" fill="#DED5C5" fill-opacity="0.3"/>
<path d="M841 3H840V0H841V3Z" fill="#DED5C5" fill-opacity="0.3"/>
<path d="M844 3H843V0H844V3Z" fill="#DED5C5" fill-opacity="0.3"/>
<path d="M847 3H846V0H847V3Z" fill="#DED5C5" fill-opacity="0.3"/>
<path d="M850 3H849V0H850V3Z" fill="#DED5C5" fill-opacity="0.3"/>
<path d="M853 6H852V0H853V6Z" fill="#DED5C5" fill-opacity="0.3"/>
<path d="M856 3H855V0H856V3Z" fill="#DED5C5" fill-opacity="0.3"/>
<path d="M859 3H858V0H859V3Z" fill="#DED5C5" fill-opacity="0.3"/>
<path d="M862 3H861V0H862V3Z" fill="#DED5C5" fill-opacity="0.3"/>
<path d="M865 3H864V0H865V3Z" fill="#DED5C5" fill-opacity="0.3"/>
<path d="M868 6H867V0H868V6Z" fill="#DED5C5" fill-opacity="0.3"/>
<path d="M871 3H870V0H871V3Z" fill="#DED5C5" fill-opacity="0.3"/>
<path d="M874 3H873V0H874V3Z" fill="#DED5C5" fill-opacity="0.3"/>
<path d="M877 3H876V0H877V3Z" fill="#DED5C5" fill-opacity="0.3"/>
<path d="M880 3H879V0H880V3Z" fill="#DED5C5" fill-opacity="0.3"/>
<path d="M883 6H882V0H883V6Z" fill="#DED5C5" fill-opacity="0.3"/>
<path d="M886 3H885V0H886V3Z" fill="#DED5C5" fill-opacity="0.3"/>
<path d="M889 3H888V0H889V3Z" fill="#DED5C5" fill-opacity="0.3"/>
<path d="M892 3H891V0H892V3Z" fill="#DED5C5" fill-opacity="0.3"/>
<path d="M895 3H894V0H895V3Z" fill="#DED5C5" fill-opacity="0.3"/>
<path d="M898 6H897V0H898V6Z" fill="#DED5C5" fill-opacity="0.3"/>
<path d="M901 3H900V0H901V3Z" fill="#DED5C5" fill-opacity="0.3"/>
<path d="M904 3H903V0H904V3Z" fill="#DED5C5" fill-opacity="0.3"/>
<path d="M907 3H906V0H907V3Z" fill="#DED5C5" fill-opacity="0.3"/>
<path d="M910 3H909V0H910V3Z" fill="#DED5C5" fill-opacity="0.3"/>
<path d="M913 6H912V0H913V6Z" fill="#DED5C5" fill-opacity="0.3"/>
<path d="M916 3H915V0H916V3Z" fill="#DED5C5" fill-opacity="0.3"/>
<path d="M919 3H918V0H919V3Z" fill="#DED5C5" fill-opacity="0.3"/>
<path d="M922 3H921V0H922V3Z" fill="#DED5C5" fill-opacity="0.3"/>
<path d="M925 3H924V0H925V3Z" fill="#DED5C5" fill-opacity="0.3"/>
<path d="M928 6H927V0H928V6Z" fill="#DED5C5" fill-opacity="0.3"/>
<path d="M931 3H930V0H931V3Z" fill="#DED5C5" fill-opacity="0.3"/>
<path d="M934 3H933V0H934V3Z" fill="#DED5C5" fill-opacity="0.3"/>
<path d="M937 3H936V0H937V3Z" fill="#DED5C5" fill-opacity="0.3"/>
<path d="M940 3H939V0H940V3Z" fill="#DED5C5" fill-opacity="0.3"/>
<path d="M943 6H942V0H943V6Z" fill="#DED5C5" fill-opacity="0.3"/>
<path d="M946 3H945V0H946V3Z" fill="#DED5C5" fill-opacity="0.3"/>
<path d="M949 3H948V0H949V3Z" fill="#DED5C5" fill-opacity="0.3"/>
<path d="M952 3H951V0H952V3Z" fill="#DED5C5" fill-opacity="0.3"/>
<path d="M955 3H954V0H955V3Z" fill="#DED5C5" fill-opacity="0.3"/>
<path d="M958 6H957V0H958V6Z" fill="#DED5C5" fill-opacity="0.3"/>
<path d="M961 3H960V0H961V3Z" fill="#DED5C5" fill-opacity="0.3"/>
<path d="M964 3H963V0H964V3Z" fill="#DED5C5" fill-opacity="0.3"/>
<path d="M967 3H966V0H967V3Z" fill="#DED5C5" fill-opacity="0.3"/>
<path d="M970 3H969V0H970V3Z" fill="#DED5C5" fill-opacity="0.3"/>
<path d="M973 6H972V0H973V6Z" fill="#DED5C5" fill-opacity="0.3"/>
<path d="M976 3H975V0H976V3Z" fill="#DED5C5" fill-opacity="0.3"/>
<path d="M979 3H978V0H979V3Z" fill="#DED5C5" fill-opacity="0.3"/>
<path d="M982 3H981V0H982V3Z" fill="#DED5C5" fill-opacity="0.3"/>
<path d="M985 3H984V0H985V3Z" fill="#DED5C5" fill-opacity="0.3"/>
<path d="M988 6H987V0H988V6Z" fill="#DED5C5" fill-opacity="0.3"/>
<path d="M991 3H990V0H991V3Z" fill="#DED5C5" fill-opacity="0.3"/>
<path d="M994 3H993V0H994V3Z" fill="#DED5C5" fill-opacity="0.3"/>
<path d="M997 3H996V0H997V3Z" fill="#DED5C5" fill-opacity="0.3"/>
<path d="M1000 3H999V0H1000V3Z" fill="#DED5C5" fill-opacity="0.3"/>
<path d="M1003 6H1002V0H1003V6Z" fill="#DED5C5" fill-opacity="0.3"/>
<path d="M1006 3H1005V0H1006V3Z" fill="#DED5C5" fill-opacity="0.3"/>
<path d="M1009 3H1008V0H1009V3Z" fill="#DED5C5" fill-opacity="0.3"/>
<path d="M1012 3H1011V0H1012V3Z" fill="#DED5C5" fill-opacity="0.3"/>
<path d="M1015 3H1014V0H1015V3Z" fill="#DED5C5" fill-opacity="0.3"/>
<path d="M1018 6H1017V0H1018V6Z" fill="#DED5C5" fill-opacity="0.3"/>
<path d="M1021 3H1020V0H1021V3Z" fill="#DED5C5" fill-opacity="0.3"/>
<path d="M1024 3H1023V0H1024V3Z" fill="#DED5C5" fill-opacity="0.3"/>
<path d="M1027 3H1026V0H1027V3Z" fill="#DED5C5" fill-opacity="0.3"/>
<path d="M1030 3H1029V0H1030V3Z" fill="#DED5C5" fill-opacity="0.3"/>
<path d="M1033 6H1032V0H1033V6Z" fill="#DED5C5" fill-opacity="0.3"/>
<path d="M1036 3H1035V0H1036V3Z" fill="#DED5C5" fill-opacity="0.3"/>
<path d="M1039 3H1038V0H1039V3Z" fill="#DED5C5" fill-opacity="0.3"/>
<path d="M1042 3H1041V0H1042V3Z" fill="#DED5C5" fill-opacity="0.3"/>
<path d="M1045 3H1044V0H1045V3Z" fill="#DED5C5" fill-opacity="0.3"/>
<path d="M1048 6H1047V0H1048V6Z" fill="#DED5C5" fill-opacity="0.3"/>
<path d="M1051 3H1050V0H1051V3Z" fill="#DED5C5" fill-opacity="0.3"/>
<path d="M1054 3H1053V0H1054V3Z" fill="#DED5C5" fill-opacity="0.3"/>
<path d="M1057 3H1056V0H1057V3Z" fill="#DED5C5" fill-opacity="0.3"/>
<path d="M1060 3H1059V0H1060V3Z" fill="#DED5C5" fill-opacity="0.3"/>
<path d="M1063 6H1062V0H1063V6Z" fill="#DED5C5" fill-opacity="0.3"/>
<path d="M1066 3H1065V0H1066V3Z" fill="#DED5C5" fill-opacity="0.3"/>
<path d="M1069 3H1068V0H1069V3Z" fill="#DED5C5" fill-opacity="0.3"/>
<path d="M1072 3H1071V0H1072V3Z" fill="#DED5C5" fill-opacity="0.3"/>
<path d="M1075 3H1074V0H1075V3Z" fill="#DED5C5" fill-opacity="0.3"/>
<path d="M1078 6H1077V0H1078V6Z" fill="#DED5C5" fill-opacity="0.3"/>
<path d="M1081 3H1080V0H1081V3Z" fill="#DED5C5" fill-opacity="0.3"/>
<path d="M1084 3H1083V0H1084V3Z" fill="#DED5C5" fill-opacity="0.3"/>
<path d="M1087 3H1086V0H1087V3Z" fill="#DED5C5" fill-opacity="0.3"/>
<path d="M1090 3H1089V0H1090V3Z" fill="#DED5C5" fill-opacity="0.3"/>
<path d="M1093 6H1092V0H1093V6Z" fill="#DED5C5" fill-opacity="0.3"/>
<path d="M1096 3H1095V0H1096V3Z" fill="#DED5C5" fill-opacity="0.3"/>
<path d="M1099 3H1098V0H1099V3Z" fill="#DED5C5" fill-opacity="0.3"/>
<path d="M1102 3H1101V0H1102V3Z" fill="#DED5C5" fill-opacity="0.3"/>
<path d="M1105 3H1104V0H1105V3Z" fill="#DED5C5" fill-opacity="0.3"/>
<path d="M1108 6H1107V0H1108V6Z" fill="#DED5C5" fill-opacity="0.3"/>
<path d="M1111 3H1110V0H1111V3Z" fill="#DED5C5" fill-opacity="0.3"/>
<path d="M1114 3H1113V0H1114V3Z" fill="#DED5C5" fill-opacity="0.3"/>
<path d="M1117 3H1116V0H1117V3Z" fill="#DED5C5" fill-opacity="0.3"/>
<path d="M1120 3H1119V0H1120V3Z" fill="#DED5C5" fill-opacity="0.3"/>
<path d="M1123 6H1122V0H1123V6Z" fill="#DED5C5" fill-opacity="0.3"/>
<path d="M1126 3H1125V0H1126V3Z" fill="#DED5C5" fill-opacity="0.3"/>
<path d="M1129 3H1128V0H1129V3Z" fill="#DED5C5" fill-opacity="0.3"/>
<path d="M1132 3H1131V0H1132V3Z" fill="#DED5C5" fill-opacity="0.3"/>
<path d="M1135 3H1134V0H1135V3Z" fill="#DED5C5" fill-opacity="0.3"/>
<path d="M1138 6H1137V0H1138V6Z" fill="#DED5C5" fill-opacity="0.3"/>
<path d="M1141 3H1140V0H1141V3Z" fill="#DED5C5" fill-opacity="0.3"/>
<path d="M1144 3H1143V0H1144V3Z" fill="#DED5C5" fill-opacity="0.3"/>
<path d="M1147 3H1146V0H1147V3Z" fill="#DED5C5" fill-opacity="0.3"/>
<path d="M1150 3H1149V0H1150V3Z" fill="#DED5C5" fill-opacity="0.3"/>
<path d="M1153 6H1152V0H1153V6Z" fill="#DED5C5" fill-opacity="0.3"/>
<path d="M1156 3H1155V0H1156V3Z" fill="#DED5C5" fill-opacity="0.3"/>
<path d="M1159 3H1158V0H1159V3Z" fill="#DED5C5" fill-opacity="0.3"/>
<path d="M1162 3H1161V0H1162V3Z" fill="#DED5C5" fill-opacity="0.3"/>
<path d="M1165 3H1164V0H1165V3Z" fill="#DED5C5" fill-opacity="0.3"/>
<path d="M1168 6H1167V0H1168V6Z" fill="#DED5C5" fill-opacity="0.3"/>
<path d="M1171 3H1170V0H1171V3Z" fill="#DED5C5" fill-opacity="0.3"/>
<path d="M1174 3H1173V0H1174V3Z" fill="#DED5C5" fill-opacity="0.3"/>
<path d="M1177 3H1176V0H1177V3Z" fill="#DED5C5" fill-opacity="0.3"/>
<path d="M1180 3H1179V0H1180V3Z" fill="#DED5C5" fill-opacity="0.3"/>
<path d="M1183 6H1182V0H1183V6Z" fill="#DED5C5" fill-opacity="0.3"/>
<path d="M1186 3H1185V0H1186V3Z" fill="#DED5C5" fill-opacity="0.3"/>
<path d="M1189 3H1188V0H1189V3Z" fill="#DED5C5" fill-opacity="0.3"/>
<path d="M1192 3H1191V0H1192V3Z" fill="#DED5C5" fill-opacity="0.3"/>
<path d="M1195 3H1194V0H1195V3Z" fill="#DED5C5" fill-opacity="0.3"/>
<path d="M1198 6H1197V0H1198V6Z" fill="#DED5C5" fill-opacity="0.3"/>
<path d="M1201 3H1200V0H1201V3Z" fill="#DED5C5" fill-opacity="0.3"/>
<path d="M1204 3H1203V0H1204V3Z" fill="#DED5C5" fill-opacity="0.3"/>
<path d="M1207 3H1206V0H1207V3Z" fill="#DED5C5" fill-opacity="0.3"/>
<path d="M1210 3H1209V0H1210V3Z" fill="#DED5C5" fill-opacity="0.3"/>
<path d="M1213 6H1212V0H1213V6Z" fill="#DED5C5" fill-opacity="0.3"/>
<path d="M1216 3H1215V0H1216V3Z" fill="#DED5C5" fill-opacity="0.3"/>
<path d="M1219 3H1218V0H1219V3Z" fill="#DED5C5" fill-opacity="0.3"/>
<path d="M1222 3H1221V0H1222V3Z" fill="#DED5C5" fill-opacity="0.3"/>
<path d="M1225 3H1224V0H1225V3Z" fill="#DED5C5" fill-opacity="0.3"/>
<path d="M1228 6H1227V0H1228V6Z" fill="#DED5C5" fill-opacity="0.3"/>
<path d="M1231 3H1230V0H1231V3Z" fill="#DED5C5" fill-opacity="0.3"/>
<path d="M1234 3H1233V0H1234V3Z" fill="#DED5C5" fill-opacity="0.3"/>
<path d="M1237 3H1236V0H1237V3Z" fill="#DED5C5" fill-opacity="0.3"/>
<path d="M1240 3H1239V0H1240V3Z" fill="#DED5C5" fill-opacity="0.3"/>
<path d="M1243 6H1242V0H1243V6Z" fill="#DED5C5" fill-opacity="0.3"/>
<path d="M1246 3H1245V0H1246V3Z" fill="#DED5C5" fill-opacity="0.3"/>
<path d="M1249 3H1248V0H1249V3Z" fill="#DED5C5" fill-opacity="0.3"/>
<path d="M1252 3H1251V0H1252V3Z" fill="#DED5C5" fill-opacity="0.3"/>
<path d="M1255 3H1254V0H1255V3Z" fill="#DED5C5" fill-opacity="0.3"/>
<path d="M1258 6H1257V0H1258V6Z" fill="#DED5C5" fill-opacity="0.3"/>
<path d="M1261 3H1260V0H1261V3Z" fill="#DED5C5" fill-opacity="0.3"/>
<path d="M1264 3H1263V0H1264V3Z" fill="#DED5C5" fill-opacity="0.3"/>
<path d="M1267 3H1266V0H1267V3Z" fill="#DED5C5" fill-opacity="0.3"/>
<path d="M1270 3H1269V0H1270V3Z" fill="#DED5C5" fill-opacity="0.3"/>
<path d="M1273 6H1272V0H1273V6Z" fill="#DED5C5" fill-opacity="0.3"/>
<path d="M1276 3H1275V0H1276V3Z" fill="#DED5C5" fill-opacity="0.3"/>
<path d="M1279 3H1278V0H1279V3Z" fill="#DED5C5" fill-opacity="0.3"/>
<path d="M1282 3H1281V0H1282V3Z" fill="#DED5C5" fill-opacity="0.3"/>
<path d="M1285 3H1284V0H1285V3Z" fill="#DED5C5" fill-opacity="0.3"/>
<path d="M1288 6H1287V0H1288V6Z" fill="#DED5C5" fill-opacity="0.3"/>
<path d="M1291 3H1290V0H1291V3Z" fill="#DED5C5" fill-opacity="0.3"/>
<path d="M1294 3H1293V0H1294V3Z" fill="#DED5C5" fill-opacity="0.3"/>
<path d="M1297 3H1296V0H1297V3Z" fill="#DED5C5" fill-opacity="0.3"/>
<path d="M1300 3H1299V0H1300V3Z" fill="#DED5C5" fill-opacity="0.3"/>
<path d="M1303 6H1302V0H1303V6Z" fill="#DED5C5" fill-opacity="0.3"/>
<path d="M1306 3H1305V0H1306V3Z" fill="#DED5C5" fill-opacity="0.3"/>
<path d="M1309 3H1308V0H1309V3Z" fill="#DED5C5" fill-opacity="0.3"/>
<path d="M1312 3H1311V0H1312V3Z" fill="#DED5C5" fill-opacity="0.3"/>
<path d="M1315 3H1314V0H1315V3Z" fill="#DED5C5" fill-opacity="0.3"/>
<path d="M1318 6H1317V0H1318V6Z" fill="#DED5C5" fill-opacity="0.3"/>
<path d="M1321 3H1320V0H1321V3Z" fill="#DED5C5" fill-opacity="0.3"/>
<path d="M1324 3H1323V0H1324V3Z" fill="#DED5C5" fill-opacity="0.3"/>
<path d="M1327 3H1326V0H1327V3Z" fill="#DED5C5" fill-opacity="0.3"/>
<path d="M1330 3H1329V0H1330V3Z" fill="#DED5C5" fill-opacity="0.3"/>
<path d="M1333 6H1332V0H1333V6Z" fill="#DED5C5" fill-opacity="0.3"/>
<path d="M1336 3H1335V0H1336V3Z" fill="#DED5C5" fill-opacity="0.3"/>
<path d="M1339 3H1338V0H1339V3Z" fill="#DED5C5" fill-opacity="0.3"/>
<path d="M1342 3H1341V0H1342V3Z" fill="#DED5C5" fill-opacity="0.3"/>
<path d="M1345 3H1344V0H1345V3Z" fill="#DED5C5" fill-opacity="0.3"/>
<path d="M1348 6H1347V0H1348V6Z" fill="#DED5C5" fill-opacity="0.3"/>
<path d="M1351 3H1350V0H1351V3Z" fill="#DED5C5" fill-opacity="0.3"/>
<path d="M1354 3H1353V0H1354V3Z" fill="#DED5C5" fill-opacity="0.3"/>
<path d="M1357 3H1356V0H1357V3Z" fill="#DED5C5" fill-opacity="0.3"/>
<path d="M1360 3H1359V0H1360V3Z" fill="#DED5C5" fill-opacity="0.3"/>
<path d="M1363 6H1362V0H1363V6Z" fill="#DED5C5" fill-opacity="0.3"/>
<path d="M1366 3H1365V0H1366V3Z" fill="#DED5C5" fill-opacity="0.3"/>
<path d="M1369 3H1368V0H1369V3Z" fill="#DED5C5" fill-opacity="0.3"/>
<path d="M1372 3H1371V0H1372V3Z" fill="#DED5C5" fill-opacity="0.3"/>
<path d="M1375 3H1374V0H1375V3Z" fill="#DED5C5" fill-opacity="0.3"/>
<path d="M1378 6H1377V0H1378V6Z" fill="#DED5C5" fill-opacity="0.3"/>
<path d="M1381 3H1380V0H1381V3Z" fill="#DED5C5" fill-opacity="0.3"/>
<path d="M1384 3H1383V0H1384V3Z" fill="#DED5C5" fill-opacity="0.3"/>
<path d="M1387 3H1386V0H1387V3Z" fill="#DED5C5" fill-opacity="0.3"/>
<path d="M1390 3H1389V0H1390V3Z" fill="#DED5C5" fill-opacity="0.3"/>
<path d="M1393 6H1392V0H1393V6Z" fill="#DED5C5" fill-opacity="0.3"/>
<path d="M1396 3H1395V0H1396V3Z" fill="#DED5C5" fill-opacity="0.3"/>
<path d="M1399 3H1398V0H1399V3Z" fill="#DED5C5" fill-opacity="0.3"/>
<path d="M1402 3H1401V0H1402V3Z" fill="#DED5C5" fill-opacity="0.3"/>
<path d="M1405 3H1404V0H1405V3Z" fill="#DED5C5" fill-opacity="0.3"/>
<path d="M1408 6H1407V0H1408V6Z" fill="#DED5C5" fill-opacity="0.3"/>
<path d="M1411 3H1410V0H1411V3Z" fill="#DED5C5" fill-opacity="0.3"/>
<path d="M1414 3H1413V0H1414V3Z" fill="#DED5C5" fill-opacity="0.3"/>
<path d="M1417 3H1416V0H1417V3Z" fill="#DED5C5" fill-opacity="0.3"/>
<path d="M1420 3H1419V0H1420V3Z" fill="#DED5C5" fill-opacity="0.3"/>
<path d="M1423 6H1422V0H1423V6Z" fill="#DED5C5" fill-opacity="0.3"/>
<path d="M1426 3H1425V0H1426V3Z" fill="#DED5C5" fill-opacity="0.3"/>
<path d="M1429 3H1428V0H1429V3Z" fill="#DED5C5" fill-opacity="0.3"/>
<path d="M1432 3H1431V0H1432V3Z" fill="#DED5C5" fill-opacity="0.3"/>
<path d="M1435 3H1434V0H1435V3Z" fill="#DED5C5" fill-opacity="0.3"/>
<path d="M1438 6H1437V0H1438V6Z" fill="#DED5C5" fill-opacity="0.3"/>
<path d="M1441 3H1440V0H1441V3Z" fill="#DED5C5" fill-opacity="0.3"/>
<path d="M1444 3H1443V0H1444V3Z" fill="#DED5C5" fill-opacity="0.3"/>
<path d="M1447 3H1446V0H1447V3Z" fill="#DED5C5" fill-opacity="0.3"/>
<path d="M1450 3H1449V0H1450V3Z" fill="#DED5C5" fill-opacity="0.3"/>
<path d="M1453 6H1452V0H1453V6Z" fill="#DED5C5" fill-opacity="0.3"/>
<path d="M1456 3H1455V0H1456V3Z" fill="#DED5C5" fill-opacity="0.3"/>
<path d="M1459 3H1458V0H1459V3Z" fill="#DED5C5" fill-opacity="0.3"/>
<path d="M1462 3H1461V0H1462V3Z" fill="#DED5C5" fill-opacity="0.3"/>
<path d="M1465 3H1464V0H1465V3Z" fill="#DED5C5" fill-opacity="0.3"/>
<path d="M1468 6H1467V0H1468V6Z" fill="#DED5C5" fill-opacity="0.3"/>
<path d="M1471 3H1470V0H1471V3Z" fill="#DED5C5" fill-opacity="0.3"/>
<path d="M1474 3H1473V0H1474V3Z" fill="#DED5C5" fill-opacity="0.3"/>
<path d="M1477 3H1476V0H1477V3Z" fill="#DED5C5" fill-opacity="0.3"/>
<path d="M1480 3H1479V0H1480V3Z" fill="#DED5C5" fill-opacity="0.3"/>
<path d="M1483 6H1482V0H1483V6Z" fill="#DED5C5" fill-opacity="0.3"/>
<path d="M1486 3H1485V0H1486V3Z" fill="#DED5C5" fill-opacity="0.3"/>
<path d="M1489 3H1488V0H1489V3Z" fill="#DED5C5" fill-opacity="0.3"/>
<path d="M1492 3H1491V0H1492V3Z" fill="#DED5C5" fill-opacity="0.3"/>
<path d="M1495 3H1494V0H1495V3Z" fill="#DED5C5" fill-opacity="0.3"/>
<path d="M1498 6H1497V0H1498V6Z" fill="#DED5C5" fill-opacity="0.3"/>
<path d="M1501 3H1500V0H1501V3Z" fill="#DED5C5" fill-opacity="0.3"/>
<path d="M1504 3H1503V0H1504V3Z" fill="#DED5C5" fill-opacity="0.3"/>
<path d="M1507 3H1506V0H1507V3Z" fill="#DED5C5" fill-opacity="0.3"/>
<path d="M1510 3H1509V0H1510V3Z" fill="#DED5C5" fill-opacity="0.3"/>
<path d="M1513 6H1512V0H1513V6Z" fill="#DED5C5" fill-opacity="0.3"/>
<path d="M1516 3H1515V0H1516V3Z" fill="#DED5C5" fill-opacity="0.3"/>
<path d="M1519 3H1518V0H1519V3Z" fill="#DED5C5" fill-opacity="0.3"/>
<path d="M1522 3H1521V0H1522V3Z" fill="#DED5C5" fill-opacity="0.3"/>
<path d="M1525 3H1524V0H1525V3Z" fill="#DED5C5" fill-opacity="0.3"/>
<path d="M1528 6H1527V0H1528V6Z" fill="#DED5C5" fill-opacity="0.3"/>
<path d="M1531 3H1530V0H1531V3Z" fill="#DED5C5" fill-opacity="0.3"/>
<path d="M1534 3H1533V0H1534V3Z" fill="#DED5C5" fill-opacity="0.3"/>
<path d="M1537 3H1536V0H1537V3Z" fill="#DED5C5" fill-opacity="0.3"/>
<path d="M1540 3H1539V0H1540V3Z" fill="#DED5C5" fill-opacity="0.3"/>
<path d="M1543 6H1542V0H1543V6Z" fill="#DED5C5" fill-opacity="0.3"/>
<path d="M1546 3H1545V0H1546V3Z" fill="#DED5C5" fill-opacity="0.3"/>
<path d="M1549 3H1548V0H1549V3Z" fill="#DED5C5" fill-opacity="0.3"/>
<path d="M1552 3H1551V0H1552V3Z" fill="#DED5C5" fill-opacity="0.3"/>
<path d="M1555 3H1554V0H1555V3Z" fill="#DED5C5" fill-opacity="0.3"/>
<path d="M1558 6H1557V0H1558V6Z" fill="#DED5C5" fill-opacity="0.3"/>
<path d="M1561 3H1560V0H1561V3Z" fill="#DED5C5" fill-opacity="0.3"/>
<path d="M1564 3H1563V0H1564V3Z" fill="#DED5C5" fill-opacity="0.3"/>
<path d="M1567 3H1566V0H1567V3Z" fill="#DED5C5" fill-opacity="0.3"/>
<path d="M1570 3H1569V0H1570V3Z" fill="#DED5C5" fill-opacity="0.3"/>
<path d="M1573 6H1572V0H1573V6Z" fill="#DED5C5" fill-opacity="0.3"/>
<path d="M1576 3H1575V0H1576V3Z" fill="#DED5C5" fill-opacity="0.3"/>
<path d="M1579 3H1578V0H1579V3Z" fill="#DED5C5" fill-opacity="0.3"/>
<path d="M1582 3H1581V0H1582V3Z" fill="#DED5C5" fill-opacity="0.3"/>
<path d="M1585 3H1584V0H1585V3Z" fill="#DED5C5" fill-opacity="0.3"/>
<path d="M1588 6H1587V0H1588V6Z" fill="#DED5C5" fill-opacity="0.3"/>
<path d="M1591 3H1590V0H1591V3Z" fill="#DED5C5" fill-opacity="0.3"/>
<path d="M1594 3H1593V0H1594V3Z" fill="#DED5C5" fill-opacity="0.3"/>
<path d="M1597 3H1596V0H1597V3Z" fill="#DED5C5" fill-opacity="0.3"/>
<path d="M1600 3H1599V0H1600V3Z" fill="#DED5C5" fill-opacity="0.3"/>
<path d="M1603 6H1602V0H1603V6Z" fill="#DED5C5" fill-opacity="0.3"/>
<path d="M1606 3H1605V0H1606V3Z" fill="#DED5C5" fill-opacity="0.3"/>
<path d="M1609 3H1608V0H1609V3Z" fill="#DED5C5" fill-opacity="0.3"/>
<path d="M1612 3H1611V0H1612V3Z" fill="#DED5C5" fill-opacity="0.3"/>
<path d="M1615 3H1614V0H1615V3Z" fill="#DED5C5" fill-opacity="0.3"/>
<path d="M1618 6H1617V0H1618V6Z" fill="#DED5C5" fill-opacity="0.3"/>
<path d="M1621 3H1620V0H1621V3Z" fill="#DED5C5" fill-opacity="0.3"/>
<path d="M1624 3H1623V0H1624V3Z" fill="#DED5C5" fill-opacity="0.3"/>
<path d="M1627 3H1626V0H1627V3Z" fill="#DED5C5" fill-opacity="0.3"/>
<path d="M1630 3H1629V0H1630V3Z" fill="#DED5C5" fill-opacity="0.3"/>
<path d="M1633 6H1632V0H1633V6Z" fill="#DED5C5" fill-opacity="0.3"/>
<path d="M1636 3H1635V0H1636V3Z" fill="#DED5C5" fill-opacity="0.3"/>
<path d="M1639 3H1638V0H1639V3Z" fill="#DED5C5" fill-opacity="0.3"/>
<path d="M1642 3H1641V0H1642V3Z" fill="#DED5C5" fill-opacity="0.3"/>
<path d="M1645 3H1644V0H1645V3Z" fill="#DED5C5" fill-opacity="0.3"/>
<path d="M1648 6H1647V0H1648V6Z" fill="#DED5C5" fill-opacity="0.3"/>
<path d="M1651 3H1650V0H1651V3Z" fill="#DED5C5" fill-opacity="0.3"/>
<path d="M1654 3H1653V0H1654V3Z" fill="#DED5C5" fill-opacity="0.3"/>
<path d="M1657 3H1656V0H1657V3Z" fill="#DED5C5" fill-opacity="0.3"/>
<path d="M1660 3H1659V0H1660V3Z" fill="#DED5C5" fill-opacity="0.3"/>
<path d="M1663 6H1662V0H1663V6Z" fill="#DED5C5" fill-opacity="0.3"/>
<path d="M1666 3H1665V0H1666V3Z" fill="#DED5C5" fill-opacity="0.3"/>
<path d="M1669 3H1668V0H1669V3Z" fill="#DED5C5" fill-opacity="0.3"/>
<path d="M1672 3H1671V0H1672V3Z" fill="#DED5C5" fill-opacity="0.3"/>
<path d="M1675 3H1674V0H1675V3Z" fill="#DED5C5" fill-opacity="0.3"/>
<path d="M1678 6H1677V0H1678V6Z" fill="#DED5C5" fill-opacity="0.3"/>
<path d="M1681 3H1680V0H1681V3Z" fill="#DED5C5" fill-opacity="0.3"/>
<path d="M1684 3H1683V0H1684V3Z" fill="#DED5C5" fill-opacity="0.3"/>
<path d="M1687 3H1686V0H1687V3Z" fill="#DED5C5" fill-opacity="0.3"/>
<path d="M1690 3H1689V0H1690V3Z" fill="#DED5C5" fill-opacity="0.3"/>
<path d="M1693 6H1692V0H1693V6Z" fill="#DED5C5" fill-opacity="0.3"/>
<path d="M1696 3H1695V0H1696V3Z" fill="#DED5C5" fill-opacity="0.3"/>
<path d="M1699 3H1698V0H1699V3Z" fill="#DED5C5" fill-opacity="0.3"/>
<path d="M1702 3H1701V0H1702V3Z" fill="#DED5C5" fill-opacity="0.3"/>
<path d="M1705 3H1704V0H1705V3Z" fill="#DED5C5" fill-opacity="0.3"/>
<path d="M1708 6H1707V0H1708V6Z" fill="#DED5C5" fill-opacity="0.3"/>
<path d="M1711 3H1710V0H1711V3Z" fill="#DED5C5" fill-opacity="0.3"/>
<path d="M1714 3H1713V0H1714V3Z" fill="#DED5C5" fill-opacity="0.3"/>
<path d="M1717 3H1716V0H1717V3Z" fill="#DED5C5" fill-opacity="0.3"/>
<path d="M1720 3H1719V0H1720V3Z" fill="#DED5C5" fill-opacity="0.3"/>
<path d="M1723 6H1722V0H1723V6Z" fill="#DED5C5" fill-opacity="0.3"/>
<path d="M1726 3H1725V0H1726V3Z" fill="#DED5C5" fill-opacity="0.3"/>
<path d="M1729 3H1728V0H1729V3Z" fill="#DED5C5" fill-opacity="0.3"/>
<path d="M1732 3H1731V0H1732V3Z" fill="#DED5C5" fill-opacity="0.3"/>
<path d="M1735 3H1734V0H1735V3Z" fill="#DED5C5" fill-opacity="0.3"/>
<path d="M1738 6H1737V0H1738V6Z" fill="#DED5C5" fill-opacity="0.3"/>
<path d="M1741 3H1740V0H1741V3Z" fill="#DED5C5" fill-opacity="0.3"/>
<path d="M1744 3H1743V0H1744V3Z" fill="#DED5C5" fill-opacity="0.3"/>
<path d="M1747 3H1746V0H1747V3Z" fill="#DED5C5" fill-opacity="0.3"/>
<path d="M1750 3H1749V0H1750V3Z" fill="#DED5C5" fill-opacity="0.3"/>
<path d="M1753 6H1752V0H1753V6Z" fill="#DED5C5" fill-opacity="0.3"/>
<path d="M1756 3H1755V0H1756V3Z" fill="#DED5C5" fill-opacity="0.3"/>
<path d="M1759 3H1758V0H1759V3Z" fill="#DED5C5" fill-opacity="0.3"/>
<path d="M1762 3H1761V0H1762V3Z" fill="#DED5C5" fill-opacity="0.3"/>
<path d="M1765 3H1764V0H1765V3Z" fill="#DED5C5" fill-opacity="0.3"/>
<path d="M1768 6H1767V0H1768V6Z" fill="#DED5C5" fill-opacity="0.3"/>
<path d="M1771 3H1770V0H1771V3Z" fill="#DED5C5" fill-opacity="0.3"/>
<path d="M1774 3H1773V0H1774V3Z" fill="#DED5C5" fill-opacity="0.3"/>
<path d="M1777 3H1776V0H1777V3Z" fill="#DED5C5" fill-opacity="0.3"/>
<path d="M1780 3H1779V0H1780V3Z" fill="#DED5C5" fill-opacity="0.3"/>
<path d="M1783 6H1782V0H1783V6Z" fill="#DED5C5" fill-opacity="0.3"/>
<path d="M1786 3H1785V0H1786V3Z" fill="#DED5C5" fill-opacity="0.3"/>
<path d="M1789 3H1788V0H1789V3Z" fill="#DED5C5" fill-opacity="0.3"/>
<path d="M1792 3H1791V0H1792V3Z" fill="#DED5C5" fill-opacity="0.3"/>
<path d="M1795 3H1794V0H1795V3Z" fill="#DED5C5" fill-opacity="0.3"/>
<path d="M1798 6H1797V0H1798V6Z" fill="#DED5C5" fill-opacity="0.3"/>
<path d="M1801 3H1800V0H1801V3Z" fill="#DED5C5" fill-opacity="0.3"/>
<path d="M1804 3H1803V0H1804V3Z" fill="#DED5C5" fill-opacity="0.3"/>
<path d="M1807 3H1806V0H1807V3Z" fill="#DED5C5" fill-opacity="0.3"/>
<path d="M1810 3H1809V0H1810V3Z" fill="#DED5C5" fill-opacity="0.3"/>
<path d="M1813 6H1812V0H1813V6Z" fill="#DED5C5" fill-opacity="0.3"/>
<path d="M1816 3H1815V0H1816V3Z" fill="#DED5C5" fill-opacity="0.3"/>
<path d="M1819 3H1818V0H1819V3Z" fill="#DED5C5" fill-opacity="0.3"/>
<path d="M1822 3H1821V0H1822V3Z" fill="#DED5C5" fill-opacity="0.3"/>
<path d="M1825 3H1824V0H1825V3Z" fill="#DED5C5" fill-opacity="0.3"/>
<path d="M1828 6H1827V0H1828V6Z" fill="#DED5C5" fill-opacity="0.3"/>
<path d="M1831 3H1830V0H1831V3Z" fill="#DED5C5" fill-opacity="0.3"/>
<path d="M1834 3H1833V0H1834V3Z" fill="#DED5C5" fill-opacity="0.3"/>
<path d="M1837 3H1836V0H1837V3Z" fill="#DED5C5" fill-opacity="0.3"/>
<path d="M1840 3H1839V0H1840V3Z" fill="#DED5C5" fill-opacity="0.3"/>
<path d="M1843 6H1842V0H1843V6Z" fill="#DED5C5" fill-opacity="0.3"/>
<path d="M1846 3H1845V0H1846V3Z" fill="#DED5C5" fill-opacity="0.3"/>
<path d="M1849 3H1848V0H1849V3Z" fill="#DED5C5" fill-opacity="0.3"/>
<path d="M1852 3H1851V0H1852V3Z" fill="#DED5C5" fill-opacity="0.3"/>
<path d="M1855 3H1854V0H1855V3Z" fill="#DED5C5" fill-opacity="0.3"/>
<path d="M1858 6H1857V0H1858V6Z" fill="#DED5C5" fill-opacity="0.3"/>
<path d="M1861 3H1860V0H1861V3Z" fill="#DED5C5" fill-opacity="0.3"/>
<path d="M1864 3H1863V0H1864V3Z" fill="#DED5C5" fill-opacity="0.3"/>
<path d="M1867 3H1866V0H1867V3Z" fill="#DED5C5" fill-opacity="0.3"/>
<path d="M1870 3H1869V0H1870V3Z" fill="#DED5C5" fill-opacity="0.3"/>
<path d="M1873 6H1872V0H1873V6Z" fill="#DED5C5" fill-opacity="0.3"/>
<path d="M1876 3H1875V0H1876V3Z" fill="#DED5C5" fill-opacity="0.3"/>
<path d="M1879 3H1878V0H1879V3Z" fill="#DED5C5" fill-opacity="0.3"/>
<path d="M1882 3H1881V0H1882V3Z" fill="#DED5C5" fill-opacity="0.3"/>
<path d="M1885 3H1884V0H1885V3Z" fill="#DED5C5" fill-opacity="0.3"/>
<path d="M1888 6H1887V0H1888V6Z" fill="#DED5C5" fill-opacity="0.3"/>
<path d="M1891 3H1890V0H1891V3Z" fill="#DED5C5" fill-opacity="0.3"/>
<path d="M1894 3H1893V0H1894V3Z" fill="#DED5C5" fill-opacity="0.3"/>
<path d="M1897 3H1896V0H1897V3Z" fill="#DED5C5" fill-opacity="0.3"/>
<path d="M1900 3H1899V0H1900V3Z" fill="#DED5C5" fill-opacity="0.3"/>
<path d="M1903 6H1902V0H1903V6Z" fill="#DED5C5" fill-opacity="0.3"/>
<path d="M1906 3H1905V0H1906V3Z" fill="#DED5C5" fill-opacity="0.3"/>
<path d="M1909 3H1908V0H1909V3Z" fill="#DED5C5" fill-opacity="0.3"/>
<path d="M1912 3H1911V0H1912V3Z" fill="#DED5C5" fill-opacity="0.3"/>
<path d="M1915 3H1914V0H1915V3Z" fill="#DED5C5" fill-opacity="0.3"/>
<path d="M1918 6H1917V0H1918V6Z" fill="#DED5C5" fill-opacity="0.3"/>
</svg>
