<svg width="1920" height="6" viewBox="0 0 1920 6" fill="none" xmlns="http://www.w3.org/2000/svg">
<path d="M1 3H0V6H1V3Z" fill="#3D3834" fill-opacity="0.4"/>
<path d="M4 3H3V6H4V3Z" fill="#3D3834" fill-opacity="0.4"/>
<path d="M7 3H6V6H7V3Z" fill="#3D3834" fill-opacity="0.4"/>
<path d="M10 3H9V6H10V3Z" fill="#3D3834" fill-opacity="0.4"/>
<path d="M13 0H12V6H13V0Z" fill="#3D3834" fill-opacity="0.4"/>
<path d="M16 3H15V6H16V3Z" fill="#3D3834" fill-opacity="0.4"/>
<path d="M19 3H18V6H19V3Z" fill="#3D3834" fill-opacity="0.4"/>
<path d="M22 3H21V6H22V3Z" fill="#3D3834" fill-opacity="0.4"/>
<path d="M25 3H24V6H25V3Z" fill="#3D3834" fill-opacity="0.4"/>
<path d="M28 0H27V6H28V0Z" fill="#3D3834" fill-opacity="0.4"/>
<path d="M31 3H30V6H31V3Z" fill="#3D3834" fill-opacity="0.4"/>
<path d="M34 3H33V6H34V3Z" fill="#3D3834" fill-opacity="0.4"/>
<path d="M37 3H36V6H37V3Z" fill="#3D3834" fill-opacity="0.4"/>
<path d="M40 3H39V6H40V3Z" fill="#3D3834" fill-opacity="0.4"/>
<path d="M43 0H42V6H43V0Z" fill="#3D3834" fill-opacity="0.4"/>
<path d="M46 3H45V6H46V3Z" fill="#3D3834" fill-opacity="0.4"/>
<path d="M49 3H48V6H49V3Z" fill="#3D3834" fill-opacity="0.4"/>
<path d="M52 3H51V6H52V3Z" fill="#3D3834" fill-opacity="0.4"/>
<path d="M55 3H54V6H55V3Z" fill="#3D3834" fill-opacity="0.4"/>
<path d="M58 0H57V6H58V0Z" fill="#3D3834" fill-opacity="0.4"/>
<path d="M61 3H60V6H61V3Z" fill="#3D3834" fill-opacity="0.4"/>
<path d="M64 3H63V6H64V3Z" fill="#3D3834" fill-opacity="0.4"/>
<path d="M67 3H66V6H67V3Z" fill="#3D3834" fill-opacity="0.4"/>
<path d="M70 3H69V6H70V3Z" fill="#3D3834" fill-opacity="0.4"/>
<path d="M73 0H72V6H73V0Z" fill="#3D3834" fill-opacity="0.4"/>
<path d="M76 3H75V6H76V3Z" fill="#3D3834" fill-opacity="0.4"/>
<path d="M79 3H78V6H79V3Z" fill="#3D3834" fill-opacity="0.4"/>
<path d="M82 3H81V6H82V3Z" fill="#3D3834" fill-opacity="0.4"/>
<path d="M85 3H84V6H85V3Z" fill="#3D3834" fill-opacity="0.4"/>
<path d="M88 0H87V6H88V0Z" fill="#3D3834" fill-opacity="0.4"/>
<path d="M91 3H90V6H91V3Z" fill="#3D3834" fill-opacity="0.4"/>
<path d="M94 3H93V6H94V3Z" fill="#3D3834" fill-opacity="0.4"/>
<path d="M97 3H96V6H97V3Z" fill="#3D3834" fill-opacity="0.4"/>
<path d="M100 3H99V6H100V3Z" fill="#3D3834" fill-opacity="0.4"/>
<path d="M103 0H102V6H103V0Z" fill="#3D3834" fill-opacity="0.4"/>
<path d="M106 3H105V6H106V3Z" fill="#3D3834" fill-opacity="0.4"/>
<path d="M109 3H108V6H109V3Z" fill="#3D3834" fill-opacity="0.4"/>
<path d="M112 3H111V6H112V3Z" fill="#3D3834" fill-opacity="0.4"/>
<path d="M115 3H114V6H115V3Z" fill="#3D3834" fill-opacity="0.4"/>
<path d="M118 0H117V6H118V0Z" fill="#3D3834" fill-opacity="0.4"/>
<path d="M121 3H120V6H121V3Z" fill="#3D3834" fill-opacity="0.4"/>
<path d="M124 3H123V6H124V3Z" fill="#3D3834" fill-opacity="0.4"/>
<path d="M127 3H126V6H127V3Z" fill="#3D3834" fill-opacity="0.4"/>
<path d="M130 3H129V6H130V3Z" fill="#3D3834" fill-opacity="0.4"/>
<path d="M133 0H132V6H133V0Z" fill="#3D3834" fill-opacity="0.4"/>
<path d="M136 3H135V6H136V3Z" fill="#3D3834" fill-opacity="0.4"/>
<path d="M139 3H138V6H139V3Z" fill="#3D3834" fill-opacity="0.4"/>
<path d="M142 3H141V6H142V3Z" fill="#3D3834" fill-opacity="0.4"/>
<path d="M145 3H144V6H145V3Z" fill="#3D3834" fill-opacity="0.4"/>
<path d="M148 0H147V6H148V0Z" fill="#3D3834" fill-opacity="0.4"/>
<path d="M151 3H150V6H151V3Z" fill="#3D3834" fill-opacity="0.4"/>
<path d="M154 3H153V6H154V3Z" fill="#3D3834" fill-opacity="0.4"/>
<path d="M157 3H156V6H157V3Z" fill="#3D3834" fill-opacity="0.4"/>
<path d="M160 3H159V6H160V3Z" fill="#3D3834" fill-opacity="0.4"/>
<path d="M163 0H162V6H163V0Z" fill="#3D3834" fill-opacity="0.4"/>
<path d="M166 3H165V6H166V3Z" fill="#3D3834" fill-opacity="0.4"/>
<path d="M169 3H168V6H169V3Z" fill="#3D3834" fill-opacity="0.4"/>
<path d="M172 3H171V6H172V3Z" fill="#3D3834" fill-opacity="0.4"/>
<path d="M175 3H174V6H175V3Z" fill="#3D3834" fill-opacity="0.4"/>
<path d="M178 0H177V6H178V0Z" fill="#3D3834" fill-opacity="0.4"/>
<path d="M181 3H180V6H181V3Z" fill="#3D3834" fill-opacity="0.4"/>
<path d="M184 3H183V6H184V3Z" fill="#3D3834" fill-opacity="0.4"/>
<path d="M187 3H186V6H187V3Z" fill="#3D3834" fill-opacity="0.4"/>
<path d="M190 3H189V6H190V3Z" fill="#3D3834" fill-opacity="0.4"/>
<path d="M193 0H192V6H193V0Z" fill="#3D3834" fill-opacity="0.4"/>
<path d="M196 3H195V6H196V3Z" fill="#3D3834" fill-opacity="0.4"/>
<path d="M199 3H198V6H199V3Z" fill="#3D3834" fill-opacity="0.4"/>
<path d="M202 3H201V6H202V3Z" fill="#3D3834" fill-opacity="0.4"/>
<path d="M205 3H204V6H205V3Z" fill="#3D3834" fill-opacity="0.4"/>
<path d="M208 0H207V6H208V0Z" fill="#3D3834" fill-opacity="0.4"/>
<path d="M211 3H210V6H211V3Z" fill="#3D3834" fill-opacity="0.4"/>
<path d="M214 3H213V6H214V3Z" fill="#3D3834" fill-opacity="0.4"/>
<path d="M217 3H216V6H217V3Z" fill="#3D3834" fill-opacity="0.4"/>
<path d="M220 3H219V6H220V3Z" fill="#3D3834" fill-opacity="0.4"/>
<path d="M223 0H222V6H223V0Z" fill="#3D3834" fill-opacity="0.4"/>
<path d="M226 3H225V6H226V3Z" fill="#3D3834" fill-opacity="0.4"/>
<path d="M229 3H228V6H229V3Z" fill="#3D3834" fill-opacity="0.4"/>
<path d="M232 3H231V6H232V3Z" fill="#3D3834" fill-opacity="0.4"/>
<path d="M235 3H234V6H235V3Z" fill="#3D3834" fill-opacity="0.4"/>
<path d="M238 0H237V6H238V0Z" fill="#3D3834" fill-opacity="0.4"/>
<path d="M241 3H240V6H241V3Z" fill="#3D3834" fill-opacity="0.4"/>
<path d="M244 3H243V6H244V3Z" fill="#3D3834" fill-opacity="0.4"/>
<path d="M247 3H246V6H247V3Z" fill="#3D3834" fill-opacity="0.4"/>
<path d="M250 3H249V6H250V3Z" fill="#3D3834" fill-opacity="0.4"/>
<path d="M253 0H252V6H253V0Z" fill="#3D3834" fill-opacity="0.4"/>
<path d="M256 3H255V6H256V3Z" fill="#3D3834" fill-opacity="0.4"/>
<path d="M259 3H258V6H259V3Z" fill="#3D3834" fill-opacity="0.4"/>
<path d="M262 3H261V6H262V3Z" fill="#3D3834" fill-opacity="0.4"/>
<path d="M265 3H264V6H265V3Z" fill="#3D3834" fill-opacity="0.4"/>
<path d="M268 0H267V6H268V0Z" fill="#3D3834" fill-opacity="0.4"/>
<path d="M271 3H270V6H271V3Z" fill="#3D3834" fill-opacity="0.4"/>
<path d="M274 3H273V6H274V3Z" fill="#3D3834" fill-opacity="0.4"/>
<path d="M277 3H276V6H277V3Z" fill="#3D3834" fill-opacity="0.4"/>
<path d="M280 3H279V6H280V3Z" fill="#3D3834" fill-opacity="0.4"/>
<path d="M283 0H282V6H283V0Z" fill="#3D3834" fill-opacity="0.4"/>
<path d="M286 3H285V6H286V3Z" fill="#3D3834" fill-opacity="0.4"/>
<path d="M289 3H288V6H289V3Z" fill="#3D3834" fill-opacity="0.4"/>
<path d="M292 3H291V6H292V3Z" fill="#3D3834" fill-opacity="0.4"/>
<path d="M295 3H294V6H295V3Z" fill="#3D3834" fill-opacity="0.4"/>
<path d="M298 0H297V6H298V0Z" fill="#3D3834" fill-opacity="0.4"/>
<path d="M301 3H300V6H301V3Z" fill="#3D3834" fill-opacity="0.4"/>
<path d="M304 3H303V6H304V3Z" fill="#3D3834" fill-opacity="0.4"/>
<path d="M307 3H306V6H307V3Z" fill="#3D3834" fill-opacity="0.4"/>
<path d="M310 3H309V6H310V3Z" fill="#3D3834" fill-opacity="0.4"/>
<path d="M313 0H312V6H313V0Z" fill="#3D3834" fill-opacity="0.4"/>
<path d="M316 3H315V6H316V3Z" fill="#3D3834" fill-opacity="0.4"/>
<path d="M319 3H318V6H319V3Z" fill="#3D3834" fill-opacity="0.4"/>
<path d="M322 3H321V6H322V3Z" fill="#3D3834" fill-opacity="0.4"/>
<path d="M325 3H324V6H325V3Z" fill="#3D3834" fill-opacity="0.4"/>
<path d="M328 0H327V6H328V0Z" fill="#3D3834" fill-opacity="0.4"/>
<path d="M331 3H330V6H331V3Z" fill="#3D3834" fill-opacity="0.4"/>
<path d="M334 3H333V6H334V3Z" fill="#3D3834" fill-opacity="0.4"/>
<path d="M337 3H336V6H337V3Z" fill="#3D3834" fill-opacity="0.4"/>
<path d="M340 3H339V6H340V3Z" fill="#3D3834" fill-opacity="0.4"/>
<path d="M343 0H342V6H343V0Z" fill="#3D3834" fill-opacity="0.4"/>
<path d="M346 3H345V6H346V3Z" fill="#3D3834" fill-opacity="0.4"/>
<path d="M349 3H348V6H349V3Z" fill="#3D3834" fill-opacity="0.4"/>
<path d="M352 3H351V6H352V3Z" fill="#3D3834" fill-opacity="0.4"/>
<path d="M355 3H354V6H355V3Z" fill="#3D3834" fill-opacity="0.4"/>
<path d="M358 0H357V6H358V0Z" fill="#3D3834" fill-opacity="0.4"/>
<path d="M361 3H360V6H361V3Z" fill="#3D3834" fill-opacity="0.4"/>
<path d="M364 3H363V6H364V3Z" fill="#3D3834" fill-opacity="0.4"/>
<path d="M367 3H366V6H367V3Z" fill="#3D3834" fill-opacity="0.4"/>
<path d="M370 3H369V6H370V3Z" fill="#3D3834" fill-opacity="0.4"/>
<path d="M373 0H372V6H373V0Z" fill="#3D3834" fill-opacity="0.4"/>
<path d="M376 3H375V6H376V3Z" fill="#3D3834" fill-opacity="0.4"/>
<path d="M379 3H378V6H379V3Z" fill="#3D3834" fill-opacity="0.4"/>
<path d="M382 3H381V6H382V3Z" fill="#3D3834" fill-opacity="0.4"/>
<path d="M385 3H384V6H385V3Z" fill="#3D3834" fill-opacity="0.4"/>
<path d="M388 0H387V6H388V0Z" fill="#3D3834" fill-opacity="0.4"/>
<path d="M391 3H390V6H391V3Z" fill="#3D3834" fill-opacity="0.4"/>
<path d="M394 3H393V6H394V3Z" fill="#3D3834" fill-opacity="0.4"/>
<path d="M397 3H396V6H397V3Z" fill="#3D3834" fill-opacity="0.4"/>
<path d="M400 3H399V6H400V3Z" fill="#3D3834" fill-opacity="0.4"/>
<path d="M403 0H402V6H403V0Z" fill="#3D3834" fill-opacity="0.4"/>
<path d="M406 3H405V6H406V3Z" fill="#3D3834" fill-opacity="0.4"/>
<path d="M409 3H408V6H409V3Z" fill="#3D3834" fill-opacity="0.4"/>
<path d="M412 3H411V6H412V3Z" fill="#3D3834" fill-opacity="0.4"/>
<path d="M415 3H414V6H415V3Z" fill="#3D3834" fill-opacity="0.4"/>
<path d="M418 0H417V6H418V0Z" fill="#3D3834" fill-opacity="0.4"/>
<path d="M421 3H420V6H421V3Z" fill="#3D3834" fill-opacity="0.4"/>
<path d="M424 3H423V6H424V3Z" fill="#3D3834" fill-opacity="0.4"/>
<path d="M427 3H426V6H427V3Z" fill="#3D3834" fill-opacity="0.4"/>
<path d="M430 3H429V6H430V3Z" fill="#3D3834" fill-opacity="0.4"/>
<path d="M433 0H432V6H433V0Z" fill="#3D3834" fill-opacity="0.4"/>
<path d="M436 3H435V6H436V3Z" fill="#3D3834" fill-opacity="0.4"/>
<path d="M439 3H438V6H439V3Z" fill="#3D3834" fill-opacity="0.4"/>
<path d="M442 3H441V6H442V3Z" fill="#3D3834" fill-opacity="0.4"/>
<path d="M445 3H444V6H445V3Z" fill="#3D3834" fill-opacity="0.4"/>
<path d="M448 0H447V6H448V0Z" fill="#3D3834" fill-opacity="0.4"/>
<path d="M451 3H450V6H451V3Z" fill="#3D3834" fill-opacity="0.4"/>
<path d="M454 3H453V6H454V3Z" fill="#3D3834" fill-opacity="0.4"/>
<path d="M457 3H456V6H457V3Z" fill="#3D3834" fill-opacity="0.4"/>
<path d="M460 3H459V6H460V3Z" fill="#3D3834" fill-opacity="0.4"/>
<path d="M463 0H462V6H463V0Z" fill="#3D3834" fill-opacity="0.4"/>
<path d="M466 3H465V6H466V3Z" fill="#3D3834" fill-opacity="0.4"/>
<path d="M469 3H468V6H469V3Z" fill="#3D3834" fill-opacity="0.4"/>
<path d="M472 3H471V6H472V3Z" fill="#3D3834" fill-opacity="0.4"/>
<path d="M475 3H474V6H475V3Z" fill="#3D3834" fill-opacity="0.4"/>
<path d="M478 0H477V6H478V0Z" fill="#3D3834" fill-opacity="0.4"/>
<path d="M481 3H480V6H481V3Z" fill="#3D3834" fill-opacity="0.4"/>
<path d="M484 3H483V6H484V3Z" fill="#3D3834" fill-opacity="0.4"/>
<path d="M487 3H486V6H487V3Z" fill="#3D3834" fill-opacity="0.4"/>
<path d="M490 3H489V6H490V3Z" fill="#3D3834" fill-opacity="0.4"/>
<path d="M493 0H492V6H493V0Z" fill="#3D3834" fill-opacity="0.4"/>
<path d="M496 3H495V6H496V3Z" fill="#3D3834" fill-opacity="0.4"/>
<path d="M499 3H498V6H499V3Z" fill="#3D3834" fill-opacity="0.4"/>
<path d="M502 3H501V6H502V3Z" fill="#3D3834" fill-opacity="0.4"/>
<path d="M505 3H504V6H505V3Z" fill="#3D3834" fill-opacity="0.4"/>
<path d="M508 0H507V6H508V0Z" fill="#3D3834" fill-opacity="0.4"/>
<path d="M511 3H510V6H511V3Z" fill="#3D3834" fill-opacity="0.4"/>
<path d="M514 3H513V6H514V3Z" fill="#3D3834" fill-opacity="0.4"/>
<path d="M517 3H516V6H517V3Z" fill="#3D3834" fill-opacity="0.4"/>
<path d="M520 3H519V6H520V3Z" fill="#3D3834" fill-opacity="0.4"/>
<path d="M523 0H522V6H523V0Z" fill="#3D3834" fill-opacity="0.4"/>
<path d="M526 3H525V6H526V3Z" fill="#3D3834" fill-opacity="0.4"/>
<path d="M529 3H528V6H529V3Z" fill="#3D3834" fill-opacity="0.4"/>
<path d="M532 3H531V6H532V3Z" fill="#3D3834" fill-opacity="0.4"/>
<path d="M535 3H534V6H535V3Z" fill="#3D3834" fill-opacity="0.4"/>
<path d="M538 0H537V6H538V0Z" fill="#3D3834" fill-opacity="0.4"/>
<path d="M541 3H540V6H541V3Z" fill="#3D3834" fill-opacity="0.4"/>
<path d="M544 3H543V6H544V3Z" fill="#3D3834" fill-opacity="0.4"/>
<path d="M547 3H546V6H547V3Z" fill="#3D3834" fill-opacity="0.4"/>
<path d="M550 3H549V6H550V3Z" fill="#3D3834" fill-opacity="0.4"/>
<path d="M553 0H552V6H553V0Z" fill="#3D3834" fill-opacity="0.4"/>
<path d="M556 3H555V6H556V3Z" fill="#3D3834" fill-opacity="0.4"/>
<path d="M559 3H558V6H559V3Z" fill="#3D3834" fill-opacity="0.4"/>
<path d="M562 3H561V6H562V3Z" fill="#3D3834" fill-opacity="0.4"/>
<path d="M565 3H564V6H565V3Z" fill="#3D3834" fill-opacity="0.4"/>
<path d="M568 0H567V6H568V0Z" fill="#3D3834" fill-opacity="0.4"/>
<path d="M571 3H570V6H571V3Z" fill="#3D3834" fill-opacity="0.4"/>
<path d="M574 3H573V6H574V3Z" fill="#3D3834" fill-opacity="0.4"/>
<path d="M577 3H576V6H577V3Z" fill="#3D3834" fill-opacity="0.4"/>
<path d="M580 3H579V6H580V3Z" fill="#3D3834" fill-opacity="0.4"/>
<path d="M583 0H582V6H583V0Z" fill="#3D3834" fill-opacity="0.4"/>
<path d="M586 3H585V6H586V3Z" fill="#3D3834" fill-opacity="0.4"/>
<path d="M589 3H588V6H589V3Z" fill="#3D3834" fill-opacity="0.4"/>
<path d="M592 3H591V6H592V3Z" fill="#3D3834" fill-opacity="0.4"/>
<path d="M595 3H594V6H595V3Z" fill="#3D3834" fill-opacity="0.4"/>
<path d="M598 0H597V6H598V0Z" fill="#3D3834" fill-opacity="0.4"/>
<path d="M601 3H600V6H601V3Z" fill="#3D3834" fill-opacity="0.4"/>
<path d="M604 3H603V6H604V3Z" fill="#3D3834" fill-opacity="0.4"/>
<path d="M607 3H606V6H607V3Z" fill="#3D3834" fill-opacity="0.4"/>
<path d="M610 3H609V6H610V3Z" fill="#3D3834" fill-opacity="0.4"/>
<path d="M613 0H612V6H613V0Z" fill="#3D3834" fill-opacity="0.4"/>
<path d="M616 3H615V6H616V3Z" fill="#3D3834" fill-opacity="0.4"/>
<path d="M619 3H618V6H619V3Z" fill="#3D3834" fill-opacity="0.4"/>
<path d="M622 3H621V6H622V3Z" fill="#3D3834" fill-opacity="0.4"/>
<path d="M625 3H624V6H625V3Z" fill="#3D3834" fill-opacity="0.4"/>
<path d="M628 0H627V6H628V0Z" fill="#3D3834" fill-opacity="0.4"/>
<path d="M631 3H630V6H631V3Z" fill="#3D3834" fill-opacity="0.4"/>
<path d="M634 3H633V6H634V3Z" fill="#3D3834" fill-opacity="0.4"/>
<path d="M637 3H636V6H637V3Z" fill="#3D3834" fill-opacity="0.4"/>
<path d="M640 3H639V6H640V3Z" fill="#3D3834" fill-opacity="0.4"/>
<path d="M643 0H642V6H643V0Z" fill="#3D3834" fill-opacity="0.4"/>
<path d="M646 3H645V6H646V3Z" fill="#3D3834" fill-opacity="0.4"/>
<path d="M649 3H648V6H649V3Z" fill="#3D3834" fill-opacity="0.4"/>
<path d="M652 3H651V6H652V3Z" fill="#3D3834" fill-opacity="0.4"/>
<path d="M655 3H654V6H655V3Z" fill="#3D3834" fill-opacity="0.4"/>
<path d="M658 0H657V6H658V0Z" fill="#3D3834" fill-opacity="0.4"/>
<path d="M661 3H660V6H661V3Z" fill="#3D3834" fill-opacity="0.4"/>
<path d="M664 3H663V6H664V3Z" fill="#3D3834" fill-opacity="0.4"/>
<path d="M667 3H666V6H667V3Z" fill="#3D3834" fill-opacity="0.4"/>
<path d="M670 3H669V6H670V3Z" fill="#3D3834" fill-opacity="0.4"/>
<path d="M673 0H672V6H673V0Z" fill="#3D3834" fill-opacity="0.4"/>
<path d="M676 3H675V6H676V3Z" fill="#3D3834" fill-opacity="0.4"/>
<path d="M679 3H678V6H679V3Z" fill="#3D3834" fill-opacity="0.4"/>
<path d="M682 3H681V6H682V3Z" fill="#3D3834" fill-opacity="0.4"/>
<path d="M685 3H684V6H685V3Z" fill="#3D3834" fill-opacity="0.4"/>
<path d="M688 0H687V6H688V0Z" fill="#3D3834" fill-opacity="0.4"/>
<path d="M691 3H690V6H691V3Z" fill="#3D3834" fill-opacity="0.4"/>
<path d="M694 3H693V6H694V3Z" fill="#3D3834" fill-opacity="0.4"/>
<path d="M697 3H696V6H697V3Z" fill="#3D3834" fill-opacity="0.4"/>
<path d="M700 3H699V6H700V3Z" fill="#3D3834" fill-opacity="0.4"/>
<path d="M703 0H702V6H703V0Z" fill="#3D3834" fill-opacity="0.4"/>
<path d="M706 3H705V6H706V3Z" fill="#3D3834" fill-opacity="0.4"/>
<path d="M709 3H708V6H709V3Z" fill="#3D3834" fill-opacity="0.4"/>
<path d="M712 3H711V6H712V3Z" fill="#3D3834" fill-opacity="0.4"/>
<path d="M715 3H714V6H715V3Z" fill="#3D3834" fill-opacity="0.4"/>
<path d="M718 0H717V6H718V0Z" fill="#3D3834" fill-opacity="0.4"/>
<path d="M721 3H720V6H721V3Z" fill="#3D3834" fill-opacity="0.4"/>
<path d="M724 3H723V6H724V3Z" fill="#3D3834" fill-opacity="0.4"/>
<path d="M727 3H726V6H727V3Z" fill="#3D3834" fill-opacity="0.4"/>
<path d="M730 3H729V6H730V3Z" fill="#3D3834" fill-opacity="0.4"/>
<path d="M733 0H732V6H733V0Z" fill="#3D3834" fill-opacity="0.4"/>
<path d="M736 3H735V6H736V3Z" fill="#3D3834" fill-opacity="0.4"/>
<path d="M739 3H738V6H739V3Z" fill="#3D3834" fill-opacity="0.4"/>
<path d="M742 3H741V6H742V3Z" fill="#3D3834" fill-opacity="0.4"/>
<path d="M745 3H744V6H745V3Z" fill="#3D3834" fill-opacity="0.4"/>
<path d="M748 0H747V6H748V0Z" fill="#3D3834" fill-opacity="0.4"/>
<path d="M751 3H750V6H751V3Z" fill="#3D3834" fill-opacity="0.4"/>
<path d="M754 3H753V6H754V3Z" fill="#3D3834" fill-opacity="0.4"/>
<path d="M757 3H756V6H757V3Z" fill="#3D3834" fill-opacity="0.4"/>
<path d="M760 3H759V6H760V3Z" fill="#3D3834" fill-opacity="0.4"/>
<path d="M763 0H762V6H763V0Z" fill="#3D3834" fill-opacity="0.4"/>
<path d="M766 3H765V6H766V3Z" fill="#3D3834" fill-opacity="0.4"/>
<path d="M769 3H768V6H769V3Z" fill="#3D3834" fill-opacity="0.4"/>
<path d="M772 3H771V6H772V3Z" fill="#3D3834" fill-opacity="0.4"/>
<path d="M775 3H774V6H775V3Z" fill="#3D3834" fill-opacity="0.4"/>
<path d="M778 0H777V6H778V0Z" fill="#3D3834" fill-opacity="0.4"/>
<path d="M781 3H780V6H781V3Z" fill="#3D3834" fill-opacity="0.4"/>
<path d="M784 3H783V6H784V3Z" fill="#3D3834" fill-opacity="0.4"/>
<path d="M787 3H786V6H787V3Z" fill="#3D3834" fill-opacity="0.4"/>
<path d="M790 3H789V6H790V3Z" fill="#3D3834" fill-opacity="0.4"/>
<path d="M793 0H792V6H793V0Z" fill="#3D3834" fill-opacity="0.4"/>
<path d="M796 3H795V6H796V3Z" fill="#3D3834" fill-opacity="0.4"/>
<path d="M799 3H798V6H799V3Z" fill="#3D3834" fill-opacity="0.4"/>
<path d="M802 3H801V6H802V3Z" fill="#3D3834" fill-opacity="0.4"/>
<path d="M805 3H804V6H805V3Z" fill="#3D3834" fill-opacity="0.4"/>
<path d="M808 0H807V6H808V0Z" fill="#3D3834" fill-opacity="0.4"/>
<path d="M811 3H810V6H811V3Z" fill="#3D3834" fill-opacity="0.4"/>
<path d="M814 3H813V6H814V3Z" fill="#3D3834" fill-opacity="0.4"/>
<path d="M817 3H816V6H817V3Z" fill="#3D3834" fill-opacity="0.4"/>
<path d="M820 3H819V6H820V3Z" fill="#3D3834" fill-opacity="0.4"/>
<path d="M823 0H822V6H823V0Z" fill="#3D3834" fill-opacity="0.4"/>
<path d="M826 3H825V6H826V3Z" fill="#3D3834" fill-opacity="0.4"/>
<path d="M829 3H828V6H829V3Z" fill="#3D3834" fill-opacity="0.4"/>
<path d="M832 3H831V6H832V3Z" fill="#3D3834" fill-opacity="0.4"/>
<path d="M835 3H834V6H835V3Z" fill="#3D3834" fill-opacity="0.4"/>
<path d="M838 0H837V6H838V0Z" fill="#3D3834" fill-opacity="0.4"/>
<path d="M841 3H840V6H841V3Z" fill="#3D3834" fill-opacity="0.4"/>
<path d="M844 3H843V6H844V3Z" fill="#3D3834" fill-opacity="0.4"/>
<path d="M847 3H846V6H847V3Z" fill="#3D3834" fill-opacity="0.4"/>
<path d="M850 3H849V6H850V3Z" fill="#3D3834" fill-opacity="0.4"/>
<path d="M853 0H852V6H853V0Z" fill="#3D3834" fill-opacity="0.4"/>
<path d="M856 3H855V6H856V3Z" fill="#3D3834" fill-opacity="0.4"/>
<path d="M859 3H858V6H859V3Z" fill="#3D3834" fill-opacity="0.4"/>
<path d="M862 3H861V6H862V3Z" fill="#3D3834" fill-opacity="0.4"/>
<path d="M865 3H864V6H865V3Z" fill="#3D3834" fill-opacity="0.4"/>
<path d="M868 0H867V6H868V0Z" fill="#3D3834" fill-opacity="0.4"/>
<path d="M871 3H870V6H871V3Z" fill="#3D3834" fill-opacity="0.4"/>
<path d="M874 3H873V6H874V3Z" fill="#3D3834" fill-opacity="0.4"/>
<path d="M877 3H876V6H877V3Z" fill="#3D3834" fill-opacity="0.4"/>
<path d="M880 3H879V6H880V3Z" fill="#3D3834" fill-opacity="0.4"/>
<path d="M883 0H882V6H883V0Z" fill="#3D3834" fill-opacity="0.4"/>
<path d="M886 3H885V6H886V3Z" fill="#3D3834" fill-opacity="0.4"/>
<path d="M889 3H888V6H889V3Z" fill="#3D3834" fill-opacity="0.4"/>
<path d="M892 3H891V6H892V3Z" fill="#3D3834" fill-opacity="0.4"/>
<path d="M895 3H894V6H895V3Z" fill="#3D3834" fill-opacity="0.4"/>
<path d="M898 0H897V6H898V0Z" fill="#3D3834" fill-opacity="0.4"/>
<path d="M901 3H900V6H901V3Z" fill="#3D3834" fill-opacity="0.4"/>
<path d="M904 3H903V6H904V3Z" fill="#3D3834" fill-opacity="0.4"/>
<path d="M907 3H906V6H907V3Z" fill="#3D3834" fill-opacity="0.4"/>
<path d="M910 3H909V6H910V3Z" fill="#3D3834" fill-opacity="0.4"/>
<path d="M913 0H912V6H913V0Z" fill="#3D3834" fill-opacity="0.4"/>
<path d="M916 3H915V6H916V3Z" fill="#3D3834" fill-opacity="0.4"/>
<path d="M919 3H918V6H919V3Z" fill="#3D3834" fill-opacity="0.4"/>
<path d="M922 3H921V6H922V3Z" fill="#3D3834" fill-opacity="0.4"/>
<path d="M925 3H924V6H925V3Z" fill="#3D3834" fill-opacity="0.4"/>
<path d="M928 0H927V6H928V0Z" fill="#3D3834" fill-opacity="0.4"/>
<path d="M931 3H930V6H931V3Z" fill="#3D3834" fill-opacity="0.4"/>
<path d="M934 3H933V6H934V3Z" fill="#3D3834" fill-opacity="0.4"/>
<path d="M937 3H936V6H937V3Z" fill="#3D3834" fill-opacity="0.4"/>
<path d="M940 3H939V6H940V3Z" fill="#3D3834" fill-opacity="0.4"/>
<path d="M943 0H942V6H943V0Z" fill="#3D3834" fill-opacity="0.4"/>
<path d="M946 3H945V6H946V3Z" fill="#3D3834" fill-opacity="0.4"/>
<path d="M949 3H948V6H949V3Z" fill="#3D3834" fill-opacity="0.4"/>
<path d="M952 3H951V6H952V3Z" fill="#3D3834" fill-opacity="0.4"/>
<path d="M955 3H954V6H955V3Z" fill="#3D3834" fill-opacity="0.4"/>
<path d="M958 0H957V6H958V0Z" fill="#3D3834" fill-opacity="0.4"/>
<path d="M961 3H960V6H961V3Z" fill="#3D3834" fill-opacity="0.4"/>
<path d="M964 3H963V6H964V3Z" fill="#3D3834" fill-opacity="0.4"/>
<path d="M967 3H966V6H967V3Z" fill="#3D3834" fill-opacity="0.4"/>
<path d="M970 3H969V6H970V3Z" fill="#3D3834" fill-opacity="0.4"/>
<path d="M973 0H972V6H973V0Z" fill="#3D3834" fill-opacity="0.4"/>
<path d="M976 3H975V6H976V3Z" fill="#3D3834" fill-opacity="0.4"/>
<path d="M979 3H978V6H979V3Z" fill="#3D3834" fill-opacity="0.4"/>
<path d="M982 3H981V6H982V3Z" fill="#3D3834" fill-opacity="0.4"/>
<path d="M985 3H984V6H985V3Z" fill="#3D3834" fill-opacity="0.4"/>
<path d="M988 0H987V6H988V0Z" fill="#3D3834" fill-opacity="0.4"/>
<path d="M991 3H990V6H991V3Z" fill="#3D3834" fill-opacity="0.4"/>
<path d="M994 3H993V6H994V3Z" fill="#3D3834" fill-opacity="0.4"/>
<path d="M997 3H996V6H997V3Z" fill="#3D3834" fill-opacity="0.4"/>
<path d="M1000 3H999V6H1000V3Z" fill="#3D3834" fill-opacity="0.4"/>
<path d="M1003 0H1002V6H1003V0Z" fill="#3D3834" fill-opacity="0.4"/>
<path d="M1006 3H1005V6H1006V3Z" fill="#3D3834" fill-opacity="0.4"/>
<path d="M1009 3H1008V6H1009V3Z" fill="#3D3834" fill-opacity="0.4"/>
<path d="M1012 3H1011V6H1012V3Z" fill="#3D3834" fill-opacity="0.4"/>
<path d="M1015 3H1014V6H1015V3Z" fill="#3D3834" fill-opacity="0.4"/>
<path d="M1018 0H1017V6H1018V0Z" fill="#3D3834" fill-opacity="0.4"/>
<path d="M1021 3H1020V6H1021V3Z" fill="#3D3834" fill-opacity="0.4"/>
<path d="M1024 3H1023V6H1024V3Z" fill="#3D3834" fill-opacity="0.4"/>
<path d="M1027 3H1026V6H1027V3Z" fill="#3D3834" fill-opacity="0.4"/>
<path d="M1030 3H1029V6H1030V3Z" fill="#3D3834" fill-opacity="0.4"/>
<path d="M1033 0H1032V6H1033V0Z" fill="#3D3834" fill-opacity="0.4"/>
<path d="M1036 3H1035V6H1036V3Z" fill="#3D3834" fill-opacity="0.4"/>
<path d="M1039 3H1038V6H1039V3Z" fill="#3D3834" fill-opacity="0.4"/>
<path d="M1042 3H1041V6H1042V3Z" fill="#3D3834" fill-opacity="0.4"/>
<path d="M1045 3H1044V6H1045V3Z" fill="#3D3834" fill-opacity="0.4"/>
<path d="M1048 0H1047V6H1048V0Z" fill="#3D3834" fill-opacity="0.4"/>
<path d="M1051 3H1050V6H1051V3Z" fill="#3D3834" fill-opacity="0.4"/>
<path d="M1054 3H1053V6H1054V3Z" fill="#3D3834" fill-opacity="0.4"/>
<path d="M1057 3H1056V6H1057V3Z" fill="#3D3834" fill-opacity="0.4"/>
<path d="M1060 3H1059V6H1060V3Z" fill="#3D3834" fill-opacity="0.4"/>
<path d="M1063 0H1062V6H1063V0Z" fill="#3D3834" fill-opacity="0.4"/>
<path d="M1066 3H1065V6H1066V3Z" fill="#3D3834" fill-opacity="0.4"/>
<path d="M1069 3H1068V6H1069V3Z" fill="#3D3834" fill-opacity="0.4"/>
<path d="M1072 3H1071V6H1072V3Z" fill="#3D3834" fill-opacity="0.4"/>
<path d="M1075 3H1074V6H1075V3Z" fill="#3D3834" fill-opacity="0.4"/>
<path d="M1078 0H1077V6H1078V0Z" fill="#3D3834" fill-opacity="0.4"/>
<path d="M1081 3H1080V6H1081V3Z" fill="#3D3834" fill-opacity="0.4"/>
<path d="M1084 3H1083V6H1084V3Z" fill="#3D3834" fill-opacity="0.4"/>
<path d="M1087 3H1086V6H1087V3Z" fill="#3D3834" fill-opacity="0.4"/>
<path d="M1090 3H1089V6H1090V3Z" fill="#3D3834" fill-opacity="0.4"/>
<path d="M1093 0H1092V6H1093V0Z" fill="#3D3834" fill-opacity="0.4"/>
<path d="M1096 3H1095V6H1096V3Z" fill="#3D3834" fill-opacity="0.4"/>
<path d="M1099 3H1098V6H1099V3Z" fill="#3D3834" fill-opacity="0.4"/>
<path d="M1102 3H1101V6H1102V3Z" fill="#3D3834" fill-opacity="0.4"/>
<path d="M1105 3H1104V6H1105V3Z" fill="#3D3834" fill-opacity="0.4"/>
<path d="M1108 0H1107V6H1108V0Z" fill="#3D3834" fill-opacity="0.4"/>
<path d="M1111 3H1110V6H1111V3Z" fill="#3D3834" fill-opacity="0.4"/>
<path d="M1114 3H1113V6H1114V3Z" fill="#3D3834" fill-opacity="0.4"/>
<path d="M1117 3H1116V6H1117V3Z" fill="#3D3834" fill-opacity="0.4"/>
<path d="M1120 3H1119V6H1120V3Z" fill="#3D3834" fill-opacity="0.4"/>
<path d="M1123 0H1122V6H1123V0Z" fill="#3D3834" fill-opacity="0.4"/>
<path d="M1126 3H1125V6H1126V3Z" fill="#3D3834" fill-opacity="0.4"/>
<path d="M1129 3H1128V6H1129V3Z" fill="#3D3834" fill-opacity="0.4"/>
<path d="M1132 3H1131V6H1132V3Z" fill="#3D3834" fill-opacity="0.4"/>
<path d="M1135 3H1134V6H1135V3Z" fill="#3D3834" fill-opacity="0.4"/>
<path d="M1138 0H1137V6H1138V0Z" fill="#3D3834" fill-opacity="0.4"/>
<path d="M1141 3H1140V6H1141V3Z" fill="#3D3834" fill-opacity="0.4"/>
<path d="M1144 3H1143V6H1144V3Z" fill="#3D3834" fill-opacity="0.4"/>
<path d="M1147 3H1146V6H1147V3Z" fill="#3D3834" fill-opacity="0.4"/>
<path d="M1150 3H1149V6H1150V3Z" fill="#3D3834" fill-opacity="0.4"/>
<path d="M1153 0H1152V6H1153V0Z" fill="#3D3834" fill-opacity="0.4"/>
<path d="M1156 3H1155V6H1156V3Z" fill="#3D3834" fill-opacity="0.4"/>
<path d="M1159 3H1158V6H1159V3Z" fill="#3D3834" fill-opacity="0.4"/>
<path d="M1162 3H1161V6H1162V3Z" fill="#3D3834" fill-opacity="0.4"/>
<path d="M1165 3H1164V6H1165V3Z" fill="#3D3834" fill-opacity="0.4"/>
<path d="M1168 0H1167V6H1168V0Z" fill="#3D3834" fill-opacity="0.4"/>
<path d="M1171 3H1170V6H1171V3Z" fill="#3D3834" fill-opacity="0.4"/>
<path d="M1174 3H1173V6H1174V3Z" fill="#3D3834" fill-opacity="0.4"/>
<path d="M1177 3H1176V6H1177V3Z" fill="#3D3834" fill-opacity="0.4"/>
<path d="M1180 3H1179V6H1180V3Z" fill="#3D3834" fill-opacity="0.4"/>
<path d="M1183 0H1182V6H1183V0Z" fill="#3D3834" fill-opacity="0.4"/>
<path d="M1186 3H1185V6H1186V3Z" fill="#3D3834" fill-opacity="0.4"/>
<path d="M1189 3H1188V6H1189V3Z" fill="#3D3834" fill-opacity="0.4"/>
<path d="M1192 3H1191V6H1192V3Z" fill="#3D3834" fill-opacity="0.4"/>
<path d="M1195 3H1194V6H1195V3Z" fill="#3D3834" fill-opacity="0.4"/>
<path d="M1198 0H1197V6H1198V0Z" fill="#3D3834" fill-opacity="0.4"/>
<path d="M1201 3H1200V6H1201V3Z" fill="#3D3834" fill-opacity="0.4"/>
<path d="M1204 3H1203V6H1204V3Z" fill="#3D3834" fill-opacity="0.4"/>
<path d="M1207 3H1206V6H1207V3Z" fill="#3D3834" fill-opacity="0.4"/>
<path d="M1210 3H1209V6H1210V3Z" fill="#3D3834" fill-opacity="0.4"/>
<path d="M1213 0H1212V6H1213V0Z" fill="#3D3834" fill-opacity="0.4"/>
<path d="M1216 3H1215V6H1216V3Z" fill="#3D3834" fill-opacity="0.4"/>
<path d="M1219 3H1218V6H1219V3Z" fill="#3D3834" fill-opacity="0.4"/>
<path d="M1222 3H1221V6H1222V3Z" fill="#3D3834" fill-opacity="0.4"/>
<path d="M1225 3H1224V6H1225V3Z" fill="#3D3834" fill-opacity="0.4"/>
<path d="M1228 0H1227V6H1228V0Z" fill="#3D3834" fill-opacity="0.4"/>
<path d="M1231 3H1230V6H1231V3Z" fill="#3D3834" fill-opacity="0.4"/>
<path d="M1234 3H1233V6H1234V3Z" fill="#3D3834" fill-opacity="0.4"/>
<path d="M1237 3H1236V6H1237V3Z" fill="#3D3834" fill-opacity="0.4"/>
<path d="M1240 3H1239V6H1240V3Z" fill="#3D3834" fill-opacity="0.4"/>
<path d="M1243 0H1242V6H1243V0Z" fill="#3D3834" fill-opacity="0.4"/>
<path d="M1246 3H1245V6H1246V3Z" fill="#3D3834" fill-opacity="0.4"/>
<path d="M1249 3H1248V6H1249V3Z" fill="#3D3834" fill-opacity="0.4"/>
<path d="M1252 3H1251V6H1252V3Z" fill="#3D3834" fill-opacity="0.4"/>
<path d="M1255 3H1254V6H1255V3Z" fill="#3D3834" fill-opacity="0.4"/>
<path d="M1258 0H1257V6H1258V0Z" fill="#3D3834" fill-opacity="0.4"/>
<path d="M1261 3H1260V6H1261V3Z" fill="#3D3834" fill-opacity="0.4"/>
<path d="M1264 3H1263V6H1264V3Z" fill="#3D3834" fill-opacity="0.4"/>
<path d="M1267 3H1266V6H1267V3Z" fill="#3D3834" fill-opacity="0.4"/>
<path d="M1270 3H1269V6H1270V3Z" fill="#3D3834" fill-opacity="0.4"/>
<path d="M1273 0H1272V6H1273V0Z" fill="#3D3834" fill-opacity="0.4"/>
<path d="M1276 3H1275V6H1276V3Z" fill="#3D3834" fill-opacity="0.4"/>
<path d="M1279 3H1278V6H1279V3Z" fill="#3D3834" fill-opacity="0.4"/>
<path d="M1282 3H1281V6H1282V3Z" fill="#3D3834" fill-opacity="0.4"/>
<path d="M1285 3H1284V6H1285V3Z" fill="#3D3834" fill-opacity="0.4"/>
<path d="M1288 0H1287V6H1288V0Z" fill="#3D3834" fill-opacity="0.4"/>
<path d="M1291 3H1290V6H1291V3Z" fill="#3D3834" fill-opacity="0.4"/>
<path d="M1294 3H1293V6H1294V3Z" fill="#3D3834" fill-opacity="0.4"/>
<path d="M1297 3H1296V6H1297V3Z" fill="#3D3834" fill-opacity="0.4"/>
<path d="M1300 3H1299V6H1300V3Z" fill="#3D3834" fill-opacity="0.4"/>
<path d="M1303 0H1302V6H1303V0Z" fill="#3D3834" fill-opacity="0.4"/>
<path d="M1306 3H1305V6H1306V3Z" fill="#3D3834" fill-opacity="0.4"/>
<path d="M1309 3H1308V6H1309V3Z" fill="#3D3834" fill-opacity="0.4"/>
<path d="M1312 3H1311V6H1312V3Z" fill="#3D3834" fill-opacity="0.4"/>
<path d="M1315 3H1314V6H1315V3Z" fill="#3D3834" fill-opacity="0.4"/>
<path d="M1318 0H1317V6H1318V0Z" fill="#3D3834" fill-opacity="0.4"/>
<path d="M1321 3H1320V6H1321V3Z" fill="#3D3834" fill-opacity="0.4"/>
<path d="M1324 3H1323V6H1324V3Z" fill="#3D3834" fill-opacity="0.4"/>
<path d="M1327 3H1326V6H1327V3Z" fill="#3D3834" fill-opacity="0.4"/>
<path d="M1330 3H1329V6H1330V3Z" fill="#3D3834" fill-opacity="0.4"/>
<path d="M1333 0H1332V6H1333V0Z" fill="#3D3834" fill-opacity="0.4"/>
<path d="M1336 3H1335V6H1336V3Z" fill="#3D3834" fill-opacity="0.4"/>
<path d="M1339 3H1338V6H1339V3Z" fill="#3D3834" fill-opacity="0.4"/>
<path d="M1342 3H1341V6H1342V3Z" fill="#3D3834" fill-opacity="0.4"/>
<path d="M1345 3H1344V6H1345V3Z" fill="#3D3834" fill-opacity="0.4"/>
<path d="M1348 0H1347V6H1348V0Z" fill="#3D3834" fill-opacity="0.4"/>
<path d="M1351 3H1350V6H1351V3Z" fill="#3D3834" fill-opacity="0.4"/>
<path d="M1354 3H1353V6H1354V3Z" fill="#3D3834" fill-opacity="0.4"/>
<path d="M1357 3H1356V6H1357V3Z" fill="#3D3834" fill-opacity="0.4"/>
<path d="M1360 3H1359V6H1360V3Z" fill="#3D3834" fill-opacity="0.4"/>
<path d="M1363 0H1362V6H1363V0Z" fill="#3D3834" fill-opacity="0.4"/>
<path d="M1366 3H1365V6H1366V3Z" fill="#3D3834" fill-opacity="0.4"/>
<path d="M1369 3H1368V6H1369V3Z" fill="#3D3834" fill-opacity="0.4"/>
<path d="M1372 3H1371V6H1372V3Z" fill="#3D3834" fill-opacity="0.4"/>
<path d="M1375 3H1374V6H1375V3Z" fill="#3D3834" fill-opacity="0.4"/>
<path d="M1378 0H1377V6H1378V0Z" fill="#3D3834" fill-opacity="0.4"/>
<path d="M1381 3H1380V6H1381V3Z" fill="#3D3834" fill-opacity="0.4"/>
<path d="M1384 3H1383V6H1384V3Z" fill="#3D3834" fill-opacity="0.4"/>
<path d="M1387 3H1386V6H1387V3Z" fill="#3D3834" fill-opacity="0.4"/>
<path d="M1390 3H1389V6H1390V3Z" fill="#3D3834" fill-opacity="0.4"/>
<path d="M1393 0H1392V6H1393V0Z" fill="#3D3834" fill-opacity="0.4"/>
<path d="M1396 3H1395V6H1396V3Z" fill="#3D3834" fill-opacity="0.4"/>
<path d="M1399 3H1398V6H1399V3Z" fill="#3D3834" fill-opacity="0.4"/>
<path d="M1402 3H1401V6H1402V3Z" fill="#3D3834" fill-opacity="0.4"/>
<path d="M1405 3H1404V6H1405V3Z" fill="#3D3834" fill-opacity="0.4"/>
<path d="M1408 0H1407V6H1408V0Z" fill="#3D3834" fill-opacity="0.4"/>
<path d="M1411 3H1410V6H1411V3Z" fill="#3D3834" fill-opacity="0.4"/>
<path d="M1414 3H1413V6H1414V3Z" fill="#3D3834" fill-opacity="0.4"/>
<path d="M1417 3H1416V6H1417V3Z" fill="#3D3834" fill-opacity="0.4"/>
<path d="M1420 3H1419V6H1420V3Z" fill="#3D3834" fill-opacity="0.4"/>
<path d="M1423 0H1422V6H1423V0Z" fill="#3D3834" fill-opacity="0.4"/>
<path d="M1426 3H1425V6H1426V3Z" fill="#3D3834" fill-opacity="0.4"/>
<path d="M1429 3H1428V6H1429V3Z" fill="#3D3834" fill-opacity="0.4"/>
<path d="M1432 3H1431V6H1432V3Z" fill="#3D3834" fill-opacity="0.4"/>
<path d="M1435 3H1434V6H1435V3Z" fill="#3D3834" fill-opacity="0.4"/>
<path d="M1438 0H1437V6H1438V0Z" fill="#3D3834" fill-opacity="0.4"/>
<path d="M1441 3H1440V6H1441V3Z" fill="#3D3834" fill-opacity="0.4"/>
<path d="M1444 3H1443V6H1444V3Z" fill="#3D3834" fill-opacity="0.4"/>
<path d="M1447 3H1446V6H1447V3Z" fill="#3D3834" fill-opacity="0.4"/>
<path d="M1450 3H1449V6H1450V3Z" fill="#3D3834" fill-opacity="0.4"/>
<path d="M1453 0H1452V6H1453V0Z" fill="#3D3834" fill-opacity="0.4"/>
<path d="M1456 3H1455V6H1456V3Z" fill="#3D3834" fill-opacity="0.4"/>
<path d="M1459 3H1458V6H1459V3Z" fill="#3D3834" fill-opacity="0.4"/>
<path d="M1462 3H1461V6H1462V3Z" fill="#3D3834" fill-opacity="0.4"/>
<path d="M1465 3H1464V6H1465V3Z" fill="#3D3834" fill-opacity="0.4"/>
<path d="M1468 0H1467V6H1468V0Z" fill="#3D3834" fill-opacity="0.4"/>
<path d="M1471 3H1470V6H1471V3Z" fill="#3D3834" fill-opacity="0.4"/>
<path d="M1474 3H1473V6H1474V3Z" fill="#3D3834" fill-opacity="0.4"/>
<path d="M1477 3H1476V6H1477V3Z" fill="#3D3834" fill-opacity="0.4"/>
<path d="M1480 3H1479V6H1480V3Z" fill="#3D3834" fill-opacity="0.4"/>
<path d="M1483 0H1482V6H1483V0Z" fill="#3D3834" fill-opacity="0.4"/>
<path d="M1486 3H1485V6H1486V3Z" fill="#3D3834" fill-opacity="0.4"/>
<path d="M1489 3H1488V6H1489V3Z" fill="#3D3834" fill-opacity="0.4"/>
<path d="M1492 3H1491V6H1492V3Z" fill="#3D3834" fill-opacity="0.4"/>
<path d="M1495 3H1494V6H1495V3Z" fill="#3D3834" fill-opacity="0.4"/>
<path d="M1498 0H1497V6H1498V0Z" fill="#3D3834" fill-opacity="0.4"/>
<path d="M1501 3H1500V6H1501V3Z" fill="#3D3834" fill-opacity="0.4"/>
<path d="M1504 3H1503V6H1504V3Z" fill="#3D3834" fill-opacity="0.4"/>
<path d="M1507 3H1506V6H1507V3Z" fill="#3D3834" fill-opacity="0.4"/>
<path d="M1510 3H1509V6H1510V3Z" fill="#3D3834" fill-opacity="0.4"/>
<path d="M1513 0H1512V6H1513V0Z" fill="#3D3834" fill-opacity="0.4"/>
<path d="M1516 3H1515V6H1516V3Z" fill="#3D3834" fill-opacity="0.4"/>
<path d="M1519 3H1518V6H1519V3Z" fill="#3D3834" fill-opacity="0.4"/>
<path d="M1522 3H1521V6H1522V3Z" fill="#3D3834" fill-opacity="0.4"/>
<path d="M1525 3H1524V6H1525V3Z" fill="#3D3834" fill-opacity="0.4"/>
<path d="M1528 0H1527V6H1528V0Z" fill="#3D3834" fill-opacity="0.4"/>
<path d="M1531 3H1530V6H1531V3Z" fill="#3D3834" fill-opacity="0.4"/>
<path d="M1534 3H1533V6H1534V3Z" fill="#3D3834" fill-opacity="0.4"/>
<path d="M1537 3H1536V6H1537V3Z" fill="#3D3834" fill-opacity="0.4"/>
<path d="M1540 3H1539V6H1540V3Z" fill="#3D3834" fill-opacity="0.4"/>
<path d="M1543 0H1542V6H1543V0Z" fill="#3D3834" fill-opacity="0.4"/>
<path d="M1546 3H1545V6H1546V3Z" fill="#3D3834" fill-opacity="0.4"/>
<path d="M1549 3H1548V6H1549V3Z" fill="#3D3834" fill-opacity="0.4"/>
<path d="M1552 3H1551V6H1552V3Z" fill="#3D3834" fill-opacity="0.4"/>
<path d="M1555 3H1554V6H1555V3Z" fill="#3D3834" fill-opacity="0.4"/>
<path d="M1558 0H1557V6H1558V0Z" fill="#3D3834" fill-opacity="0.4"/>
<path d="M1561 3H1560V6H1561V3Z" fill="#3D3834" fill-opacity="0.4"/>
<path d="M1564 3H1563V6H1564V3Z" fill="#3D3834" fill-opacity="0.4"/>
<path d="M1567 3H1566V6H1567V3Z" fill="#3D3834" fill-opacity="0.4"/>
<path d="M1570 3H1569V6H1570V3Z" fill="#3D3834" fill-opacity="0.4"/>
<path d="M1573 0H1572V6H1573V0Z" fill="#3D3834" fill-opacity="0.4"/>
<path d="M1576 3H1575V6H1576V3Z" fill="#3D3834" fill-opacity="0.4"/>
<path d="M1579 3H1578V6H1579V3Z" fill="#3D3834" fill-opacity="0.4"/>
<path d="M1582 3H1581V6H1582V3Z" fill="#3D3834" fill-opacity="0.4"/>
<path d="M1585 3H1584V6H1585V3Z" fill="#3D3834" fill-opacity="0.4"/>
<path d="M1588 0H1587V6H1588V0Z" fill="#3D3834" fill-opacity="0.4"/>
<path d="M1591 3H1590V6H1591V3Z" fill="#3D3834" fill-opacity="0.4"/>
<path d="M1594 3H1593V6H1594V3Z" fill="#3D3834" fill-opacity="0.4"/>
<path d="M1597 3H1596V6H1597V3Z" fill="#3D3834" fill-opacity="0.4"/>
<path d="M1600 3H1599V6H1600V3Z" fill="#3D3834" fill-opacity="0.4"/>
<path d="M1603 0H1602V6H1603V0Z" fill="#3D3834" fill-opacity="0.4"/>
<path d="M1606 3H1605V6H1606V3Z" fill="#3D3834" fill-opacity="0.4"/>
<path d="M1609 3H1608V6H1609V3Z" fill="#3D3834" fill-opacity="0.4"/>
<path d="M1612 3H1611V6H1612V3Z" fill="#3D3834" fill-opacity="0.4"/>
<path d="M1615 3H1614V6H1615V3Z" fill="#3D3834" fill-opacity="0.4"/>
<path d="M1618 0H1617V6H1618V0Z" fill="#3D3834" fill-opacity="0.4"/>
<path d="M1621 3H1620V6H1621V3Z" fill="#3D3834" fill-opacity="0.4"/>
<path d="M1624 3H1623V6H1624V3Z" fill="#3D3834" fill-opacity="0.4"/>
<path d="M1627 3H1626V6H1627V3Z" fill="#3D3834" fill-opacity="0.4"/>
<path d="M1630 3H1629V6H1630V3Z" fill="#3D3834" fill-opacity="0.4"/>
<path d="M1633 0H1632V6H1633V0Z" fill="#3D3834" fill-opacity="0.4"/>
<path d="M1636 3H1635V6H1636V3Z" fill="#3D3834" fill-opacity="0.4"/>
<path d="M1639 3H1638V6H1639V3Z" fill="#3D3834" fill-opacity="0.4"/>
<path d="M1642 3H1641V6H1642V3Z" fill="#3D3834" fill-opacity="0.4"/>
<path d="M1645 3H1644V6H1645V3Z" fill="#3D3834" fill-opacity="0.4"/>
<path d="M1648 0H1647V6H1648V0Z" fill="#3D3834" fill-opacity="0.4"/>
<path d="M1651 3H1650V6H1651V3Z" fill="#3D3834" fill-opacity="0.4"/>
<path d="M1654 3H1653V6H1654V3Z" fill="#3D3834" fill-opacity="0.4"/>
<path d="M1657 3H1656V6H1657V3Z" fill="#3D3834" fill-opacity="0.4"/>
<path d="M1660 3H1659V6H1660V3Z" fill="#3D3834" fill-opacity="0.4"/>
<path d="M1663 0H1662V6H1663V0Z" fill="#3D3834" fill-opacity="0.4"/>
<path d="M1666 3H1665V6H1666V3Z" fill="#3D3834" fill-opacity="0.4"/>
<path d="M1669 3H1668V6H1669V3Z" fill="#3D3834" fill-opacity="0.4"/>
<path d="M1672 3H1671V6H1672V3Z" fill="#3D3834" fill-opacity="0.4"/>
<path d="M1675 3H1674V6H1675V3Z" fill="#3D3834" fill-opacity="0.4"/>
<path d="M1678 0H1677V6H1678V0Z" fill="#3D3834" fill-opacity="0.4"/>
<path d="M1681 3H1680V6H1681V3Z" fill="#3D3834" fill-opacity="0.4"/>
<path d="M1684 3H1683V6H1684V3Z" fill="#3D3834" fill-opacity="0.4"/>
<path d="M1687 3H1686V6H1687V3Z" fill="#3D3834" fill-opacity="0.4"/>
<path d="M1690 3H1689V6H1690V3Z" fill="#3D3834" fill-opacity="0.4"/>
<path d="M1693 0H1692V6H1693V0Z" fill="#3D3834" fill-opacity="0.4"/>
<path d="M1696 3H1695V6H1696V3Z" fill="#3D3834" fill-opacity="0.4"/>
<path d="M1699 3H1698V6H1699V3Z" fill="#3D3834" fill-opacity="0.4"/>
<path d="M1702 3H1701V6H1702V3Z" fill="#3D3834" fill-opacity="0.4"/>
<path d="M1705 3H1704V6H1705V3Z" fill="#3D3834" fill-opacity="0.4"/>
<path d="M1708 0H1707V6H1708V0Z" fill="#3D3834" fill-opacity="0.4"/>
<path d="M1711 3H1710V6H1711V3Z" fill="#3D3834" fill-opacity="0.4"/>
<path d="M1714 3H1713V6H1714V3Z" fill="#3D3834" fill-opacity="0.4"/>
<path d="M1717 3H1716V6H1717V3Z" fill="#3D3834" fill-opacity="0.4"/>
<path d="M1720 3H1719V6H1720V3Z" fill="#3D3834" fill-opacity="0.4"/>
<path d="M1723 0H1722V6H1723V0Z" fill="#3D3834" fill-opacity="0.4"/>
<path d="M1726 3H1725V6H1726V3Z" fill="#3D3834" fill-opacity="0.4"/>
<path d="M1729 3H1728V6H1729V3Z" fill="#3D3834" fill-opacity="0.4"/>
<path d="M1732 3H1731V6H1732V3Z" fill="#3D3834" fill-opacity="0.4"/>
<path d="M1735 3H1734V6H1735V3Z" fill="#3D3834" fill-opacity="0.4"/>
<path d="M1738 0H1737V6H1738V0Z" fill="#3D3834" fill-opacity="0.4"/>
<path d="M1741 3H1740V6H1741V3Z" fill="#3D3834" fill-opacity="0.4"/>
<path d="M1744 3H1743V6H1744V3Z" fill="#3D3834" fill-opacity="0.4"/>
<path d="M1747 3H1746V6H1747V3Z" fill="#3D3834" fill-opacity="0.4"/>
<path d="M1750 3H1749V6H1750V3Z" fill="#3D3834" fill-opacity="0.4"/>
<path d="M1753 0H1752V6H1753V0Z" fill="#3D3834" fill-opacity="0.4"/>
<path d="M1756 3H1755V6H1756V3Z" fill="#3D3834" fill-opacity="0.4"/>
<path d="M1759 3H1758V6H1759V3Z" fill="#3D3834" fill-opacity="0.4"/>
<path d="M1762 3H1761V6H1762V3Z" fill="#3D3834" fill-opacity="0.4"/>
<path d="M1765 3H1764V6H1765V3Z" fill="#3D3834" fill-opacity="0.4"/>
<path d="M1768 0H1767V6H1768V0Z" fill="#3D3834" fill-opacity="0.4"/>
<path d="M1771 3H1770V6H1771V3Z" fill="#3D3834" fill-opacity="0.4"/>
<path d="M1774 3H1773V6H1774V3Z" fill="#3D3834" fill-opacity="0.4"/>
<path d="M1777 3H1776V6H1777V3Z" fill="#3D3834" fill-opacity="0.4"/>
<path d="M1780 3H1779V6H1780V3Z" fill="#3D3834" fill-opacity="0.4"/>
<path d="M1783 0H1782V6H1783V0Z" fill="#3D3834" fill-opacity="0.4"/>
<path d="M1786 3H1785V6H1786V3Z" fill="#3D3834" fill-opacity="0.4"/>
<path d="M1789 3H1788V6H1789V3Z" fill="#3D3834" fill-opacity="0.4"/>
<path d="M1792 3H1791V6H1792V3Z" fill="#3D3834" fill-opacity="0.4"/>
<path d="M1795 3H1794V6H1795V3Z" fill="#3D3834" fill-opacity="0.4"/>
<path d="M1798 0H1797V6H1798V0Z" fill="#3D3834" fill-opacity="0.4"/>
<path d="M1801 3H1800V6H1801V3Z" fill="#3D3834" fill-opacity="0.4"/>
<path d="M1804 3H1803V6H1804V3Z" fill="#3D3834" fill-opacity="0.4"/>
<path d="M1807 3H1806V6H1807V3Z" fill="#3D3834" fill-opacity="0.4"/>
<path d="M1810 3H1809V6H1810V3Z" fill="#3D3834" fill-opacity="0.4"/>
<path d="M1813 0H1812V6H1813V0Z" fill="#3D3834" fill-opacity="0.4"/>
<path d="M1816 3H1815V6H1816V3Z" fill="#3D3834" fill-opacity="0.4"/>
<path d="M1819 3H1818V6H1819V3Z" fill="#3D3834" fill-opacity="0.4"/>
<path d="M1822 3H1821V6H1822V3Z" fill="#3D3834" fill-opacity="0.4"/>
<path d="M1825 3H1824V6H1825V3Z" fill="#3D3834" fill-opacity="0.4"/>
<path d="M1828 0H1827V6H1828V0Z" fill="#3D3834" fill-opacity="0.4"/>
<path d="M1831 3H1830V6H1831V3Z" fill="#3D3834" fill-opacity="0.4"/>
<path d="M1834 3H1833V6H1834V3Z" fill="#3D3834" fill-opacity="0.4"/>
<path d="M1837 3H1836V6H1837V3Z" fill="#3D3834" fill-opacity="0.4"/>
<path d="M1840 3H1839V6H1840V3Z" fill="#3D3834" fill-opacity="0.4"/>
<path d="M1843 0H1842V6H1843V0Z" fill="#3D3834" fill-opacity="0.4"/>
<path d="M1846 3H1845V6H1846V3Z" fill="#3D3834" fill-opacity="0.4"/>
<path d="M1849 3H1848V6H1849V3Z" fill="#3D3834" fill-opacity="0.4"/>
<path d="M1852 3H1851V6H1852V3Z" fill="#3D3834" fill-opacity="0.4"/>
<path d="M1855 3H1854V6H1855V3Z" fill="#3D3834" fill-opacity="0.4"/>
<path d="M1858 0H1857V6H1858V0Z" fill="#3D3834" fill-opacity="0.4"/>
<path d="M1861 3H1860V6H1861V3Z" fill="#3D3834" fill-opacity="0.4"/>
<path d="M1864 3H1863V6H1864V3Z" fill="#3D3834" fill-opacity="0.4"/>
<path d="M1867 3H1866V6H1867V3Z" fill="#3D3834" fill-opacity="0.4"/>
<path d="M1870 3H1869V6H1870V3Z" fill="#3D3834" fill-opacity="0.4"/>
<path d="M1873 0H1872V6H1873V0Z" fill="#3D3834" fill-opacity="0.4"/>
<path d="M1876 3H1875V6H1876V3Z" fill="#3D3834" fill-opacity="0.4"/>
<path d="M1879 3H1878V6H1879V3Z" fill="#3D3834" fill-opacity="0.4"/>
<path d="M1882 3H1881V6H1882V3Z" fill="#3D3834" fill-opacity="0.4"/>
<path d="M1885 3H1884V6H1885V3Z" fill="#3D3834" fill-opacity="0.4"/>
<path d="M1888 0H1887V6H1888V0Z" fill="#3D3834" fill-opacity="0.4"/>
<path d="M1891 3H1890V6H1891V3Z" fill="#3D3834" fill-opacity="0.4"/>
<path d="M1894 3H1893V6H1894V3Z" fill="#3D3834" fill-opacity="0.4"/>
<path d="M1897 3H1896V6H1897V3Z" fill="#3D3834" fill-opacity="0.4"/>
<path d="M1900 3H1899V6H1900V3Z" fill="#3D3834" fill-opacity="0.4"/>
<path d="M1903 0H1902V6H1903V0Z" fill="#3D3834" fill-opacity="0.4"/>
<path d="M1906 3H1905V6H1906V3Z" fill="#3D3834" fill-opacity="0.4"/>
<path d="M1909 3H1908V6H1909V3Z" fill="#3D3834" fill-opacity="0.4"/>
<path d="M1912 3H1911V6H1912V3Z" fill="#3D3834" fill-opacity="0.4"/>
<path d="M1915 3H1914V6H1915V3Z" fill="#3D3834" fill-opacity="0.4"/>
<path d="M1918 0H1917V6H1918V0Z" fill="#3D3834" fill-opacity="0.4"/>
</svg>
