<svg width="1918" height="6" viewBox="0 0 1918 6" fill="none" xmlns="http://www.w3.org/2000/svg">
<path d="M1 2H0V5H1V2Z" fill="#D8CDB9"/>
<path d="M4 2H3V5H4V2Z" fill="#D8CDB9"/>
<path d="M7 2H6V5H7V2Z" fill="#D8CDB9"/>
<path d="M10 2H9V5H10V2Z" fill="#D8CDB9"/>
<path d="M13 0H12V6H13V0Z" fill="#D8CDB9"/>
<path d="M16 2H15V5H16V2Z" fill="#D8CDB9"/>
<path d="M19 2H18V5H19V2Z" fill="#D8CDB9"/>
<path d="M22 2H21V5H22V2Z" fill="#D8CDB9"/>
<path d="M25 2H24V5H25V2Z" fill="#D8CDB9"/>
<path d="M28 0H27V6H28V0Z" fill="#D8CDB9"/>
<path d="M31 2H30V5H31V2Z" fill="#D8CDB9"/>
<path d="M34 2H33V5H34V2Z" fill="#D8CDB9"/>
<path d="M37 2H36V5H37V2Z" fill="#D8CDB9"/>
<path d="M40 2H39V5H40V2Z" fill="#D8CDB9"/>
<path d="M43 0H42V6H43V0Z" fill="#D8CDB9"/>
<path d="M46 2H45V5H46V2Z" fill="#D8CDB9"/>
<path d="M49 2H48V5H49V2Z" fill="#D8CDB9"/>
<path d="M52 2H51V5H52V2Z" fill="#D8CDB9"/>
<path d="M55 2H54V5H55V2Z" fill="#D8CDB9"/>
<path d="M58 0H57V6H58V0Z" fill="#D8CDB9"/>
<path d="M61 2H60V5H61V2Z" fill="#D8CDB9"/>
<path d="M64 2H63V5H64V2Z" fill="#D8CDB9"/>
<path d="M67 2H66V5H67V2Z" fill="#D8CDB9"/>
<path d="M70 2H69V5H70V2Z" fill="#D8CDB9"/>
<path d="M73 0H72V6H73V0Z" fill="#D8CDB9"/>
<path d="M76 2H75V5H76V2Z" fill="#D8CDB9"/>
<path d="M79 2H78V5H79V2Z" fill="#D8CDB9"/>
<path d="M82 2H81V5H82V2Z" fill="#D8CDB9"/>
<path d="M85 2H84V5H85V2Z" fill="#D8CDB9"/>
<path d="M88 0H87V6H88V0Z" fill="#D8CDB9"/>
<path d="M91 2H90V5H91V2Z" fill="#D8CDB9"/>
<path d="M94 2H93V5H94V2Z" fill="#D8CDB9"/>
<path d="M97 2H96V5H97V2Z" fill="#D8CDB9"/>
<path d="M100 2H99V5H100V2Z" fill="#D8CDB9"/>
<path d="M103 0H102V6H103V0Z" fill="#D8CDB9"/>
<path d="M106 2H105V5H106V2Z" fill="#D8CDB9"/>
<path d="M109 2H108V5H109V2Z" fill="#D8CDB9"/>
<path d="M112 2H111V5H112V2Z" fill="#D8CDB9"/>
<path d="M115 2H114V5H115V2Z" fill="#D8CDB9"/>
<path d="M118 0H117V6H118V0Z" fill="#D8CDB9"/>
<path d="M121 2H120V5H121V2Z" fill="#D8CDB9"/>
<path d="M124 2H123V5H124V2Z" fill="#D8CDB9"/>
<path d="M127 2H126V5H127V2Z" fill="#D8CDB9"/>
<path d="M130 2H129V5H130V2Z" fill="#D8CDB9"/>
<path d="M133 0H132V6H133V0Z" fill="#D8CDB9"/>
<path d="M136 2H135V5H136V2Z" fill="#D8CDB9"/>
<path d="M139 2H138V5H139V2Z" fill="#D8CDB9"/>
<path d="M142 2H141V5H142V2Z" fill="#D8CDB9"/>
<path d="M145 2H144V5H145V2Z" fill="#D8CDB9"/>
<path d="M148 0H147V6H148V0Z" fill="#D8CDB9"/>
<path d="M151 2H150V5H151V2Z" fill="#D8CDB9"/>
<path d="M154 2H153V5H154V2Z" fill="#D8CDB9"/>
<path d="M157 2H156V5H157V2Z" fill="#D8CDB9"/>
<path d="M160 2H159V5H160V2Z" fill="#D8CDB9"/>
<path d="M163 0H162V6H163V0Z" fill="#D8CDB9"/>
<path d="M166 2H165V5H166V2Z" fill="#D8CDB9"/>
<path d="M169 2H168V5H169V2Z" fill="#D8CDB9"/>
<path d="M172 2H171V5H172V2Z" fill="#D8CDB9"/>
<path d="M175 2H174V5H175V2Z" fill="#D8CDB9"/>
<path d="M178 0H177V6H178V0Z" fill="#D8CDB9"/>
<path d="M181 2H180V5H181V2Z" fill="#D8CDB9"/>
<path d="M184 2H183V5H184V2Z" fill="#D8CDB9"/>
<path d="M187 2H186V5H187V2Z" fill="#D8CDB9"/>
<path d="M190 2H189V5H190V2Z" fill="#D8CDB9"/>
<path d="M193 0H192V6H193V0Z" fill="#D8CDB9"/>
<path d="M196 2H195V5H196V2Z" fill="#D8CDB9"/>
<path d="M199 2H198V5H199V2Z" fill="#D8CDB9"/>
<path d="M202 2H201V5H202V2Z" fill="#D8CDB9"/>
<path d="M205 2H204V5H205V2Z" fill="#D8CDB9"/>
<path d="M208 0H207V6H208V0Z" fill="#D8CDB9"/>
<path d="M211 2H210V5H211V2Z" fill="#D8CDB9"/>
<path d="M214 2H213V5H214V2Z" fill="#D8CDB9"/>
<path d="M217 2H216V5H217V2Z" fill="#D8CDB9"/>
<path d="M220 2H219V5H220V2Z" fill="#D8CDB9"/>
<path d="M223 0H222V6H223V0Z" fill="#D8CDB9"/>
<path d="M226 2H225V5H226V2Z" fill="#D8CDB9"/>
<path d="M229 2H228V5H229V2Z" fill="#D8CDB9"/>
<path d="M232 2H231V5H232V2Z" fill="#D8CDB9"/>
<path d="M235 2H234V5H235V2Z" fill="#D8CDB9"/>
<path d="M238 0H237V6H238V0Z" fill="#D8CDB9"/>
<path d="M241 2H240V5H241V2Z" fill="#D8CDB9"/>
<path d="M244 2H243V5H244V2Z" fill="#D8CDB9"/>
<path d="M247 2H246V5H247V2Z" fill="#D8CDB9"/>
<path d="M250 2H249V5H250V2Z" fill="#D8CDB9"/>
<path d="M253 0H252V6H253V0Z" fill="#D8CDB9"/>
<path d="M256 2H255V5H256V2Z" fill="#D8CDB9"/>
<path d="M259 2H258V5H259V2Z" fill="#D8CDB9"/>
<path d="M262 2H261V5H262V2Z" fill="#D8CDB9"/>
<path d="M265 2H264V5H265V2Z" fill="#D8CDB9"/>
<path d="M268 0H267V6H268V0Z" fill="#D8CDB9"/>
<path d="M271 2H270V5H271V2Z" fill="#D8CDB9"/>
<path d="M274 2H273V5H274V2Z" fill="#D8CDB9"/>
<path d="M277 2H276V5H277V2Z" fill="#D8CDB9"/>
<path d="M280 2H279V5H280V2Z" fill="#D8CDB9"/>
<path d="M283 0H282V6H283V0Z" fill="#D8CDB9"/>
<path d="M286 2H285V5H286V2Z" fill="#D8CDB9"/>
<path d="M289 2H288V5H289V2Z" fill="#D8CDB9"/>
<path d="M292 2H291V5H292V2Z" fill="#D8CDB9"/>
<path d="M295 2H294V5H295V2Z" fill="#D8CDB9"/>
<path d="M298 0H297V6H298V0Z" fill="#D8CDB9"/>
<path d="M301 2H300V5H301V2Z" fill="#D8CDB9"/>
<path d="M304 2H303V5H304V2Z" fill="#D8CDB9"/>
<path d="M307 2H306V5H307V2Z" fill="#D8CDB9"/>
<path d="M310 2H309V5H310V2Z" fill="#D8CDB9"/>
<path d="M313 0H312V6H313V0Z" fill="#D8CDB9"/>
<path d="M316 2H315V5H316V2Z" fill="#D8CDB9"/>
<path d="M319 2H318V5H319V2Z" fill="#D8CDB9"/>
<path d="M322 2H321V5H322V2Z" fill="#D8CDB9"/>
<path d="M325 2H324V5H325V2Z" fill="#D8CDB9"/>
<path d="M328 0H327V6H328V0Z" fill="#D8CDB9"/>
<path d="M331 2H330V5H331V2Z" fill="#D8CDB9"/>
<path d="M334 2H333V5H334V2Z" fill="#D8CDB9"/>
<path d="M337 2H336V5H337V2Z" fill="#D8CDB9"/>
<path d="M340 2H339V5H340V2Z" fill="#D8CDB9"/>
<path d="M343 0H342V6H343V0Z" fill="#D8CDB9"/>
<path d="M346 2H345V5H346V2Z" fill="#D8CDB9"/>
<path d="M349 2H348V5H349V2Z" fill="#D8CDB9"/>
<path d="M352 2H351V5H352V2Z" fill="#D8CDB9"/>
<path d="M355 2H354V5H355V2Z" fill="#D8CDB9"/>
<path d="M358 0H357V6H358V0Z" fill="#D8CDB9"/>
<path d="M361 2H360V5H361V2Z" fill="#D8CDB9"/>
<path d="M364 2H363V5H364V2Z" fill="#D8CDB9"/>
<path d="M367 2H366V5H367V2Z" fill="#D8CDB9"/>
<path d="M370 2H369V5H370V2Z" fill="#D8CDB9"/>
<path d="M373 0H372V6H373V0Z" fill="#D8CDB9"/>
<path d="M376 2H375V5H376V2Z" fill="#D8CDB9"/>
<path d="M379 2H378V5H379V2Z" fill="#D8CDB9"/>
<path d="M382 2H381V5H382V2Z" fill="#D8CDB9"/>
<path d="M385 2H384V5H385V2Z" fill="#D8CDB9"/>
<path d="M388 0H387V6H388V0Z" fill="#D8CDB9"/>
<path d="M391 2H390V5H391V2Z" fill="#D8CDB9"/>
<path d="M394 2H393V5H394V2Z" fill="#D8CDB9"/>
<path d="M397 2H396V5H397V2Z" fill="#D8CDB9"/>
<path d="M400 2H399V5H400V2Z" fill="#D8CDB9"/>
<path d="M403 0H402V6H403V0Z" fill="#D8CDB9"/>
<path d="M406 2H405V5H406V2Z" fill="#D8CDB9"/>
<path d="M409 2H408V5H409V2Z" fill="#D8CDB9"/>
<path d="M412 2H411V5H412V2Z" fill="#D8CDB9"/>
<path d="M415 2H414V5H415V2Z" fill="#D8CDB9"/>
<path d="M418 0H417V6H418V0Z" fill="#D8CDB9"/>
<path d="M421 2H420V5H421V2Z" fill="#D8CDB9"/>
<path d="M424 2H423V5H424V2Z" fill="#D8CDB9"/>
<path d="M427 2H426V5H427V2Z" fill="#D8CDB9"/>
<path d="M430 2H429V5H430V2Z" fill="#D8CDB9"/>
<path d="M433 0H432V6H433V0Z" fill="#D8CDB9"/>
<path d="M436 2H435V5H436V2Z" fill="#D8CDB9"/>
<path d="M439 2H438V5H439V2Z" fill="#D8CDB9"/>
<path d="M442 2H441V5H442V2Z" fill="#D8CDB9"/>
<path d="M445 2H444V5H445V2Z" fill="#D8CDB9"/>
<path d="M448 0H447V6H448V0Z" fill="#D8CDB9"/>
<path d="M451 2H450V5H451V2Z" fill="#D8CDB9"/>
<path d="M454 2H453V5H454V2Z" fill="#D8CDB9"/>
<path d="M457 2H456V5H457V2Z" fill="#D8CDB9"/>
<path d="M460 2H459V5H460V2Z" fill="#D8CDB9"/>
<path d="M463 0H462V6H463V0Z" fill="#D8CDB9"/>
<path d="M466 2H465V5H466V2Z" fill="#D8CDB9"/>
<path d="M469 2H468V5H469V2Z" fill="#D8CDB9"/>
<path d="M472 2H471V5H472V2Z" fill="#D8CDB9"/>
<path d="M475 2H474V5H475V2Z" fill="#D8CDB9"/>
<path d="M478 0H477V6H478V0Z" fill="#D8CDB9"/>
<path d="M481 2H480V5H481V2Z" fill="#D8CDB9"/>
<path d="M484 2H483V5H484V2Z" fill="#D8CDB9"/>
<path d="M487 2H486V5H487V2Z" fill="#D8CDB9"/>
<path d="M490 2H489V5H490V2Z" fill="#D8CDB9"/>
<path d="M493 0H492V6H493V0Z" fill="#D8CDB9"/>
<path d="M496 2H495V5H496V2Z" fill="#D8CDB9"/>
<path d="M499 2H498V5H499V2Z" fill="#D8CDB9"/>
<path d="M502 2H501V5H502V2Z" fill="#D8CDB9"/>
<path d="M505 2H504V5H505V2Z" fill="#D8CDB9"/>
<path d="M508 0H507V6H508V0Z" fill="#D8CDB9"/>
<path d="M511 2H510V5H511V2Z" fill="#D8CDB9"/>
<path d="M514 2H513V5H514V2Z" fill="#D8CDB9"/>
<path d="M517 2H516V5H517V2Z" fill="#D8CDB9"/>
<path d="M520 2H519V5H520V2Z" fill="#D8CDB9"/>
<path d="M523 0H522V6H523V0Z" fill="#D8CDB9"/>
<path d="M526 2H525V5H526V2Z" fill="#D8CDB9"/>
<path d="M529 2H528V5H529V2Z" fill="#D8CDB9"/>
<path d="M532 2H531V5H532V2Z" fill="#D8CDB9"/>
<path d="M535 2H534V5H535V2Z" fill="#D8CDB9"/>
<path d="M538 0H537V6H538V0Z" fill="#D8CDB9"/>
<path d="M541 2H540V5H541V2Z" fill="#D8CDB9"/>
<path d="M544 2H543V5H544V2Z" fill="#D8CDB9"/>
<path d="M547 2H546V5H547V2Z" fill="#D8CDB9"/>
<path d="M550 2H549V5H550V2Z" fill="#D8CDB9"/>
<path d="M553 0H552V6H553V0Z" fill="#D8CDB9"/>
<path d="M556 2H555V5H556V2Z" fill="#D8CDB9"/>
<path d="M559 2H558V5H559V2Z" fill="#D8CDB9"/>
<path d="M562 2H561V5H562V2Z" fill="#D8CDB9"/>
<path d="M565 2H564V5H565V2Z" fill="#D8CDB9"/>
<path d="M568 0H567V6H568V0Z" fill="#D8CDB9"/>
<path d="M571 2H570V5H571V2Z" fill="#D8CDB9"/>
<path d="M574 2H573V5H574V2Z" fill="#D8CDB9"/>
<path d="M577 2H576V5H577V2Z" fill="#D8CDB9"/>
<path d="M580 2H579V5H580V2Z" fill="#D8CDB9"/>
<path d="M583 0H582V6H583V0Z" fill="#D8CDB9"/>
<path d="M586 2H585V5H586V2Z" fill="#D8CDB9"/>
<path d="M589 2H588V5H589V2Z" fill="#D8CDB9"/>
<path d="M592 2H591V5H592V2Z" fill="#D8CDB9"/>
<path d="M595 2H594V5H595V2Z" fill="#D8CDB9"/>
<path d="M598 0H597V6H598V0Z" fill="#D8CDB9"/>
<path d="M601 2H600V5H601V2Z" fill="#D8CDB9"/>
<path d="M604 2H603V5H604V2Z" fill="#D8CDB9"/>
<path d="M607 2H606V5H607V2Z" fill="#D8CDB9"/>
<path d="M610 2H609V5H610V2Z" fill="#D8CDB9"/>
<path d="M613 0H612V6H613V0Z" fill="#D8CDB9"/>
<path d="M616 2H615V5H616V2Z" fill="#D8CDB9"/>
<path d="M619 2H618V5H619V2Z" fill="#D8CDB9"/>
<path d="M622 2H621V5H622V2Z" fill="#D8CDB9"/>
<path d="M625 2H624V5H625V2Z" fill="#D8CDB9"/>
<path d="M628 0H627V6H628V0Z" fill="#D8CDB9"/>
<path d="M631 2H630V5H631V2Z" fill="#D8CDB9"/>
<path d="M634 2H633V5H634V2Z" fill="#D8CDB9"/>
<path d="M637 2H636V5H637V2Z" fill="#D8CDB9"/>
<path d="M640 2H639V5H640V2Z" fill="#D8CDB9"/>
<path d="M643 0H642V6H643V0Z" fill="#D8CDB9"/>
<path d="M646 2H645V5H646V2Z" fill="#D8CDB9"/>
<path d="M649 2H648V5H649V2Z" fill="#D8CDB9"/>
<path d="M652 2H651V5H652V2Z" fill="#D8CDB9"/>
<path d="M655 2H654V5H655V2Z" fill="#D8CDB9"/>
<path d="M658 0H657V6H658V0Z" fill="#D8CDB9"/>
<path d="M661 2H660V5H661V2Z" fill="#D8CDB9"/>
<path d="M664 2H663V5H664V2Z" fill="#D8CDB9"/>
<path d="M667 2H666V5H667V2Z" fill="#D8CDB9"/>
<path d="M670 2H669V5H670V2Z" fill="#D8CDB9"/>
<path d="M673 0H672V6H673V0Z" fill="#D8CDB9"/>
<path d="M676 2H675V5H676V2Z" fill="#D8CDB9"/>
<path d="M679 2H678V5H679V2Z" fill="#D8CDB9"/>
<path d="M682 2H681V5H682V2Z" fill="#D8CDB9"/>
<path d="M685 2H684V5H685V2Z" fill="#D8CDB9"/>
<path d="M688 0H687V6H688V0Z" fill="#D8CDB9"/>
<path d="M691 2H690V5H691V2Z" fill="#D8CDB9"/>
<path d="M694 2H693V5H694V2Z" fill="#D8CDB9"/>
<path d="M697 2H696V5H697V2Z" fill="#D8CDB9"/>
<path d="M700 2H699V5H700V2Z" fill="#D8CDB9"/>
<path d="M703 0H702V6H703V0Z" fill="#D8CDB9"/>
<path d="M706 2H705V5H706V2Z" fill="#D8CDB9"/>
<path d="M709 2H708V5H709V2Z" fill="#D8CDB9"/>
<path d="M712 2H711V5H712V2Z" fill="#D8CDB9"/>
<path d="M715 2H714V5H715V2Z" fill="#D8CDB9"/>
<path d="M718 0H717V6H718V0Z" fill="#D8CDB9"/>
<path d="M721 2H720V5H721V2Z" fill="#D8CDB9"/>
<path d="M724 2H723V5H724V2Z" fill="#D8CDB9"/>
<path d="M727 2H726V5H727V2Z" fill="#D8CDB9"/>
<path d="M730 2H729V5H730V2Z" fill="#D8CDB9"/>
<path d="M733 0H732V6H733V0Z" fill="#D8CDB9"/>
<path d="M736 2H735V5H736V2Z" fill="#D8CDB9"/>
<path d="M739 2H738V5H739V2Z" fill="#D8CDB9"/>
<path d="M742 2H741V5H742V2Z" fill="#D8CDB9"/>
<path d="M745 2H744V5H745V2Z" fill="#D8CDB9"/>
<path d="M748 0H747V6H748V0Z" fill="#D8CDB9"/>
<path d="M751 2H750V5H751V2Z" fill="#D8CDB9"/>
<path d="M754 2H753V5H754V2Z" fill="#D8CDB9"/>
<path d="M757 2H756V5H757V2Z" fill="#D8CDB9"/>
<path d="M760 2H759V5H760V2Z" fill="#D8CDB9"/>
<path d="M763 0H762V6H763V0Z" fill="#D8CDB9"/>
<path d="M766 2H765V5H766V2Z" fill="#D8CDB9"/>
<path d="M769 2H768V5H769V2Z" fill="#D8CDB9"/>
<path d="M772 2H771V5H772V2Z" fill="#D8CDB9"/>
<path d="M775 2H774V5H775V2Z" fill="#D8CDB9"/>
<path d="M778 0H777V6H778V0Z" fill="#D8CDB9"/>
<path d="M781 2H780V5H781V2Z" fill="#D8CDB9"/>
<path d="M784 2H783V5H784V2Z" fill="#D8CDB9"/>
<path d="M787 2H786V5H787V2Z" fill="#D8CDB9"/>
<path d="M790 2H789V5H790V2Z" fill="#D8CDB9"/>
<path d="M793 0H792V6H793V0Z" fill="#D8CDB9"/>
<path d="M796 2H795V5H796V2Z" fill="#D8CDB9"/>
<path d="M799 2H798V5H799V2Z" fill="#D8CDB9"/>
<path d="M802 2H801V5H802V2Z" fill="#D8CDB9"/>
<path d="M805 2H804V5H805V2Z" fill="#D8CDB9"/>
<path d="M808 0H807V6H808V0Z" fill="#D8CDB9"/>
<path d="M811 2H810V5H811V2Z" fill="#D8CDB9"/>
<path d="M814 2H813V5H814V2Z" fill="#D8CDB9"/>
<path d="M817 2H816V5H817V2Z" fill="#D8CDB9"/>
<path d="M820 2H819V5H820V2Z" fill="#D8CDB9"/>
<path d="M823 0H822V6H823V0Z" fill="#D8CDB9"/>
<path d="M826 2H825V5H826V2Z" fill="#D8CDB9"/>
<path d="M829 2H828V5H829V2Z" fill="#D8CDB9"/>
<path d="M832 2H831V5H832V2Z" fill="#D8CDB9"/>
<path d="M835 2H834V5H835V2Z" fill="#D8CDB9"/>
<path d="M838 0H837V6H838V0Z" fill="#D8CDB9"/>
<path d="M841 2H840V5H841V2Z" fill="#D8CDB9"/>
<path d="M844 2H843V5H844V2Z" fill="#D8CDB9"/>
<path d="M847 2H846V5H847V2Z" fill="#D8CDB9"/>
<path d="M850 2H849V5H850V2Z" fill="#D8CDB9"/>
<path d="M853 0H852V6H853V0Z" fill="#D8CDB9"/>
<path d="M856 2H855V5H856V2Z" fill="#D8CDB9"/>
<path d="M859 2H858V5H859V2Z" fill="#D8CDB9"/>
<path d="M862 2H861V5H862V2Z" fill="#D8CDB9"/>
<path d="M865 2H864V5H865V2Z" fill="#D8CDB9"/>
<path d="M868 0H867V6H868V0Z" fill="#D8CDB9"/>
<path d="M871 2H870V5H871V2Z" fill="#D8CDB9"/>
<path d="M874 2H873V5H874V2Z" fill="#D8CDB9"/>
<path d="M877 2H876V5H877V2Z" fill="#D8CDB9"/>
<path d="M880 2H879V5H880V2Z" fill="#D8CDB9"/>
<path d="M883 0H882V6H883V0Z" fill="#D8CDB9"/>
<path d="M886 2H885V5H886V2Z" fill="#D8CDB9"/>
<path d="M889 2H888V5H889V2Z" fill="#D8CDB9"/>
<path d="M892 2H891V5H892V2Z" fill="#D8CDB9"/>
<path d="M895 2H894V5H895V2Z" fill="#D8CDB9"/>
<path d="M898 0H897V6H898V0Z" fill="#D8CDB9"/>
<path d="M901 2H900V5H901V2Z" fill="#D8CDB9"/>
<path d="M904 2H903V5H904V2Z" fill="#D8CDB9"/>
<path d="M907 2H906V5H907V2Z" fill="#D8CDB9"/>
<path d="M910 2H909V5H910V2Z" fill="#D8CDB9"/>
<path d="M913 0H912V6H913V0Z" fill="#D8CDB9"/>
<path d="M916 2H915V5H916V2Z" fill="#D8CDB9"/>
<path d="M919 2H918V5H919V2Z" fill="#D8CDB9"/>
<path d="M922 2H921V5H922V2Z" fill="#D8CDB9"/>
<path d="M925 2H924V5H925V2Z" fill="#D8CDB9"/>
<path d="M928 0H927V6H928V0Z" fill="#D8CDB9"/>
<path d="M931 2H930V5H931V2Z" fill="#D8CDB9"/>
<path d="M934 2H933V5H934V2Z" fill="#D8CDB9"/>
<path d="M937 2H936V5H937V2Z" fill="#D8CDB9"/>
<path d="M940 2H939V5H940V2Z" fill="#D8CDB9"/>
<path d="M943 0H942V6H943V0Z" fill="#D8CDB9"/>
<path d="M946 2H945V5H946V2Z" fill="#D8CDB9"/>
<path d="M949 2H948V5H949V2Z" fill="#D8CDB9"/>
<path d="M952 2H951V5H952V2Z" fill="#D8CDB9"/>
<path d="M955 2H954V5H955V2Z" fill="#D8CDB9"/>
<path d="M958 0H957V6H958V0Z" fill="#D8CDB9"/>
<path d="M961 2H960V5H961V2Z" fill="#D8CDB9"/>
<path d="M964 2H963V5H964V2Z" fill="#D8CDB9"/>
<path d="M967 2H966V5H967V2Z" fill="#D8CDB9"/>
<path d="M970 2H969V5H970V2Z" fill="#D8CDB9"/>
<path d="M973 0H972V6H973V0Z" fill="#D8CDB9"/>
<path d="M976 2H975V5H976V2Z" fill="#D8CDB9"/>
<path d="M979 2H978V5H979V2Z" fill="#D8CDB9"/>
<path d="M982 2H981V5H982V2Z" fill="#D8CDB9"/>
<path d="M985 2H984V5H985V2Z" fill="#D8CDB9"/>
<path d="M988 0H987V6H988V0Z" fill="#D8CDB9"/>
<path d="M991 2H990V5H991V2Z" fill="#D8CDB9"/>
<path d="M994 2H993V5H994V2Z" fill="#D8CDB9"/>
<path d="M997 2H996V5H997V2Z" fill="#D8CDB9"/>
<path d="M1000 2H999V5H1000V2Z" fill="#D8CDB9"/>
<path d="M1003 0H1002V6H1003V0Z" fill="#D8CDB9"/>
<path d="M1006 2H1005V5H1006V2Z" fill="#D8CDB9"/>
<path d="M1009 2H1008V5H1009V2Z" fill="#D8CDB9"/>
<path d="M1012 2H1011V5H1012V2Z" fill="#D8CDB9"/>
<path d="M1015 2H1014V5H1015V2Z" fill="#D8CDB9"/>
<path d="M1018 0H1017V6H1018V0Z" fill="#D8CDB9"/>
<path d="M1021 2H1020V5H1021V2Z" fill="#D8CDB9"/>
<path d="M1024 2H1023V5H1024V2Z" fill="#D8CDB9"/>
<path d="M1027 2H1026V5H1027V2Z" fill="#D8CDB9"/>
<path d="M1030 2H1029V5H1030V2Z" fill="#D8CDB9"/>
<path d="M1033 0H1032V6H1033V0Z" fill="#D8CDB9"/>
<path d="M1036 2H1035V5H1036V2Z" fill="#D8CDB9"/>
<path d="M1039 2H1038V5H1039V2Z" fill="#D8CDB9"/>
<path d="M1042 2H1041V5H1042V2Z" fill="#D8CDB9"/>
<path d="M1045 2H1044V5H1045V2Z" fill="#D8CDB9"/>
<path d="M1048 0H1047V6H1048V0Z" fill="#D8CDB9"/>
<path d="M1051 2H1050V5H1051V2Z" fill="#D8CDB9"/>
<path d="M1054 2H1053V5H1054V2Z" fill="#D8CDB9"/>
<path d="M1057 2H1056V5H1057V2Z" fill="#D8CDB9"/>
<path d="M1060 2H1059V5H1060V2Z" fill="#D8CDB9"/>
<path d="M1063 0H1062V6H1063V0Z" fill="#D8CDB9"/>
<path d="M1066 2H1065V5H1066V2Z" fill="#D8CDB9"/>
<path d="M1069 2H1068V5H1069V2Z" fill="#D8CDB9"/>
<path d="M1072 2H1071V5H1072V2Z" fill="#D8CDB9"/>
<path d="M1075 2H1074V5H1075V2Z" fill="#D8CDB9"/>
<path d="M1078 0H1077V6H1078V0Z" fill="#D8CDB9"/>
<path d="M1081 2H1080V5H1081V2Z" fill="#D8CDB9"/>
<path d="M1084 2H1083V5H1084V2Z" fill="#D8CDB9"/>
<path d="M1087 2H1086V5H1087V2Z" fill="#D8CDB9"/>
<path d="M1090 2H1089V5H1090V2Z" fill="#D8CDB9"/>
<path d="M1093 0H1092V6H1093V0Z" fill="#D8CDB9"/>
<path d="M1096 2H1095V5H1096V2Z" fill="#D8CDB9"/>
<path d="M1099 2H1098V5H1099V2Z" fill="#D8CDB9"/>
<path d="M1102 2H1101V5H1102V2Z" fill="#D8CDB9"/>
<path d="M1105 2H1104V5H1105V2Z" fill="#D8CDB9"/>
<path d="M1108 0H1107V6H1108V0Z" fill="#D8CDB9"/>
<path d="M1111 2H1110V5H1111V2Z" fill="#D8CDB9"/>
<path d="M1114 2H1113V5H1114V2Z" fill="#D8CDB9"/>
<path d="M1117 2H1116V5H1117V2Z" fill="#D8CDB9"/>
<path d="M1120 2H1119V5H1120V2Z" fill="#D8CDB9"/>
<path d="M1123 0H1122V6H1123V0Z" fill="#D8CDB9"/>
<path d="M1126 2H1125V5H1126V2Z" fill="#D8CDB9"/>
<path d="M1129 2H1128V5H1129V2Z" fill="#D8CDB9"/>
<path d="M1132 2H1131V5H1132V2Z" fill="#D8CDB9"/>
<path d="M1135 2H1134V5H1135V2Z" fill="#D8CDB9"/>
<path d="M1138 0H1137V6H1138V0Z" fill="#D8CDB9"/>
<path d="M1141 2H1140V5H1141V2Z" fill="#D8CDB9"/>
<path d="M1144 2H1143V5H1144V2Z" fill="#D8CDB9"/>
<path d="M1147 2H1146V5H1147V2Z" fill="#D8CDB9"/>
<path d="M1150 2H1149V5H1150V2Z" fill="#D8CDB9"/>
<path d="M1153 0H1152V6H1153V0Z" fill="#D8CDB9"/>
<path d="M1156 2H1155V5H1156V2Z" fill="#D8CDB9"/>
<path d="M1159 2H1158V5H1159V2Z" fill="#D8CDB9"/>
<path d="M1162 2H1161V5H1162V2Z" fill="#D8CDB9"/>
<path d="M1165 2H1164V5H1165V2Z" fill="#D8CDB9"/>
<path d="M1168 0H1167V6H1168V0Z" fill="#D8CDB9"/>
<path d="M1171 2H1170V5H1171V2Z" fill="#D8CDB9"/>
<path d="M1174 2H1173V5H1174V2Z" fill="#D8CDB9"/>
<path d="M1177 2H1176V5H1177V2Z" fill="#D8CDB9"/>
<path d="M1180 2H1179V5H1180V2Z" fill="#D8CDB9"/>
<path d="M1183 0H1182V6H1183V0Z" fill="#D8CDB9"/>
<path d="M1186 2H1185V5H1186V2Z" fill="#D8CDB9"/>
<path d="M1189 2H1188V5H1189V2Z" fill="#D8CDB9"/>
<path d="M1192 2H1191V5H1192V2Z" fill="#D8CDB9"/>
<path d="M1195 2H1194V5H1195V2Z" fill="#D8CDB9"/>
<path d="M1198 0H1197V6H1198V0Z" fill="#D8CDB9"/>
<path d="M1201 2H1200V5H1201V2Z" fill="#D8CDB9"/>
<path d="M1204 2H1203V5H1204V2Z" fill="#D8CDB9"/>
<path d="M1207 2H1206V5H1207V2Z" fill="#D8CDB9"/>
<path d="M1210 2H1209V5H1210V2Z" fill="#D8CDB9"/>
<path d="M1213 0H1212V6H1213V0Z" fill="#D8CDB9"/>
<path d="M1216 2H1215V5H1216V2Z" fill="#D8CDB9"/>
<path d="M1219 2H1218V5H1219V2Z" fill="#D8CDB9"/>
<path d="M1222 2H1221V5H1222V2Z" fill="#D8CDB9"/>
<path d="M1225 2H1224V5H1225V2Z" fill="#D8CDB9"/>
<path d="M1228 0H1227V6H1228V0Z" fill="#D8CDB9"/>
<path d="M1231 2H1230V5H1231V2Z" fill="#D8CDB9"/>
<path d="M1234 2H1233V5H1234V2Z" fill="#D8CDB9"/>
<path d="M1237 2H1236V5H1237V2Z" fill="#D8CDB9"/>
<path d="M1240 2H1239V5H1240V2Z" fill="#D8CDB9"/>
<path d="M1243 0H1242V6H1243V0Z" fill="#D8CDB9"/>
<path d="M1246 2H1245V5H1246V2Z" fill="#D8CDB9"/>
<path d="M1249 2H1248V5H1249V2Z" fill="#D8CDB9"/>
<path d="M1252 2H1251V5H1252V2Z" fill="#D8CDB9"/>
<path d="M1255 2H1254V5H1255V2Z" fill="#D8CDB9"/>
<path d="M1258 0H1257V6H1258V0Z" fill="#D8CDB9"/>
<path d="M1261 2H1260V5H1261V2Z" fill="#D8CDB9"/>
<path d="M1264 2H1263V5H1264V2Z" fill="#D8CDB9"/>
<path d="M1267 2H1266V5H1267V2Z" fill="#D8CDB9"/>
<path d="M1270 2H1269V5H1270V2Z" fill="#D8CDB9"/>
<path d="M1273 0H1272V6H1273V0Z" fill="#D8CDB9"/>
<path d="M1276 2H1275V5H1276V2Z" fill="#D8CDB9"/>
<path d="M1279 2H1278V5H1279V2Z" fill="#D8CDB9"/>
<path d="M1282 2H1281V5H1282V2Z" fill="#D8CDB9"/>
<path d="M1285 2H1284V5H1285V2Z" fill="#D8CDB9"/>
<path d="M1288 0H1287V6H1288V0Z" fill="#D8CDB9"/>
<path d="M1291 2H1290V5H1291V2Z" fill="#D8CDB9"/>
<path d="M1294 2H1293V5H1294V2Z" fill="#D8CDB9"/>
<path d="M1297 2H1296V5H1297V2Z" fill="#D8CDB9"/>
<path d="M1300 2H1299V5H1300V2Z" fill="#D8CDB9"/>
<path d="M1303 0H1302V6H1303V0Z" fill="#D8CDB9"/>
<path d="M1306 2H1305V5H1306V2Z" fill="#D8CDB9"/>
<path d="M1309 2H1308V5H1309V2Z" fill="#D8CDB9"/>
<path d="M1312 2H1311V5H1312V2Z" fill="#D8CDB9"/>
<path d="M1315 2H1314V5H1315V2Z" fill="#D8CDB9"/>
<path d="M1318 0H1317V6H1318V0Z" fill="#D8CDB9"/>
<path d="M1321 2H1320V5H1321V2Z" fill="#D8CDB9"/>
<path d="M1324 2H1323V5H1324V2Z" fill="#D8CDB9"/>
<path d="M1327 2H1326V5H1327V2Z" fill="#D8CDB9"/>
<path d="M1330 2H1329V5H1330V2Z" fill="#D8CDB9"/>
<path d="M1333 0H1332V6H1333V0Z" fill="#D8CDB9"/>
<path d="M1336 2H1335V5H1336V2Z" fill="#D8CDB9"/>
<path d="M1339 2H1338V5H1339V2Z" fill="#D8CDB9"/>
<path d="M1342 2H1341V5H1342V2Z" fill="#D8CDB9"/>
<path d="M1345 2H1344V5H1345V2Z" fill="#D8CDB9"/>
<path d="M1348 0H1347V6H1348V0Z" fill="#D8CDB9"/>
<path d="M1351 2H1350V5H1351V2Z" fill="#D8CDB9"/>
<path d="M1354 2H1353V5H1354V2Z" fill="#D8CDB9"/>
<path d="M1357 2H1356V5H1357V2Z" fill="#D8CDB9"/>
<path d="M1360 2H1359V5H1360V2Z" fill="#D8CDB9"/>
<path d="M1363 0H1362V6H1363V0Z" fill="#D8CDB9"/>
<path d="M1366 2H1365V5H1366V2Z" fill="#D8CDB9"/>
<path d="M1369 2H1368V5H1369V2Z" fill="#D8CDB9"/>
<path d="M1372 2H1371V5H1372V2Z" fill="#D8CDB9"/>
<path d="M1375 2H1374V5H1375V2Z" fill="#D8CDB9"/>
<path d="M1378 0H1377V6H1378V0Z" fill="#D8CDB9"/>
<path d="M1381 2H1380V5H1381V2Z" fill="#D8CDB9"/>
<path d="M1384 2H1383V5H1384V2Z" fill="#D8CDB9"/>
<path d="M1387 2H1386V5H1387V2Z" fill="#D8CDB9"/>
<path d="M1390 2H1389V5H1390V2Z" fill="#D8CDB9"/>
<path d="M1393 0H1392V6H1393V0Z" fill="#D8CDB9"/>
<path d="M1396 2H1395V5H1396V2Z" fill="#D8CDB9"/>
<path d="M1399 2H1398V5H1399V2Z" fill="#D8CDB9"/>
<path d="M1402 2H1401V5H1402V2Z" fill="#D8CDB9"/>
<path d="M1405 2H1404V5H1405V2Z" fill="#D8CDB9"/>
<path d="M1408 0H1407V6H1408V0Z" fill="#D8CDB9"/>
<path d="M1411 2H1410V5H1411V2Z" fill="#D8CDB9"/>
<path d="M1414 2H1413V5H1414V2Z" fill="#D8CDB9"/>
<path d="M1417 2H1416V5H1417V2Z" fill="#D8CDB9"/>
<path d="M1420 2H1419V5H1420V2Z" fill="#D8CDB9"/>
<path d="M1423 0H1422V6H1423V0Z" fill="#D8CDB9"/>
<path d="M1426 2H1425V5H1426V2Z" fill="#D8CDB9"/>
<path d="M1429 2H1428V5H1429V2Z" fill="#D8CDB9"/>
<path d="M1432 2H1431V5H1432V2Z" fill="#D8CDB9"/>
<path d="M1435 2H1434V5H1435V2Z" fill="#D8CDB9"/>
<path d="M1438 0H1437V6H1438V0Z" fill="#D8CDB9"/>
<path d="M1441 2H1440V5H1441V2Z" fill="#D8CDB9"/>
<path d="M1444 2H1443V5H1444V2Z" fill="#D8CDB9"/>
<path d="M1447 2H1446V5H1447V2Z" fill="#D8CDB9"/>
<path d="M1450 2H1449V5H1450V2Z" fill="#D8CDB9"/>
<path d="M1453 0H1452V6H1453V0Z" fill="#D8CDB9"/>
<path d="M1456 2H1455V5H1456V2Z" fill="#D8CDB9"/>
<path d="M1459 2H1458V5H1459V2Z" fill="#D8CDB9"/>
<path d="M1462 2H1461V5H1462V2Z" fill="#D8CDB9"/>
<path d="M1465 2H1464V5H1465V2Z" fill="#D8CDB9"/>
<path d="M1468 0H1467V6H1468V0Z" fill="#D8CDB9"/>
<path d="M1471 2H1470V5H1471V2Z" fill="#D8CDB9"/>
<path d="M1474 2H1473V5H1474V2Z" fill="#D8CDB9"/>
<path d="M1477 2H1476V5H1477V2Z" fill="#D8CDB9"/>
<path d="M1480 2H1479V5H1480V2Z" fill="#D8CDB9"/>
<path d="M1483 0H1482V6H1483V0Z" fill="#D8CDB9"/>
<path d="M1486 2H1485V5H1486V2Z" fill="#D8CDB9"/>
<path d="M1489 2H1488V5H1489V2Z" fill="#D8CDB9"/>
<path d="M1492 2H1491V5H1492V2Z" fill="#D8CDB9"/>
<path d="M1495 2H1494V5H1495V2Z" fill="#D8CDB9"/>
<path d="M1498 0H1497V6H1498V0Z" fill="#D8CDB9"/>
<path d="M1501 2H1500V5H1501V2Z" fill="#D8CDB9"/>
<path d="M1504 2H1503V5H1504V2Z" fill="#D8CDB9"/>
<path d="M1507 2H1506V5H1507V2Z" fill="#D8CDB9"/>
<path d="M1510 2H1509V5H1510V2Z" fill="#D8CDB9"/>
<path d="M1513 0H1512V6H1513V0Z" fill="#D8CDB9"/>
<path d="M1516 2H1515V5H1516V2Z" fill="#D8CDB9"/>
<path d="M1519 2H1518V5H1519V2Z" fill="#D8CDB9"/>
<path d="M1522 2H1521V5H1522V2Z" fill="#D8CDB9"/>
<path d="M1525 2H1524V5H1525V2Z" fill="#D8CDB9"/>
<path d="M1528 0H1527V6H1528V0Z" fill="#D8CDB9"/>
<path d="M1531 2H1530V5H1531V2Z" fill="#D8CDB9"/>
<path d="M1534 2H1533V5H1534V2Z" fill="#D8CDB9"/>
<path d="M1537 2H1536V5H1537V2Z" fill="#D8CDB9"/>
<path d="M1540 2H1539V5H1540V2Z" fill="#D8CDB9"/>
<path d="M1543 0H1542V6H1543V0Z" fill="#D8CDB9"/>
<path d="M1546 2H1545V5H1546V2Z" fill="#D8CDB9"/>
<path d="M1549 2H1548V5H1549V2Z" fill="#D8CDB9"/>
<path d="M1552 2H1551V5H1552V2Z" fill="#D8CDB9"/>
<path d="M1555 2H1554V5H1555V2Z" fill="#D8CDB9"/>
<path d="M1558 0H1557V6H1558V0Z" fill="#D8CDB9"/>
<path d="M1561 2H1560V5H1561V2Z" fill="#D8CDB9"/>
<path d="M1564 2H1563V5H1564V2Z" fill="#D8CDB9"/>
<path d="M1567 2H1566V5H1567V2Z" fill="#D8CDB9"/>
<path d="M1570 2H1569V5H1570V2Z" fill="#D8CDB9"/>
<path d="M1573 0H1572V6H1573V0Z" fill="#D8CDB9"/>
<path d="M1576 2H1575V5H1576V2Z" fill="#D8CDB9"/>
<path d="M1579 2H1578V5H1579V2Z" fill="#D8CDB9"/>
<path d="M1582 2H1581V5H1582V2Z" fill="#D8CDB9"/>
<path d="M1585 2H1584V5H1585V2Z" fill="#D8CDB9"/>
<path d="M1588 0H1587V6H1588V0Z" fill="#D8CDB9"/>
<path d="M1591 2H1590V5H1591V2Z" fill="#D8CDB9"/>
<path d="M1594 2H1593V5H1594V2Z" fill="#D8CDB9"/>
<path d="M1597 2H1596V5H1597V2Z" fill="#D8CDB9"/>
<path d="M1600 2H1599V5H1600V2Z" fill="#D8CDB9"/>
<path d="M1603 0H1602V6H1603V0Z" fill="#D8CDB9"/>
<path d="M1606 2H1605V5H1606V2Z" fill="#D8CDB9"/>
<path d="M1609 2H1608V5H1609V2Z" fill="#D8CDB9"/>
<path d="M1612 2H1611V5H1612V2Z" fill="#D8CDB9"/>
<path d="M1615 2H1614V5H1615V2Z" fill="#D8CDB9"/>
<path d="M1618 0H1617V6H1618V0Z" fill="#D8CDB9"/>
<path d="M1621 2H1620V5H1621V2Z" fill="#D8CDB9"/>
<path d="M1624 2H1623V5H1624V2Z" fill="#D8CDB9"/>
<path d="M1627 2H1626V5H1627V2Z" fill="#D8CDB9"/>
<path d="M1630 2H1629V5H1630V2Z" fill="#D8CDB9"/>
<path d="M1633 0H1632V6H1633V0Z" fill="#D8CDB9"/>
<path d="M1636 2H1635V5H1636V2Z" fill="#D8CDB9"/>
<path d="M1639 2H1638V5H1639V2Z" fill="#D8CDB9"/>
<path d="M1642 2H1641V5H1642V2Z" fill="#D8CDB9"/>
<path d="M1645 2H1644V5H1645V2Z" fill="#D8CDB9"/>
<path d="M1648 0H1647V6H1648V0Z" fill="#D8CDB9"/>
<path d="M1651 2H1650V5H1651V2Z" fill="#D8CDB9"/>
<path d="M1654 2H1653V5H1654V2Z" fill="#D8CDB9"/>
<path d="M1657 2H1656V5H1657V2Z" fill="#D8CDB9"/>
<path d="M1660 2H1659V5H1660V2Z" fill="#D8CDB9"/>
<path d="M1663 0H1662V6H1663V0Z" fill="#D8CDB9"/>
<path d="M1666 2H1665V5H1666V2Z" fill="#D8CDB9"/>
<path d="M1669 2H1668V5H1669V2Z" fill="#D8CDB9"/>
<path d="M1672 2H1671V5H1672V2Z" fill="#D8CDB9"/>
<path d="M1675 2H1674V5H1675V2Z" fill="#D8CDB9"/>
<path d="M1678 0H1677V6H1678V0Z" fill="#D8CDB9"/>
<path d="M1681 2H1680V5H1681V2Z" fill="#D8CDB9"/>
<path d="M1684 2H1683V5H1684V2Z" fill="#D8CDB9"/>
<path d="M1687 2H1686V5H1687V2Z" fill="#D8CDB9"/>
<path d="M1690 2H1689V5H1690V2Z" fill="#D8CDB9"/>
<path d="M1693 0H1692V6H1693V0Z" fill="#D8CDB9"/>
<path d="M1696 2H1695V5H1696V2Z" fill="#D8CDB9"/>
<path d="M1699 2H1698V5H1699V2Z" fill="#D8CDB9"/>
<path d="M1702 2H1701V5H1702V2Z" fill="#D8CDB9"/>
<path d="M1705 2H1704V5H1705V2Z" fill="#D8CDB9"/>
<path d="M1708 0H1707V6H1708V0Z" fill="#D8CDB9"/>
<path d="M1711 2H1710V5H1711V2Z" fill="#D8CDB9"/>
<path d="M1714 2H1713V5H1714V2Z" fill="#D8CDB9"/>
<path d="M1717 2H1716V5H1717V2Z" fill="#D8CDB9"/>
<path d="M1720 2H1719V5H1720V2Z" fill="#D8CDB9"/>
<path d="M1723 0H1722V6H1723V0Z" fill="#D8CDB9"/>
<path d="M1726 2H1725V5H1726V2Z" fill="#D8CDB9"/>
<path d="M1729 2H1728V5H1729V2Z" fill="#D8CDB9"/>
<path d="M1732 2H1731V5H1732V2Z" fill="#D8CDB9"/>
<path d="M1735 2H1734V5H1735V2Z" fill="#D8CDB9"/>
<path d="M1738 0H1737V6H1738V0Z" fill="#D8CDB9"/>
<path d="M1741 2H1740V5H1741V2Z" fill="#D8CDB9"/>
<path d="M1744 2H1743V5H1744V2Z" fill="#D8CDB9"/>
<path d="M1747 2H1746V5H1747V2Z" fill="#D8CDB9"/>
<path d="M1750 2H1749V5H1750V2Z" fill="#D8CDB9"/>
<path d="M1753 0H1752V6H1753V0Z" fill="#D8CDB9"/>
<path d="M1756 2H1755V5H1756V2Z" fill="#D8CDB9"/>
<path d="M1759 2H1758V5H1759V2Z" fill="#D8CDB9"/>
<path d="M1762 2H1761V5H1762V2Z" fill="#D8CDB9"/>
<path d="M1765 2H1764V5H1765V2Z" fill="#D8CDB9"/>
<path d="M1768 0H1767V6H1768V0Z" fill="#D8CDB9"/>
<path d="M1771 2H1770V5H1771V2Z" fill="#D8CDB9"/>
<path d="M1774 2H1773V5H1774V2Z" fill="#D8CDB9"/>
<path d="M1777 2H1776V5H1777V2Z" fill="#D8CDB9"/>
<path d="M1780 2H1779V5H1780V2Z" fill="#D8CDB9"/>
<path d="M1783 0H1782V6H1783V0Z" fill="#D8CDB9"/>
<path d="M1786 2H1785V5H1786V2Z" fill="#D8CDB9"/>
<path d="M1789 2H1788V5H1789V2Z" fill="#D8CDB9"/>
<path d="M1792 2H1791V5H1792V2Z" fill="#D8CDB9"/>
<path d="M1795 2H1794V5H1795V2Z" fill="#D8CDB9"/>
<path d="M1798 0H1797V6H1798V0Z" fill="#D8CDB9"/>
<path d="M1801 2H1800V5H1801V2Z" fill="#D8CDB9"/>
<path d="M1804 2H1803V5H1804V2Z" fill="#D8CDB9"/>
<path d="M1807 2H1806V5H1807V2Z" fill="#D8CDB9"/>
<path d="M1810 2H1809V5H1810V2Z" fill="#D8CDB9"/>
<path d="M1813 0H1812V6H1813V0Z" fill="#D8CDB9"/>
<path d="M1816 2H1815V5H1816V2Z" fill="#D8CDB9"/>
<path d="M1819 2H1818V5H1819V2Z" fill="#D8CDB9"/>
<path d="M1822 2H1821V5H1822V2Z" fill="#D8CDB9"/>
<path d="M1825 2H1824V5H1825V2Z" fill="#D8CDB9"/>
<path d="M1828 0H1827V6H1828V0Z" fill="#D8CDB9"/>
<path d="M1831 2H1830V5H1831V2Z" fill="#D8CDB9"/>
<path d="M1834 2H1833V5H1834V2Z" fill="#D8CDB9"/>
<path d="M1837 2H1836V5H1837V2Z" fill="#D8CDB9"/>
<path d="M1840 2H1839V5H1840V2Z" fill="#D8CDB9"/>
<path d="M1843 0H1842V6H1843V0Z" fill="#D8CDB9"/>
<path d="M1846 2H1845V5H1846V2Z" fill="#D8CDB9"/>
<path d="M1849 2H1848V5H1849V2Z" fill="#D8CDB9"/>
<path d="M1852 2H1851V5H1852V2Z" fill="#D8CDB9"/>
<path d="M1855 2H1854V5H1855V2Z" fill="#D8CDB9"/>
<path d="M1858 0H1857V6H1858V0Z" fill="#D8CDB9"/>
<path d="M1861 2H1860V5H1861V2Z" fill="#D8CDB9"/>
<path d="M1864 2H1863V5H1864V2Z" fill="#D8CDB9"/>
<path d="M1867 2H1866V5H1867V2Z" fill="#D8CDB9"/>
<path d="M1870 2H1869V5H1870V2Z" fill="#D8CDB9"/>
<path d="M1873 0H1872V6H1873V0Z" fill="#D8CDB9"/>
<path d="M1876 2H1875V5H1876V2Z" fill="#D8CDB9"/>
<path d="M1879 2H1878V5H1879V2Z" fill="#D8CDB9"/>
<path d="M1882 2H1881V5H1882V2Z" fill="#D8CDB9"/>
<path d="M1885 2H1884V5H1885V2Z" fill="#D8CDB9"/>
<path d="M1888 0H1887V6H1888V0Z" fill="#D8CDB9"/>
<path d="M1891 2H1890V5H1891V2Z" fill="#D8CDB9"/>
<path d="M1894 2H1893V5H1894V2Z" fill="#D8CDB9"/>
<path d="M1897 2H1896V5H1897V2Z" fill="#D8CDB9"/>
<path d="M1900 2H1899V5H1900V2Z" fill="#D8CDB9"/>
<path d="M1903 0H1902V6H1903V0Z" fill="#D8CDB9"/>
<path d="M1906 2H1905V5H1906V2Z" fill="#D8CDB9"/>
<path d="M1909 2H1908V5H1909V2Z" fill="#D8CDB9"/>
<path d="M1912 2H1911V5H1912V2Z" fill="#D8CDB9"/>
<path d="M1915 2H1914V5H1915V2Z" fill="#D8CDB9"/>
<path d="M1918 0H1917V6H1918V0Z" fill="#D8CDB9"/>
</svg>
